<svg xmlns="http://www.w3.org/2000/svg" xmlns:xlink="http://www.w3.org/1999/xlink" width="1000" zoomAndPan="magnify" viewBox="0 0 750 374.999991" height="500" preserveAspectRatio="xMidYMid meet" version="1.0"><defs><g/><clipPath id="0261ba3d72"><path d="M 0.300781 131.5 L 99.613281 131.5 L 99.613281 277.792969 L 0.300781 277.792969 Z M 0.300781 131.5 " clip-rule="nonzero"/></clipPath></defs><g fill="#000000" fill-opacity="1"><g transform="translate(108.168458, 243.580942)"><g><path d="M 9.3125 0 L 9.3125 -110.109375 L 40.328125 -110.109375 L 40.328125 0 Z M 9.3125 0 "/></g></g></g><g fill="#000000" fill-opacity="1"><g transform="translate(166.635729, 243.580942)"><g><path d="M 79.5625 -110.109375 L 109.34375 -110.109375 L 109.34375 0 L 81.734375 0 L 39.078125 -59.25 L 39.078125 0 L 9.3125 0 L 9.3125 -110.109375 L 36.90625 -110.109375 L 79.5625 -51.03125 Z M 79.5625 -110.109375 "/></g></g></g><g fill="#000000" fill-opacity="1"><g transform="translate(294.114346, 243.580942)"><g><path d="M -6.046875 0 L 42.5 -110.109375 L 68.234375 -110.109375 L 115.078125 0 L 83.75 0 L 76 -19.703125 L 33.34375 -19.703125 L 25.28125 0 Z M 43.890625 -45.28125 L 65.765625 -45.28125 L 55.0625 -72.28125 Z M 43.890625 -45.28125 "/></g></g></g><g fill="#000000" fill-opacity="1"><g transform="translate(412.598226, 243.580942)"><g><path d="M 9.609375 0 L 12.875 -110.109375 L 38.15625 -110.109375 L 75.0625 -38.3125 L 111.359375 -110.109375 L 136.640625 -110.109375 L 138.96875 0 L 109.03125 0 L 108.09375 -46.0625 L 84.53125 0 L 62.8125 0 L 39.390625 -45.28125 L 38 0 Z M 9.609375 0 "/></g></g></g><g fill="#000000" fill-opacity="1"><g transform="translate(570.162699, 243.580942)"><g><path d="M 9.3125 0 L 9.3125 -110.109375 L 40.328125 -110.109375 L 40.328125 0 Z M 9.3125 0 "/></g></g></g><g fill="#000000" fill-opacity="1"><g transform="translate(628.629964, 243.580942)"><g><path d="M 46.375 1.546875 C 32.519531 1.546875 21.710938 -1.394531 13.953125 -7.28125 C 6.203125 -13.175781 1.8125 -21.757812 0.78125 -33.03125 L 29.46875 -37.21875 C 29.675781 -33.289062 31.40625 -30.113281 34.65625 -27.6875 C 37.914062 -25.257812 42.128906 -24.046875 47.296875 -24.046875 C 56.816406 -24.046875 61.578125 -26.523438 61.578125 -31.484375 C 61.578125 -33.753906 60.253906 -35.585938 57.609375 -36.984375 C 54.972656 -38.378906 50.660156 -39.800781 44.671875 -41.25 C 31.847656 -44.351562 22.4375 -48.488281 16.4375 -53.65625 C 10.4375 -58.832031 7.488281 -66.125 7.59375 -75.53125 C 7.695312 -82.664062 9.582031 -88.945312 13.25 -94.375 C 16.925781 -99.800781 22.097656 -104.039062 28.765625 -107.09375 C 35.429688 -110.144531 43.265625 -111.671875 52.265625 -111.671875 C 63.328125 -111.671875 72.453125 -108.878906 79.640625 -103.296875 C 86.828125 -97.710938 90.9375 -90.113281 91.96875 -80.5 L 64.828125 -75.84375 C 64.304688 -78.84375 62.726562 -81.296875 60.09375 -83.203125 C 57.457031 -85.117188 54.28125 -86.078125 50.5625 -86.078125 C 47.039062 -86.078125 44.21875 -85.378906 42.09375 -83.984375 C 39.976562 -82.585938 38.921875 -80.703125 38.921875 -78.328125 C 38.921875 -76.148438 39.976562 -74.257812 42.09375 -72.65625 C 44.21875 -71.050781 48.226562 -69.53125 54.125 -68.09375 C 62.601562 -66.019531 69.710938 -63.664062 75.453125 -61.03125 C 81.191406 -58.394531 85.535156 -55.007812 88.484375 -50.875 C 91.429688 -46.738281 92.90625 -41.304688 92.90625 -34.578125 C 92.90625 -27.453125 90.960938 -21.171875 87.078125 -15.734375 C 83.203125 -10.304688 77.773438 -6.066406 70.796875 -3.015625 C 63.816406 0.0234375 55.675781 1.546875 46.375 1.546875 Z M 46.375 1.546875 "/></g></g></g><g fill="#000000" fill-opacity="1"><g transform="translate(114.88804, 276.513462)"><g><path d="M 6.875 0 L 0.984375 0 L 0.984375 -15.296875 L 6.8125 -15.296875 C 8.382812 -15.296875 9.742188 -14.988281 10.890625 -14.375 C 12.035156 -13.769531 12.921875 -12.894531 13.546875 -11.75 C 14.171875 -10.601562 14.484375 -9.234375 14.484375 -7.640625 C 14.484375 -6.046875 14.171875 -4.675781 13.546875 -3.53125 C 12.929688 -2.394531 12.050781 -1.519531 10.90625 -0.90625 C 9.769531 -0.300781 8.425781 0 6.875 0 Z M 5.140625 -3.53125 L 6.71875 -3.53125 C 7.476562 -3.53125 8.125 -3.648438 8.65625 -3.890625 C 9.195312 -4.128906 9.609375 -4.546875 9.890625 -5.140625 C 10.171875 -5.742188 10.3125 -6.578125 10.3125 -7.640625 C 10.3125 -8.710938 10.164062 -9.546875 9.875 -10.140625 C 9.59375 -10.734375 9.175781 -11.148438 8.625 -11.390625 C 8.070312 -11.640625 7.398438 -11.765625 6.609375 -11.765625 L 5.140625 -11.765625 Z M 5.140625 -3.53125 "/></g></g></g><g fill="#000000" fill-opacity="1"><g transform="translate(132.403846, 276.513462)"><g><path d="M 1.046875 0 L 1.046875 -11.46875 L 5.171875 -11.46875 L 5.171875 0 Z M 3.109375 -12.671875 C 2.546875 -12.671875 2.066406 -12.851562 1.671875 -13.21875 C 1.273438 -13.582031 1.078125 -14.023438 1.078125 -14.546875 C 1.078125 -15.066406 1.273438 -15.507812 1.671875 -15.875 C 2.066406 -16.25 2.546875 -16.4375 3.109375 -16.4375 C 3.671875 -16.4375 4.148438 -16.25 4.546875 -15.875 C 4.941406 -15.507812 5.140625 -15.066406 5.140625 -14.546875 C 5.140625 -14.023438 4.941406 -13.582031 4.546875 -13.21875 C 4.148438 -12.851562 3.671875 -12.671875 3.109375 -12.671875 Z M 3.109375 -12.671875 "/></g></g></g><g fill="#000000" fill-opacity="1"><g transform="translate(140.720438, 276.513462)"><g><path d="M 6.578125 4.546875 C 5.421875 4.546875 4.429688 4.378906 3.609375 4.046875 C 2.796875 3.722656 2.160156 3.273438 1.703125 2.703125 C 1.253906 2.140625 1.003906 1.488281 0.953125 0.75 L 4.921875 0.75 C 4.960938 0.988281 5.0625 1.179688 5.21875 1.328125 C 5.382812 1.484375 5.59375 1.59375 5.84375 1.65625 C 6.09375 1.726562 6.375 1.765625 6.6875 1.765625 C 7.21875 1.765625 7.660156 1.632812 8.015625 1.375 C 8.367188 1.113281 8.546875 0.644531 8.546875 -0.03125 L 8.546875 -1.96875 L 8.421875 -1.96875 C 8.273438 -1.582031 8.046875 -1.253906 7.734375 -0.984375 C 7.429688 -0.710938 7.0625 -0.503906 6.625 -0.359375 C 6.1875 -0.222656 5.710938 -0.15625 5.203125 -0.15625 C 4.378906 -0.15625 3.625 -0.34375 2.9375 -0.71875 C 2.257812 -1.09375 1.710938 -1.691406 1.296875 -2.515625 C 0.890625 -3.335938 0.6875 -4.410156 0.6875 -5.734375 C 0.6875 -7.117188 0.898438 -8.242188 1.328125 -9.109375 C 1.765625 -9.972656 2.320312 -10.609375 3 -11.015625 C 3.6875 -11.421875 4.410156 -11.625 5.171875 -11.625 C 5.734375 -11.625 6.226562 -11.523438 6.65625 -11.328125 C 7.082031 -11.128906 7.441406 -10.863281 7.734375 -10.53125 C 8.023438 -10.207031 8.242188 -9.851562 8.390625 -9.46875 L 8.484375 -9.46875 L 8.484375 -11.46875 L 12.609375 -11.46875 L 12.609375 -0.03125 C 12.609375 0.9375 12.359375 1.757812 11.859375 2.4375 C 11.359375 3.125 10.65625 3.644531 9.75 4 C 8.84375 4.363281 7.785156 4.546875 6.578125 4.546875 Z M 6.71875 -3.078125 C 7.101562 -3.078125 7.429688 -3.179688 7.703125 -3.390625 C 7.972656 -3.609375 8.179688 -3.914062 8.328125 -4.3125 C 8.472656 -4.707031 8.546875 -5.179688 8.546875 -5.734375 C 8.546875 -6.304688 8.472656 -6.789062 8.328125 -7.1875 C 8.179688 -7.59375 7.972656 -7.90625 7.703125 -8.125 C 7.429688 -8.34375 7.101562 -8.453125 6.71875 -8.453125 C 6.34375 -8.453125 6.019531 -8.34375 5.75 -8.125 C 5.488281 -7.90625 5.285156 -7.59375 5.140625 -7.1875 C 4.992188 -6.789062 4.921875 -6.304688 4.921875 -5.734375 C 4.921875 -5.171875 4.992188 -4.691406 5.140625 -4.296875 C 5.285156 -3.898438 5.488281 -3.597656 5.75 -3.390625 C 6.019531 -3.179688 6.34375 -3.078125 6.71875 -3.078125 Z M 6.71875 -3.078125 "/></g></g></g><g fill="#000000" fill-opacity="1"><g transform="translate(156.474056, 276.513462)"><g><path d="M 1.046875 0 L 1.046875 -11.46875 L 5.171875 -11.46875 L 5.171875 0 Z M 3.109375 -12.671875 C 2.546875 -12.671875 2.066406 -12.851562 1.671875 -13.21875 C 1.273438 -13.582031 1.078125 -14.023438 1.078125 -14.546875 C 1.078125 -15.066406 1.273438 -15.507812 1.671875 -15.875 C 2.066406 -16.25 2.546875 -16.4375 3.109375 -16.4375 C 3.671875 -16.4375 4.148438 -16.25 4.546875 -15.875 C 4.941406 -15.507812 5.140625 -15.066406 5.140625 -14.546875 C 5.140625 -14.023438 4.941406 -13.582031 4.546875 -13.21875 C 4.148438 -12.851562 3.671875 -12.671875 3.109375 -12.671875 Z M 3.109375 -12.671875 "/></g></g></g><g fill="#000000" fill-opacity="1"><g transform="translate(164.790648, 276.513462)"><g><path d="M 7.890625 -11.46875 L 7.890625 -8.484375 L 0.328125 -8.484375 L 0.328125 -11.46875 Z M 1.796875 -14.21875 L 5.921875 -14.21875 L 5.921875 -3.6875 C 5.921875 -3.53125 5.945312 -3.394531 6 -3.28125 C 6.050781 -3.175781 6.132812 -3.097656 6.25 -3.046875 C 6.363281 -2.992188 6.507812 -2.96875 6.6875 -2.96875 C 6.8125 -2.96875 6.957031 -2.984375 7.125 -3.015625 C 7.289062 -3.046875 7.414062 -3.070312 7.5 -3.09375 L 8.09375 -0.1875 C 7.90625 -0.132812 7.640625 -0.0703125 7.296875 0 C 6.960938 0.0820312 6.5625 0.140625 6.09375 0.171875 C 5.144531 0.210938 4.347656 0.113281 3.703125 -0.125 C 3.066406 -0.375 2.585938 -0.765625 2.265625 -1.296875 C 1.941406 -1.828125 1.785156 -2.492188 1.796875 -3.296875 Z M 1.796875 -14.21875 "/></g></g></g><g fill="#000000" fill-opacity="1"><g transform="translate(175.40704, 276.513462)"><g><path d="M 4.234375 0.171875 C 3.503906 0.171875 2.859375 0.0507812 2.296875 -0.1875 C 1.742188 -0.425781 1.304688 -0.789062 0.984375 -1.28125 C 0.671875 -1.78125 0.515625 -2.410156 0.515625 -3.171875 C 0.515625 -3.796875 0.617188 -4.328125 0.828125 -4.765625 C 1.046875 -5.210938 1.34375 -5.578125 1.71875 -5.859375 C 2.101562 -6.148438 2.550781 -6.367188 3.0625 -6.515625 C 3.570312 -6.671875 4.125 -6.769531 4.71875 -6.8125 C 5.363281 -6.863281 5.878906 -6.925781 6.265625 -7 C 6.660156 -7.070312 6.941406 -7.171875 7.109375 -7.296875 C 7.285156 -7.429688 7.375 -7.609375 7.375 -7.828125 L 7.375 -7.859375 C 7.375 -8.160156 7.257812 -8.390625 7.03125 -8.546875 C 6.800781 -8.703125 6.507812 -8.78125 6.15625 -8.78125 C 5.757812 -8.78125 5.4375 -8.691406 5.1875 -8.515625 C 4.945312 -8.347656 4.800781 -8.085938 4.75 -7.734375 L 0.953125 -7.734375 C 1.003906 -8.429688 1.226562 -9.070312 1.625 -9.65625 C 2.019531 -10.25 2.597656 -10.722656 3.359375 -11.078125 C 4.117188 -11.441406 5.070312 -11.625 6.21875 -11.625 C 7.039062 -11.625 7.773438 -11.523438 8.421875 -11.328125 C 9.078125 -11.140625 9.632812 -10.875 10.09375 -10.53125 C 10.550781 -10.1875 10.898438 -9.785156 11.140625 -9.328125 C 11.378906 -8.878906 11.5 -8.390625 11.5 -7.859375 L 11.5 0 L 7.640625 0 L 7.640625 -1.609375 L 7.5625 -1.609375 C 7.332031 -1.179688 7.050781 -0.832031 6.71875 -0.5625 C 6.394531 -0.300781 6.023438 -0.113281 5.609375 0 C 5.191406 0.113281 4.734375 0.171875 4.234375 0.171875 Z M 5.59375 -2.421875 C 5.90625 -2.421875 6.195312 -2.484375 6.46875 -2.609375 C 6.75 -2.742188 6.972656 -2.929688 7.140625 -3.171875 C 7.316406 -3.421875 7.40625 -3.71875 7.40625 -4.0625 L 7.40625 -5.015625 C 7.300781 -4.972656 7.1875 -4.929688 7.0625 -4.890625 C 6.9375 -4.847656 6.804688 -4.8125 6.671875 -4.78125 C 6.535156 -4.75 6.390625 -4.71875 6.234375 -4.6875 C 6.085938 -4.65625 5.929688 -4.625 5.765625 -4.59375 C 5.441406 -4.550781 5.179688 -4.472656 4.984375 -4.359375 C 4.785156 -4.242188 4.632812 -4.101562 4.53125 -3.9375 C 4.4375 -3.78125 4.390625 -3.601562 4.390625 -3.40625 C 4.390625 -3.082031 4.5 -2.835938 4.71875 -2.671875 C 4.945312 -2.503906 5.238281 -2.421875 5.59375 -2.421875 Z M 5.59375 -2.421875 "/></g></g></g><g fill="#000000" fill-opacity="1"><g transform="translate(189.936083, 276.513462)"><g><path d="M 5.171875 -15.296875 L 5.171875 0 L 1.046875 0 L 1.046875 -15.296875 Z M 5.171875 -15.296875 "/></g></g></g><g fill="#000000" fill-opacity="1"><g transform="translate(198.252676, 276.513462)"><g/></g></g><g fill="#000000" fill-opacity="1"><g transform="translate(204.538282, 276.513462)"><g><path d="M 6.875 0 L 0.984375 0 L 0.984375 -15.296875 L 6.8125 -15.296875 C 8.382812 -15.296875 9.742188 -14.988281 10.890625 -14.375 C 12.035156 -13.769531 12.921875 -12.894531 13.546875 -11.75 C 14.171875 -10.601562 14.484375 -9.234375 14.484375 -7.640625 C 14.484375 -6.046875 14.171875 -4.675781 13.546875 -3.53125 C 12.929688 -2.394531 12.050781 -1.519531 10.90625 -0.90625 C 9.769531 -0.300781 8.425781 0 6.875 0 Z M 5.140625 -3.53125 L 6.71875 -3.53125 C 7.476562 -3.53125 8.125 -3.648438 8.65625 -3.890625 C 9.195312 -4.128906 9.609375 -4.546875 9.890625 -5.140625 C 10.171875 -5.742188 10.3125 -6.578125 10.3125 -7.640625 C 10.3125 -8.710938 10.164062 -9.546875 9.875 -10.140625 C 9.59375 -10.734375 9.175781 -11.148438 8.625 -11.390625 C 8.070312 -11.640625 7.398438 -11.765625 6.609375 -11.765625 L 5.140625 -11.765625 Z M 5.140625 -3.53125 "/></g></g></g><g fill="#000000" fill-opacity="1"><g transform="translate(222.054088, 276.513462)"><g><path d="M 6.578125 0.203125 C 5.328125 0.203125 4.257812 -0.0390625 3.375 -0.53125 C 2.488281 -1.03125 1.804688 -1.722656 1.328125 -2.609375 C 0.859375 -3.492188 0.625 -4.523438 0.625 -5.703125 C 0.625 -6.878906 0.859375 -7.910156 1.328125 -8.796875 C 1.804688 -9.691406 2.488281 -10.382812 3.375 -10.875 C 4.257812 -11.375 5.328125 -11.625 6.578125 -11.625 C 7.816406 -11.625 8.878906 -11.375 9.765625 -10.875 C 10.648438 -10.382812 11.328125 -9.691406 11.796875 -8.796875 C 12.273438 -7.910156 12.515625 -6.878906 12.515625 -5.703125 C 12.515625 -4.523438 12.273438 -3.492188 11.796875 -2.609375 C 11.328125 -1.722656 10.648438 -1.03125 9.765625 -0.53125 C 8.878906 -0.0390625 7.816406 0.203125 6.578125 0.203125 Z M 6.609375 -2.84375 C 6.953125 -2.84375 7.25 -2.957031 7.5 -3.1875 C 7.757812 -3.425781 7.957031 -3.757812 8.09375 -4.1875 C 8.238281 -4.625 8.3125 -5.140625 8.3125 -5.734375 C 8.3125 -6.335938 8.238281 -6.851562 8.09375 -7.28125 C 7.957031 -7.71875 7.757812 -8.050781 7.5 -8.28125 C 7.25 -8.519531 6.953125 -8.640625 6.609375 -8.640625 C 6.234375 -8.640625 5.910156 -8.519531 5.640625 -8.28125 C 5.378906 -8.050781 5.179688 -7.71875 5.046875 -7.28125 C 4.910156 -6.851562 4.84375 -6.335938 4.84375 -5.734375 C 4.84375 -5.140625 4.910156 -4.625 5.046875 -4.1875 C 5.179688 -3.757812 5.378906 -3.425781 5.640625 -3.1875 C 5.910156 -2.957031 6.234375 -2.84375 6.609375 -2.84375 Z M 6.609375 -2.84375 "/></g></g></g><g fill="#000000" fill-opacity="1"><g transform="translate(237.299952, 276.513462)"><g><path d="M 6.578125 0.203125 C 5.328125 0.203125 4.257812 -0.0390625 3.375 -0.53125 C 2.488281 -1.03125 1.804688 -1.722656 1.328125 -2.609375 C 0.859375 -3.492188 0.625 -4.523438 0.625 -5.703125 C 0.625 -6.878906 0.859375 -7.910156 1.328125 -8.796875 C 1.804688 -9.691406 2.488281 -10.382812 3.375 -10.875 C 4.257812 -11.375 5.328125 -11.625 6.578125 -11.625 C 7.703125 -11.625 8.675781 -11.421875 9.5 -11.015625 C 10.320312 -10.609375 10.957031 -10.035156 11.40625 -9.296875 C 11.863281 -8.554688 12.09375 -7.6875 12.09375 -6.6875 L 8.28125 -6.6875 C 8.21875 -7.289062 8.039062 -7.75 7.75 -8.0625 C 7.457031 -8.382812 7.082031 -8.546875 6.625 -8.546875 C 6.269531 -8.546875 5.957031 -8.441406 5.6875 -8.234375 C 5.414062 -8.023438 5.207031 -7.710938 5.0625 -7.296875 C 4.914062 -6.878906 4.84375 -6.359375 4.84375 -5.734375 C 4.84375 -5.109375 4.914062 -4.585938 5.0625 -4.171875 C 5.207031 -3.753906 5.414062 -3.441406 5.6875 -3.234375 C 5.957031 -3.023438 6.269531 -2.921875 6.625 -2.921875 C 6.9375 -2.921875 7.207031 -2.992188 7.4375 -3.140625 C 7.675781 -3.285156 7.867188 -3.492188 8.015625 -3.765625 C 8.160156 -4.046875 8.25 -4.382812 8.28125 -4.78125 L 12.09375 -4.78125 C 12.082031 -3.769531 11.851562 -2.890625 11.40625 -2.140625 C 10.957031 -1.390625 10.320312 -0.8125 9.5 -0.40625 C 8.6875 0 7.710938 0.203125 6.578125 0.203125 Z M 6.578125 0.203125 "/></g></g></g><g fill="#000000" fill-opacity="1"><g transform="translate(252.157533, 276.513462)"><g><path d="M 8.484375 -5.015625 L 8.484375 -11.46875 L 12.609375 -11.46875 L 12.609375 0 L 8.6875 0 L 8.6875 -2.1875 L 8.578125 -2.1875 C 8.328125 -1.445312 7.890625 -0.867188 7.265625 -0.453125 C 6.640625 -0.046875 5.898438 0.15625 5.046875 0.15625 C 4.242188 0.15625 3.539062 -0.0234375 2.9375 -0.390625 C 2.34375 -0.765625 1.878906 -1.273438 1.546875 -1.921875 C 1.210938 -2.566406 1.046875 -3.3125 1.046875 -4.15625 L 1.046875 -11.46875 L 5.171875 -11.46875 L 5.171875 -5.015625 C 5.171875 -4.453125 5.3125 -4.007812 5.59375 -3.6875 C 5.882812 -3.363281 6.289062 -3.203125 6.8125 -3.203125 C 7.15625 -3.203125 7.453125 -3.273438 7.703125 -3.421875 C 7.953125 -3.566406 8.144531 -3.773438 8.28125 -4.046875 C 8.414062 -4.316406 8.484375 -4.640625 8.484375 -5.015625 Z M 8.484375 -5.015625 "/></g></g></g><g fill="#000000" fill-opacity="1"><g transform="translate(267.911158, 276.513462)"><g><path d="M 1.046875 0 L 1.046875 -11.46875 L 4.953125 -11.46875 L 4.953125 -9.296875 L 5.078125 -9.296875 C 5.316406 -10.003906 5.722656 -10.566406 6.296875 -10.984375 C 6.878906 -11.410156 7.566406 -11.625 8.359375 -11.625 C 9.171875 -11.625 9.867188 -11.410156 10.453125 -10.984375 C 11.035156 -10.554688 11.382812 -9.992188 11.5 -9.296875 L 11.625 -9.296875 C 11.8125 -9.992188 12.222656 -10.554688 12.859375 -10.984375 C 13.492188 -11.410156 14.238281 -11.625 15.09375 -11.625 C 16.1875 -11.625 17.078125 -11.269531 17.765625 -10.5625 C 18.453125 -9.851562 18.796875 -8.910156 18.796875 -7.734375 L 18.796875 0 L 14.671875 0 L 14.671875 -6.6875 C 14.671875 -7.195312 14.539062 -7.59375 14.28125 -7.875 C 14.03125 -8.164062 13.691406 -8.3125 13.265625 -8.3125 C 12.835938 -8.3125 12.5 -8.164062 12.25 -7.875 C 12.007812 -7.59375 11.890625 -7.195312 11.890625 -6.6875 L 11.890625 0 L 7.953125 0 L 7.953125 -6.6875 C 7.953125 -7.195312 7.820312 -7.59375 7.5625 -7.875 C 7.3125 -8.164062 6.972656 -8.3125 6.546875 -8.3125 C 6.253906 -8.3125 6.003906 -8.242188 5.796875 -8.109375 C 5.597656 -7.984375 5.441406 -7.796875 5.328125 -7.546875 C 5.222656 -7.304688 5.171875 -7.019531 5.171875 -6.6875 L 5.171875 0 Z M 1.046875 0 "/></g></g></g><g fill="#000000" fill-opacity="1"><g transform="translate(289.78763, 276.513462)"><g><path d="M 6.546875 0.203125 C 5.316406 0.203125 4.257812 -0.03125 3.375 -0.5 C 2.488281 -0.96875 1.804688 -1.644531 1.328125 -2.53125 C 0.859375 -3.414062 0.625 -4.472656 0.625 -5.703125 C 0.625 -6.890625 0.863281 -7.925781 1.34375 -8.8125 C 1.820312 -9.695312 2.492188 -10.382812 3.359375 -10.875 C 4.234375 -11.375 5.265625 -11.625 6.453125 -11.625 C 7.316406 -11.625 8.097656 -11.488281 8.796875 -11.21875 C 9.503906 -10.945312 10.109375 -10.554688 10.609375 -10.046875 C 11.109375 -9.535156 11.488281 -8.914062 11.75 -8.1875 C 12.019531 -7.46875 12.15625 -6.648438 12.15625 -5.734375 L 12.15625 -4.78125 L 1.90625 -4.78125 L 1.90625 -7.046875 L 8.359375 -7.046875 C 8.359375 -7.378906 8.273438 -7.671875 8.109375 -7.921875 C 7.953125 -8.171875 7.738281 -8.363281 7.46875 -8.5 C 7.195312 -8.644531 6.890625 -8.71875 6.546875 -8.71875 C 6.210938 -8.71875 5.90625 -8.644531 5.625 -8.5 C 5.34375 -8.363281 5.117188 -8.171875 4.953125 -7.921875 C 4.785156 -7.671875 4.695312 -7.378906 4.6875 -7.046875 L 4.6875 -4.59375 C 4.6875 -4.226562 4.765625 -3.898438 4.921875 -3.609375 C 5.078125 -3.328125 5.296875 -3.101562 5.578125 -2.9375 C 5.867188 -2.769531 6.21875 -2.6875 6.625 -2.6875 C 6.914062 -2.6875 7.175781 -2.722656 7.40625 -2.796875 C 7.644531 -2.878906 7.847656 -3 8.015625 -3.15625 C 8.191406 -3.3125 8.316406 -3.492188 8.390625 -3.703125 L 12.15625 -3.703125 C 12.03125 -2.910156 11.722656 -2.21875 11.234375 -1.625 C 10.753906 -1.039062 10.117188 -0.585938 9.328125 -0.265625 C 8.535156 0.046875 7.609375 0.203125 6.546875 0.203125 Z M 6.546875 0.203125 "/></g></g></g><g fill="#000000" fill-opacity="1"><g transform="translate(304.675084, 276.513462)"><g><path d="M 5.171875 -6.453125 L 5.171875 0 L 1.046875 0 L 1.046875 -11.46875 L 4.953125 -11.46875 L 4.953125 -9.296875 L 5.078125 -9.296875 C 5.328125 -10.015625 5.765625 -10.582031 6.390625 -11 C 7.023438 -11.414062 7.765625 -11.625 8.609375 -11.625 C 9.421875 -11.625 10.125 -11.4375 10.71875 -11.0625 C 11.320312 -10.695312 11.785156 -10.1875 12.109375 -9.53125 C 12.441406 -8.882812 12.609375 -8.144531 12.609375 -7.3125 L 12.609375 0 L 8.484375 0 L 8.484375 -6.453125 C 8.484375 -7.015625 8.335938 -7.457031 8.046875 -7.78125 C 7.765625 -8.113281 7.363281 -8.28125 6.84375 -8.28125 C 6.5 -8.28125 6.203125 -8.203125 5.953125 -8.046875 C 5.703125 -7.898438 5.507812 -7.691406 5.375 -7.421875 C 5.238281 -7.148438 5.171875 -6.828125 5.171875 -6.453125 Z M 5.171875 -6.453125 "/></g></g></g><g fill="#000000" fill-opacity="1"><g transform="translate(320.368963, 276.513462)"><g><path d="M 7.890625 -11.46875 L 7.890625 -8.484375 L 0.328125 -8.484375 L 0.328125 -11.46875 Z M 1.796875 -14.21875 L 5.921875 -14.21875 L 5.921875 -3.6875 C 5.921875 -3.53125 5.945312 -3.394531 6 -3.28125 C 6.050781 -3.175781 6.132812 -3.097656 6.25 -3.046875 C 6.363281 -2.992188 6.507812 -2.96875 6.6875 -2.96875 C 6.8125 -2.96875 6.957031 -2.984375 7.125 -3.015625 C 7.289062 -3.046875 7.414062 -3.070312 7.5 -3.09375 L 8.09375 -0.1875 C 7.90625 -0.132812 7.640625 -0.0703125 7.296875 0 C 6.960938 0.0820312 6.5625 0.140625 6.09375 0.171875 C 5.144531 0.210938 4.347656 0.113281 3.703125 -0.125 C 3.066406 -0.375 2.585938 -0.765625 2.265625 -1.296875 C 1.941406 -1.828125 1.785156 -2.492188 1.796875 -3.296875 Z M 1.796875 -14.21875 "/></g></g></g><g fill="#000000" fill-opacity="1"><g transform="translate(330.985348, 276.513462)"><g><path d="M 5.046875 -2.09375 L 4.984375 -1.25 C 4.941406 -0.53125 4.828125 0.15625 4.640625 0.8125 C 4.453125 1.46875 4.253906 2.046875 4.046875 2.546875 C 3.835938 3.054688 3.675781 3.453125 3.5625 3.734375 L 1.015625 3.734375 C 1.097656 3.453125 1.210938 3.046875 1.359375 2.515625 C 1.503906 1.992188 1.632812 1.40625 1.75 0.75 C 1.875 0.09375 1.9375 -0.570312 1.9375 -1.25 L 1.9375 -2.09375 Z M 5.046875 -2.09375 "/></g></g></g><g fill="#000000" fill-opacity="1"><g transform="translate(339.779813, 276.513462)"><g/></g></g><g fill="#000000" fill-opacity="1"><g transform="translate(346.065412, 276.513462)"><g><path d="M 4.953125 0 L 0.484375 0 L 5.53125 -15.296875 L 11.203125 -15.296875 L 16.25 0 L 11.765625 0 L 8.421875 -11.078125 L 8.3125 -11.078125 Z M 4.125 -6.03125 L 12.546875 -6.03125 L 12.546875 -2.921875 L 4.125 -2.921875 Z M 4.125 -6.03125 "/></g></g></g><g fill="#000000" fill-opacity="1"><g transform="translate(364.89539, 276.513462)"><g><path d="M 1.046875 0 L 1.046875 -11.46875 L 5.046875 -11.46875 L 5.046875 -9.296875 L 5.171875 -9.296875 C 5.378906 -10.097656 5.707031 -10.6875 6.15625 -11.0625 C 6.613281 -11.4375 7.148438 -11.625 7.765625 -11.625 C 7.941406 -11.625 8.117188 -11.609375 8.296875 -11.578125 C 8.472656 -11.546875 8.644531 -11.507812 8.8125 -11.46875 L 8.8125 -7.953125 C 8.601562 -8.015625 8.347656 -8.0625 8.046875 -8.09375 C 7.753906 -8.132812 7.503906 -8.15625 7.296875 -8.15625 C 6.890625 -8.15625 6.523438 -8.0625 6.203125 -7.875 C 5.878906 -7.695312 5.625 -7.441406 5.4375 -7.109375 C 5.257812 -6.785156 5.171875 -6.40625 5.171875 -5.96875 L 5.171875 0 Z M 1.046875 0 "/></g></g></g><g fill="#000000" fill-opacity="1"><g transform="translate(376.109147, 276.513462)"><g><path d="M 6.578125 0.203125 C 5.328125 0.203125 4.257812 -0.0390625 3.375 -0.53125 C 2.488281 -1.03125 1.804688 -1.722656 1.328125 -2.609375 C 0.859375 -3.492188 0.625 -4.523438 0.625 -5.703125 C 0.625 -6.878906 0.859375 -7.910156 1.328125 -8.796875 C 1.804688 -9.691406 2.488281 -10.382812 3.375 -10.875 C 4.257812 -11.375 5.328125 -11.625 6.578125 -11.625 C 7.703125 -11.625 8.675781 -11.421875 9.5 -11.015625 C 10.320312 -10.609375 10.957031 -10.035156 11.40625 -9.296875 C 11.863281 -8.554688 12.09375 -7.6875 12.09375 -6.6875 L 8.28125 -6.6875 C 8.21875 -7.289062 8.039062 -7.75 7.75 -8.0625 C 7.457031 -8.382812 7.082031 -8.546875 6.625 -8.546875 C 6.269531 -8.546875 5.957031 -8.441406 5.6875 -8.234375 C 5.414062 -8.023438 5.207031 -7.710938 5.0625 -7.296875 C 4.914062 -6.878906 4.84375 -6.359375 4.84375 -5.734375 C 4.84375 -5.109375 4.914062 -4.585938 5.0625 -4.171875 C 5.207031 -3.753906 5.414062 -3.441406 5.6875 -3.234375 C 5.957031 -3.023438 6.269531 -2.921875 6.625 -2.921875 C 6.9375 -2.921875 7.207031 -2.992188 7.4375 -3.140625 C 7.675781 -3.285156 7.867188 -3.492188 8.015625 -3.765625 C 8.160156 -4.046875 8.25 -4.382812 8.28125 -4.78125 L 12.09375 -4.78125 C 12.082031 -3.769531 11.851562 -2.890625 11.40625 -2.140625 C 10.957031 -1.390625 10.320312 -0.8125 9.5 -0.40625 C 8.6875 0 7.710938 0.203125 6.578125 0.203125 Z M 6.578125 0.203125 "/></g></g></g><g fill="#000000" fill-opacity="1"><g transform="translate(390.966742, 276.513462)"><g><path d="M 5.171875 -6.453125 L 5.171875 0 L 1.046875 0 L 1.046875 -15.296875 L 5.015625 -15.296875 L 5.015625 -9.296875 L 5.140625 -9.296875 C 5.398438 -10.023438 5.828125 -10.59375 6.421875 -11 C 7.023438 -11.414062 7.753906 -11.625 8.609375 -11.625 C 9.421875 -11.625 10.125 -11.4375 10.71875 -11.0625 C 11.320312 -10.695312 11.785156 -10.191406 12.109375 -9.546875 C 12.441406 -8.898438 12.609375 -8.15625 12.609375 -7.3125 L 12.609375 0 L 8.484375 0 L 8.484375 -6.453125 C 8.484375 -7.015625 8.335938 -7.457031 8.046875 -7.78125 C 7.765625 -8.113281 7.363281 -8.28125 6.84375 -8.28125 C 6.507812 -8.28125 6.21875 -8.203125 5.96875 -8.046875 C 5.71875 -7.898438 5.519531 -7.691406 5.375 -7.421875 C 5.238281 -7.148438 5.171875 -6.828125 5.171875 -6.453125 Z M 5.171875 -6.453125 "/></g></g></g><g fill="#000000" fill-opacity="1"><g transform="translate(406.660607, 276.513462)"><g><path d="M 1.046875 0 L 1.046875 -11.46875 L 5.171875 -11.46875 L 5.171875 0 Z M 3.109375 -12.671875 C 2.546875 -12.671875 2.066406 -12.851562 1.671875 -13.21875 C 1.273438 -13.582031 1.078125 -14.023438 1.078125 -14.546875 C 1.078125 -15.066406 1.273438 -15.507812 1.671875 -15.875 C 2.066406 -16.25 2.546875 -16.4375 3.109375 -16.4375 C 3.671875 -16.4375 4.148438 -16.25 4.546875 -15.875 C 4.941406 -15.507812 5.140625 -15.066406 5.140625 -14.546875 C 5.140625 -14.023438 4.941406 -13.582031 4.546875 -13.21875 C 4.148438 -12.851562 3.671875 -12.671875 3.109375 -12.671875 Z M 3.109375 -12.671875 "/></g></g></g><g fill="#000000" fill-opacity="1"><g transform="translate(414.977207, 276.513462)"><g><path d="M 12.609375 -11.46875 L 8.75 0 L 3.96875 0 L 0.125 -11.46875 L 4.453125 -11.46875 L 6.296875 -3.890625 L 6.421875 -3.890625 L 8.28125 -11.46875 Z M 12.609375 -11.46875 "/></g></g></g><g fill="#000000" fill-opacity="1"><g transform="translate(429.804929, 276.513462)"><g><path d="M 6.546875 0.203125 C 5.316406 0.203125 4.257812 -0.03125 3.375 -0.5 C 2.488281 -0.96875 1.804688 -1.644531 1.328125 -2.53125 C 0.859375 -3.414062 0.625 -4.472656 0.625 -5.703125 C 0.625 -6.890625 0.863281 -7.925781 1.34375 -8.8125 C 1.820312 -9.695312 2.492188 -10.382812 3.359375 -10.875 C 4.234375 -11.375 5.265625 -11.625 6.453125 -11.625 C 7.316406 -11.625 8.097656 -11.488281 8.796875 -11.21875 C 9.503906 -10.945312 10.109375 -10.554688 10.609375 -10.046875 C 11.109375 -9.535156 11.488281 -8.914062 11.75 -8.1875 C 12.019531 -7.46875 12.15625 -6.648438 12.15625 -5.734375 L 12.15625 -4.78125 L 1.90625 -4.78125 L 1.90625 -7.046875 L 8.359375 -7.046875 C 8.359375 -7.378906 8.273438 -7.671875 8.109375 -7.921875 C 7.953125 -8.171875 7.738281 -8.363281 7.46875 -8.5 C 7.195312 -8.644531 6.890625 -8.71875 6.546875 -8.71875 C 6.210938 -8.71875 5.90625 -8.644531 5.625 -8.5 C 5.34375 -8.363281 5.117188 -8.171875 4.953125 -7.921875 C 4.785156 -7.671875 4.695312 -7.378906 4.6875 -7.046875 L 4.6875 -4.59375 C 4.6875 -4.226562 4.765625 -3.898438 4.921875 -3.609375 C 5.078125 -3.328125 5.296875 -3.101562 5.578125 -2.9375 C 5.867188 -2.769531 6.21875 -2.6875 6.625 -2.6875 C 6.914062 -2.6875 7.175781 -2.722656 7.40625 -2.796875 C 7.644531 -2.878906 7.847656 -3 8.015625 -3.15625 C 8.191406 -3.3125 8.316406 -3.492188 8.390625 -3.703125 L 12.15625 -3.703125 C 12.03125 -2.910156 11.722656 -2.21875 11.234375 -1.625 C 10.753906 -1.039062 10.117188 -0.585938 9.328125 -0.265625 C 8.535156 0.046875 7.609375 0.203125 6.546875 0.203125 Z M 6.546875 0.203125 "/></g></g></g><g fill="#000000" fill-opacity="1"><g transform="translate(444.692397, 276.513462)"><g><path d="M 5.046875 -2.09375 L 4.984375 -1.25 C 4.941406 -0.53125 4.828125 0.15625 4.640625 0.8125 C 4.453125 1.46875 4.253906 2.046875 4.046875 2.546875 C 3.835938 3.054688 3.675781 3.453125 3.5625 3.734375 L 1.015625 3.734375 C 1.097656 3.453125 1.210938 3.046875 1.359375 2.515625 C 1.503906 1.992188 1.632812 1.40625 1.75 0.75 C 1.875 0.09375 1.9375 -0.570312 1.9375 -1.25 L 1.9375 -2.09375 Z M 5.046875 -2.09375 "/></g></g></g><g fill="#000000" fill-opacity="1"><g transform="translate(453.486878, 276.513462)"><g/></g></g><g fill="#000000" fill-opacity="1"><g transform="translate(459.772491, 276.513462)"><g><path d="M 0.984375 -15.296875 L 6.15625 -15.296875 L 9.703125 -6.625 L 9.890625 -6.625 L 13.4375 -15.296875 L 18.609375 -15.296875 L 18.609375 0 L 14.546875 0 L 14.546875 -8.84375 L 14.421875 -8.84375 L 11.03125 -0.125 L 8.578125 -0.125 L 5.171875 -8.90625 L 5.046875 -8.90625 L 5.046875 0 L 0.984375 0 Z M 0.984375 -15.296875 "/></g></g></g><g fill="#000000" fill-opacity="1"><g transform="translate(481.469754, 276.513462)"><g><path d="M 6.578125 0.203125 C 5.328125 0.203125 4.257812 -0.0390625 3.375 -0.53125 C 2.488281 -1.03125 1.804688 -1.722656 1.328125 -2.609375 C 0.859375 -3.492188 0.625 -4.523438 0.625 -5.703125 C 0.625 -6.878906 0.859375 -7.910156 1.328125 -8.796875 C 1.804688 -9.691406 2.488281 -10.382812 3.375 -10.875 C 4.257812 -11.375 5.328125 -11.625 6.578125 -11.625 C 7.816406 -11.625 8.878906 -11.375 9.765625 -10.875 C 10.648438 -10.382812 11.328125 -9.691406 11.796875 -8.796875 C 12.273438 -7.910156 12.515625 -6.878906 12.515625 -5.703125 C 12.515625 -4.523438 12.273438 -3.492188 11.796875 -2.609375 C 11.328125 -1.722656 10.648438 -1.03125 9.765625 -0.53125 C 8.878906 -0.0390625 7.816406 0.203125 6.578125 0.203125 Z M 6.609375 -2.84375 C 6.953125 -2.84375 7.25 -2.957031 7.5 -3.1875 C 7.757812 -3.425781 7.957031 -3.757812 8.09375 -4.1875 C 8.238281 -4.625 8.3125 -5.140625 8.3125 -5.734375 C 8.3125 -6.335938 8.238281 -6.851562 8.09375 -7.28125 C 7.957031 -7.71875 7.757812 -8.050781 7.5 -8.28125 C 7.25 -8.519531 6.953125 -8.640625 6.609375 -8.640625 C 6.234375 -8.640625 5.910156 -8.519531 5.640625 -8.28125 C 5.378906 -8.050781 5.179688 -7.71875 5.046875 -7.28125 C 4.910156 -6.851562 4.84375 -6.335938 4.84375 -5.734375 C 4.84375 -5.140625 4.910156 -4.625 5.046875 -4.1875 C 5.179688 -3.757812 5.378906 -3.425781 5.640625 -3.1875 C 5.910156 -2.957031 6.234375 -2.84375 6.609375 -2.84375 Z M 6.609375 -2.84375 "/></g></g></g><g fill="#000000" fill-opacity="1"><g transform="translate(496.715611, 276.513462)"><g><path d="M 5.171875 -6.453125 L 5.171875 0 L 1.046875 0 L 1.046875 -11.46875 L 4.953125 -11.46875 L 4.953125 -9.296875 L 5.078125 -9.296875 C 5.328125 -10.015625 5.765625 -10.582031 6.390625 -11 C 7.023438 -11.414062 7.765625 -11.625 8.609375 -11.625 C 9.421875 -11.625 10.125 -11.4375 10.71875 -11.0625 C 11.320312 -10.695312 11.785156 -10.1875 12.109375 -9.53125 C 12.441406 -8.882812 12.609375 -8.144531 12.609375 -7.3125 L 12.609375 0 L 8.484375 0 L 8.484375 -6.453125 C 8.484375 -7.015625 8.335938 -7.457031 8.046875 -7.78125 C 7.765625 -8.113281 7.363281 -8.28125 6.84375 -8.28125 C 6.5 -8.28125 6.203125 -8.203125 5.953125 -8.046875 C 5.703125 -7.898438 5.507812 -7.691406 5.375 -7.421875 C 5.238281 -7.148438 5.171875 -6.828125 5.171875 -6.453125 Z M 5.171875 -6.453125 "/></g></g></g><g fill="#000000" fill-opacity="1"><g transform="translate(512.409476, 276.513462)"><g><path d="M 1.046875 0 L 1.046875 -11.46875 L 5.171875 -11.46875 L 5.171875 0 Z M 3.109375 -12.671875 C 2.546875 -12.671875 2.066406 -12.851562 1.671875 -13.21875 C 1.273438 -13.582031 1.078125 -14.023438 1.078125 -14.546875 C 1.078125 -15.066406 1.273438 -15.507812 1.671875 -15.875 C 2.066406 -16.25 2.546875 -16.4375 3.109375 -16.4375 C 3.671875 -16.4375 4.148438 -16.25 4.546875 -15.875 C 4.941406 -15.507812 5.140625 -15.066406 5.140625 -14.546875 C 5.140625 -14.023438 4.941406 -13.582031 4.546875 -13.21875 C 4.148438 -12.851562 3.671875 -12.671875 3.109375 -12.671875 Z M 3.109375 -12.671875 "/></g></g></g><g fill="#000000" fill-opacity="1"><g transform="translate(520.726076, 276.513462)"><g><path d="M 7.890625 -11.46875 L 7.890625 -8.484375 L 0.328125 -8.484375 L 0.328125 -11.46875 Z M 1.796875 -14.21875 L 5.921875 -14.21875 L 5.921875 -3.6875 C 5.921875 -3.53125 5.945312 -3.394531 6 -3.28125 C 6.050781 -3.175781 6.132812 -3.097656 6.25 -3.046875 C 6.363281 -2.992188 6.507812 -2.96875 6.6875 -2.96875 C 6.8125 -2.96875 6.957031 -2.984375 7.125 -3.015625 C 7.289062 -3.046875 7.414062 -3.070312 7.5 -3.09375 L 8.09375 -0.1875 C 7.90625 -0.132812 7.640625 -0.0703125 7.296875 0 C 6.960938 0.0820312 6.5625 0.140625 6.09375 0.171875 C 5.144531 0.210938 4.347656 0.113281 3.703125 -0.125 C 3.066406 -0.375 2.585938 -0.765625 2.265625 -1.296875 C 1.941406 -1.828125 1.785156 -2.492188 1.796875 -3.296875 Z M 1.796875 -14.21875 "/></g></g></g><g fill="#000000" fill-opacity="1"><g transform="translate(531.34246, 276.513462)"><g><path d="M 6.578125 0.203125 C 5.328125 0.203125 4.257812 -0.0390625 3.375 -0.53125 C 2.488281 -1.03125 1.804688 -1.722656 1.328125 -2.609375 C 0.859375 -3.492188 0.625 -4.523438 0.625 -5.703125 C 0.625 -6.878906 0.859375 -7.910156 1.328125 -8.796875 C 1.804688 -9.691406 2.488281 -10.382812 3.375 -10.875 C 4.257812 -11.375 5.328125 -11.625 6.578125 -11.625 C 7.816406 -11.625 8.878906 -11.375 9.765625 -10.875 C 10.648438 -10.382812 11.328125 -9.691406 11.796875 -8.796875 C 12.273438 -7.910156 12.515625 -6.878906 12.515625 -5.703125 C 12.515625 -4.523438 12.273438 -3.492188 11.796875 -2.609375 C 11.328125 -1.722656 10.648438 -1.03125 9.765625 -0.53125 C 8.878906 -0.0390625 7.816406 0.203125 6.578125 0.203125 Z M 6.609375 -2.84375 C 6.953125 -2.84375 7.25 -2.957031 7.5 -3.1875 C 7.757812 -3.425781 7.957031 -3.757812 8.09375 -4.1875 C 8.238281 -4.625 8.3125 -5.140625 8.3125 -5.734375 C 8.3125 -6.335938 8.238281 -6.851562 8.09375 -7.28125 C 7.957031 -7.71875 7.757812 -8.050781 7.5 -8.28125 C 7.25 -8.519531 6.953125 -8.640625 6.609375 -8.640625 C 6.234375 -8.640625 5.910156 -8.519531 5.640625 -8.28125 C 5.378906 -8.050781 5.179688 -7.71875 5.046875 -7.28125 C 4.910156 -6.851562 4.84375 -6.335938 4.84375 -5.734375 C 4.84375 -5.140625 4.910156 -4.625 5.046875 -4.1875 C 5.179688 -3.757812 5.378906 -3.425781 5.640625 -3.1875 C 5.910156 -2.957031 6.234375 -2.84375 6.609375 -2.84375 Z M 6.609375 -2.84375 "/></g></g></g><g fill="#000000" fill-opacity="1"><g transform="translate(546.588317, 276.513462)"><g><path d="M 1.046875 0 L 1.046875 -11.46875 L 5.046875 -11.46875 L 5.046875 -9.296875 L 5.171875 -9.296875 C 5.378906 -10.097656 5.707031 -10.6875 6.15625 -11.0625 C 6.613281 -11.4375 7.148438 -11.625 7.765625 -11.625 C 7.941406 -11.625 8.117188 -11.609375 8.296875 -11.578125 C 8.472656 -11.546875 8.644531 -11.507812 8.8125 -11.46875 L 8.8125 -7.953125 C 8.601562 -8.015625 8.347656 -8.0625 8.046875 -8.09375 C 7.753906 -8.132812 7.503906 -8.15625 7.296875 -8.15625 C 6.890625 -8.15625 6.523438 -8.0625 6.203125 -7.875 C 5.878906 -7.695312 5.625 -7.441406 5.4375 -7.109375 C 5.257812 -6.785156 5.171875 -6.40625 5.171875 -5.96875 L 5.171875 0 Z M 1.046875 0 "/></g></g></g><g fill="#000000" fill-opacity="1"><g transform="translate(557.802075, 276.513462)"><g><path d="M 1.046875 0 L 1.046875 -11.46875 L 5.171875 -11.46875 L 5.171875 0 Z M 3.109375 -12.671875 C 2.546875 -12.671875 2.066406 -12.851562 1.671875 -13.21875 C 1.273438 -13.582031 1.078125 -14.023438 1.078125 -14.546875 C 1.078125 -15.066406 1.273438 -15.507812 1.671875 -15.875 C 2.066406 -16.25 2.546875 -16.4375 3.109375 -16.4375 C 3.671875 -16.4375 4.148438 -16.25 4.546875 -15.875 C 4.941406 -15.507812 5.140625 -15.066406 5.140625 -14.546875 C 5.140625 -14.023438 4.941406 -13.582031 4.546875 -13.21875 C 4.148438 -12.851562 3.671875 -12.671875 3.109375 -12.671875 Z M 3.109375 -12.671875 "/></g></g></g><g fill="#000000" fill-opacity="1"><g transform="translate(566.118675, 276.513462)"><g><path d="M 5.171875 -6.453125 L 5.171875 0 L 1.046875 0 L 1.046875 -11.46875 L 4.953125 -11.46875 L 4.953125 -9.296875 L 5.078125 -9.296875 C 5.328125 -10.015625 5.765625 -10.582031 6.390625 -11 C 7.023438 -11.414062 7.765625 -11.625 8.609375 -11.625 C 9.421875 -11.625 10.125 -11.4375 10.71875 -11.0625 C 11.320312 -10.695312 11.785156 -10.1875 12.109375 -9.53125 C 12.441406 -8.882812 12.609375 -8.144531 12.609375 -7.3125 L 12.609375 0 L 8.484375 0 L 8.484375 -6.453125 C 8.484375 -7.015625 8.335938 -7.457031 8.046875 -7.78125 C 7.765625 -8.113281 7.363281 -8.28125 6.84375 -8.28125 C 6.5 -8.28125 6.203125 -8.203125 5.953125 -8.046875 C 5.703125 -7.898438 5.507812 -7.691406 5.375 -7.421875 C 5.238281 -7.148438 5.171875 -6.828125 5.171875 -6.453125 Z M 5.171875 -6.453125 "/></g></g></g><g fill="#000000" fill-opacity="1"><g transform="translate(581.812539, 276.513462)"><g><path d="M 6.578125 4.546875 C 5.421875 4.546875 4.429688 4.378906 3.609375 4.046875 C 2.796875 3.722656 2.160156 3.273438 1.703125 2.703125 C 1.253906 2.140625 1.003906 1.488281 0.953125 0.75 L 4.921875 0.75 C 4.960938 0.988281 5.0625 1.179688 5.21875 1.328125 C 5.382812 1.484375 5.59375 1.59375 5.84375 1.65625 C 6.09375 1.726562 6.375 1.765625 6.6875 1.765625 C 7.21875 1.765625 7.660156 1.632812 8.015625 1.375 C 8.367188 1.113281 8.546875 0.644531 8.546875 -0.03125 L 8.546875 -1.96875 L 8.421875 -1.96875 C 8.273438 -1.582031 8.046875 -1.253906 7.734375 -0.984375 C 7.429688 -0.710938 7.0625 -0.503906 6.625 -0.359375 C 6.1875 -0.222656 5.710938 -0.15625 5.203125 -0.15625 C 4.378906 -0.15625 3.625 -0.34375 2.9375 -0.71875 C 2.257812 -1.09375 1.710938 -1.691406 1.296875 -2.515625 C 0.890625 -3.335938 0.6875 -4.410156 0.6875 -5.734375 C 0.6875 -7.117188 0.898438 -8.242188 1.328125 -9.109375 C 1.765625 -9.972656 2.320312 -10.609375 3 -11.015625 C 3.6875 -11.421875 4.410156 -11.625 5.171875 -11.625 C 5.734375 -11.625 6.226562 -11.523438 6.65625 -11.328125 C 7.082031 -11.128906 7.441406 -10.863281 7.734375 -10.53125 C 8.023438 -10.207031 8.242188 -9.851562 8.390625 -9.46875 L 8.484375 -9.46875 L 8.484375 -11.46875 L 12.609375 -11.46875 L 12.609375 -0.03125 C 12.609375 0.9375 12.359375 1.757812 11.859375 2.4375 C 11.359375 3.125 10.65625 3.644531 9.75 4 C 8.84375 4.363281 7.785156 4.546875 6.578125 4.546875 Z M 6.71875 -3.078125 C 7.101562 -3.078125 7.429688 -3.179688 7.703125 -3.390625 C 7.972656 -3.609375 8.179688 -3.914062 8.328125 -4.3125 C 8.472656 -4.707031 8.546875 -5.179688 8.546875 -5.734375 C 8.546875 -6.304688 8.472656 -6.789062 8.328125 -7.1875 C 8.179688 -7.59375 7.972656 -7.90625 7.703125 -8.125 C 7.429688 -8.34375 7.101562 -8.453125 6.71875 -8.453125 C 6.34375 -8.453125 6.019531 -8.34375 5.75 -8.125 C 5.488281 -7.90625 5.285156 -7.59375 5.140625 -7.1875 C 4.992188 -6.789062 4.921875 -6.304688 4.921875 -5.734375 C 4.921875 -5.171875 4.992188 -4.691406 5.140625 -4.296875 C 5.285156 -3.898438 5.488281 -3.597656 5.75 -3.390625 C 6.019531 -3.179688 6.34375 -3.078125 6.71875 -3.078125 Z M 6.71875 -3.078125 "/></g></g></g><g fill="#000000" fill-opacity="1"><g transform="translate(597.56615, 276.513462)"><g/></g></g><g fill="#000000" fill-opacity="1"><g transform="translate(603.851764, 276.513462)"><g><path d="M 4.234375 0.171875 C 3.503906 0.171875 2.859375 0.0507812 2.296875 -0.1875 C 1.742188 -0.425781 1.304688 -0.789062 0.984375 -1.28125 C 0.671875 -1.78125 0.515625 -2.410156 0.515625 -3.171875 C 0.515625 -3.796875 0.617188 -4.328125 0.828125 -4.765625 C 1.046875 -5.210938 1.34375 -5.578125 1.71875 -5.859375 C 2.101562 -6.148438 2.550781 -6.367188 3.0625 -6.515625 C 3.570312 -6.671875 4.125 -6.769531 4.71875 -6.8125 C 5.363281 -6.863281 5.878906 -6.925781 6.265625 -7 C 6.660156 -7.070312 6.941406 -7.171875 7.109375 -7.296875 C 7.285156 -7.429688 7.375 -7.609375 7.375 -7.828125 L 7.375 -7.859375 C 7.375 -8.160156 7.257812 -8.390625 7.03125 -8.546875 C 6.800781 -8.703125 6.507812 -8.78125 6.15625 -8.78125 C 5.757812 -8.78125 5.4375 -8.691406 5.1875 -8.515625 C 4.945312 -8.347656 4.800781 -8.085938 4.75 -7.734375 L 0.953125 -7.734375 C 1.003906 -8.429688 1.226562 -9.070312 1.625 -9.65625 C 2.019531 -10.25 2.597656 -10.722656 3.359375 -11.078125 C 4.117188 -11.441406 5.070312 -11.625 6.21875 -11.625 C 7.039062 -11.625 7.773438 -11.523438 8.421875 -11.328125 C 9.078125 -11.140625 9.632812 -10.875 10.09375 -10.53125 C 10.550781 -10.1875 10.898438 -9.785156 11.140625 -9.328125 C 11.378906 -8.878906 11.5 -8.390625 11.5 -7.859375 L 11.5 0 L 7.640625 0 L 7.640625 -1.609375 L 7.5625 -1.609375 C 7.332031 -1.179688 7.050781 -0.832031 6.71875 -0.5625 C 6.394531 -0.300781 6.023438 -0.113281 5.609375 0 C 5.191406 0.113281 4.734375 0.171875 4.234375 0.171875 Z M 5.59375 -2.421875 C 5.90625 -2.421875 6.195312 -2.484375 6.46875 -2.609375 C 6.75 -2.742188 6.972656 -2.929688 7.140625 -3.171875 C 7.316406 -3.421875 7.40625 -3.71875 7.40625 -4.0625 L 7.40625 -5.015625 C 7.300781 -4.972656 7.1875 -4.929688 7.0625 -4.890625 C 6.9375 -4.847656 6.804688 -4.8125 6.671875 -4.78125 C 6.535156 -4.75 6.390625 -4.71875 6.234375 -4.6875 C 6.085938 -4.65625 5.929688 -4.625 5.765625 -4.59375 C 5.441406 -4.550781 5.179688 -4.472656 4.984375 -4.359375 C 4.785156 -4.242188 4.632812 -4.101562 4.53125 -3.9375 C 4.4375 -3.78125 4.390625 -3.601562 4.390625 -3.40625 C 4.390625 -3.082031 4.5 -2.835938 4.71875 -2.671875 C 4.945312 -2.503906 5.238281 -2.421875 5.59375 -2.421875 Z M 5.59375 -2.421875 "/></g></g></g><g fill="#000000" fill-opacity="1"><g transform="translate(618.380814, 276.513462)"><g><path d="M 5.171875 -6.453125 L 5.171875 0 L 1.046875 0 L 1.046875 -11.46875 L 4.953125 -11.46875 L 4.953125 -9.296875 L 5.078125 -9.296875 C 5.328125 -10.015625 5.765625 -10.582031 6.390625 -11 C 7.023438 -11.414062 7.765625 -11.625 8.609375 -11.625 C 9.421875 -11.625 10.125 -11.4375 10.71875 -11.0625 C 11.320312 -10.695312 11.785156 -10.1875 12.109375 -9.53125 C 12.441406 -8.882812 12.609375 -8.144531 12.609375 -7.3125 L 12.609375 0 L 8.484375 0 L 8.484375 -6.453125 C 8.484375 -7.015625 8.335938 -7.457031 8.046875 -7.78125 C 7.765625 -8.113281 7.363281 -8.28125 6.84375 -8.28125 C 6.5 -8.28125 6.203125 -8.203125 5.953125 -8.046875 C 5.703125 -7.898438 5.507812 -7.691406 5.375 -7.421875 C 5.238281 -7.148438 5.171875 -6.828125 5.171875 -6.453125 Z M 5.171875 -6.453125 "/></g></g></g><g fill="#000000" fill-opacity="1"><g transform="translate(634.074679, 276.513462)"><g><path d="M 5.203125 0.15625 C 4.378906 0.15625 3.625 -0.0546875 2.9375 -0.484375 C 2.257812 -0.921875 1.710938 -1.570312 1.296875 -2.4375 C 0.890625 -3.3125 0.6875 -4.410156 0.6875 -5.734375 C 0.6875 -7.117188 0.898438 -8.242188 1.328125 -9.109375 C 1.765625 -9.972656 2.320312 -10.609375 3 -11.015625 C 3.6875 -11.421875 4.410156 -11.625 5.171875 -11.625 C 5.734375 -11.625 6.226562 -11.523438 6.65625 -11.328125 C 7.082031 -11.128906 7.441406 -10.863281 7.734375 -10.53125 C 8.023438 -10.207031 8.242188 -9.851562 8.390625 -9.46875 L 8.453125 -9.46875 L 8.453125 -15.296875 L 12.578125 -15.296875 L 12.578125 0 L 8.484375 0 L 8.484375 -1.875 L 8.390625 -1.875 C 8.234375 -1.488281 8.003906 -1.140625 7.703125 -0.828125 C 7.410156 -0.523438 7.050781 -0.285156 6.625 -0.109375 C 6.207031 0.0664062 5.734375 0.15625 5.203125 0.15625 Z M 6.71875 -3.015625 C 7.101562 -3.015625 7.429688 -3.125 7.703125 -3.34375 C 7.972656 -3.570312 8.179688 -3.890625 8.328125 -4.296875 C 8.472656 -4.703125 8.546875 -5.179688 8.546875 -5.734375 C 8.546875 -6.304688 8.472656 -6.789062 8.328125 -7.1875 C 8.179688 -7.59375 7.972656 -7.90625 7.703125 -8.125 C 7.429688 -8.34375 7.101562 -8.453125 6.71875 -8.453125 C 6.34375 -8.453125 6.019531 -8.34375 5.75 -8.125 C 5.488281 -7.90625 5.285156 -7.59375 5.140625 -7.1875 C 4.992188 -6.789062 4.921875 -6.304688 4.921875 -5.734375 C 4.921875 -5.171875 4.992188 -4.6875 5.140625 -4.28125 C 5.285156 -3.875 5.488281 -3.5625 5.75 -3.34375 C 6.019531 -3.125 6.34375 -3.015625 6.71875 -3.015625 Z M 6.71875 -3.015625 "/></g></g></g><g fill="#000000" fill-opacity="1"><g transform="translate(649.73867, 276.513462)"><g/></g></g><g fill="#000000" fill-opacity="1"><g transform="translate(656.024284, 276.513462)"><g><path d="M 9.234375 -10.515625 C 9.191406 -11.015625 9.003906 -11.398438 8.671875 -11.671875 C 8.335938 -11.953125 7.835938 -12.09375 7.171875 -12.09375 C 6.742188 -12.09375 6.394531 -12.039062 6.125 -11.9375 C 5.851562 -11.84375 5.648438 -11.707031 5.515625 -11.53125 C 5.390625 -11.351562 5.320312 -11.15625 5.3125 -10.9375 C 5.300781 -10.75 5.332031 -10.582031 5.40625 -10.4375 C 5.488281 -10.289062 5.613281 -10.15625 5.78125 -10.03125 C 5.957031 -9.914062 6.175781 -9.8125 6.4375 -9.71875 C 6.695312 -9.625 7.007812 -9.539062 7.375 -9.46875 L 8.640625 -9.203125 C 9.484375 -9.023438 10.203125 -8.785156 10.796875 -8.484375 C 11.398438 -8.191406 11.894531 -7.847656 12.28125 -7.453125 C 12.664062 -7.054688 12.945312 -6.613281 13.125 -6.125 C 13.3125 -5.632812 13.40625 -5.097656 13.40625 -4.515625 C 13.40625 -3.503906 13.15625 -2.648438 12.65625 -1.953125 C 12.15625 -1.253906 11.441406 -0.722656 10.515625 -0.359375 C 9.597656 -0.00390625 8.492188 0.171875 7.203125 0.171875 C 5.867188 0.171875 4.707031 -0.0195312 3.71875 -0.40625 C 2.726562 -0.800781 1.960938 -1.40625 1.421875 -2.21875 C 0.878906 -3.039062 0.601562 -4.09375 0.59375 -5.375 L 4.546875 -5.375 C 4.566406 -4.90625 4.679688 -4.507812 4.890625 -4.1875 C 5.097656 -3.875 5.390625 -3.632812 5.765625 -3.46875 C 6.148438 -3.300781 6.609375 -3.21875 7.140625 -3.21875 C 7.578125 -3.21875 7.945312 -3.273438 8.25 -3.390625 C 8.550781 -3.503906 8.773438 -3.65625 8.921875 -3.84375 C 9.078125 -4.039062 9.160156 -4.265625 9.171875 -4.515625 C 9.160156 -4.742188 9.082031 -4.945312 8.9375 -5.125 C 8.789062 -5.300781 8.550781 -5.457031 8.21875 -5.59375 C 7.882812 -5.738281 7.4375 -5.875 6.875 -6 L 5.34375 -6.328125 C 3.988281 -6.628906 2.921875 -7.125 2.140625 -7.8125 C 1.367188 -8.5 0.984375 -9.441406 0.984375 -10.640625 C 0.984375 -11.609375 1.242188 -12.457031 1.765625 -13.1875 C 2.285156 -13.914062 3.015625 -14.484375 3.953125 -14.890625 C 4.890625 -15.296875 5.960938 -15.5 7.171875 -15.5 C 8.398438 -15.5 9.460938 -15.289062 10.359375 -14.875 C 11.265625 -14.46875 11.960938 -13.890625 12.453125 -13.140625 C 12.953125 -12.390625 13.203125 -11.515625 13.203125 -10.515625 Z M 9.234375 -10.515625 "/></g></g></g><g fill="#000000" fill-opacity="1"><g transform="translate(672.136312, 276.513462)"><g><path d="M 1.046875 0 L 1.046875 -11.46875 L 5.171875 -11.46875 L 5.171875 0 Z M 3.109375 -12.671875 C 2.546875 -12.671875 2.066406 -12.851562 1.671875 -13.21875 C 1.273438 -13.582031 1.078125 -14.023438 1.078125 -14.546875 C 1.078125 -15.066406 1.273438 -15.507812 1.671875 -15.875 C 2.066406 -16.25 2.546875 -16.4375 3.109375 -16.4375 C 3.671875 -16.4375 4.148438 -16.25 4.546875 -15.875 C 4.941406 -15.507812 5.140625 -15.066406 5.140625 -14.546875 C 5.140625 -14.023438 4.941406 -13.582031 4.546875 -13.21875 C 4.148438 -12.851562 3.671875 -12.671875 3.109375 -12.671875 Z M 3.109375 -12.671875 "/></g></g></g><g fill="#000000" fill-opacity="1"><g transform="translate(680.452883, 276.513462)"><g><path d="M 6.578125 4.546875 C 5.421875 4.546875 4.429688 4.378906 3.609375 4.046875 C 2.796875 3.722656 2.160156 3.273438 1.703125 2.703125 C 1.253906 2.140625 1.003906 1.488281 0.953125 0.75 L 4.921875 0.75 C 4.960938 0.988281 5.0625 1.179688 5.21875 1.328125 C 5.382812 1.484375 5.59375 1.59375 5.84375 1.65625 C 6.09375 1.726562 6.375 1.765625 6.6875 1.765625 C 7.21875 1.765625 7.660156 1.632812 8.015625 1.375 C 8.367188 1.113281 8.546875 0.644531 8.546875 -0.03125 L 8.546875 -1.96875 L 8.421875 -1.96875 C 8.273438 -1.582031 8.046875 -1.253906 7.734375 -0.984375 C 7.429688 -0.710938 7.0625 -0.503906 6.625 -0.359375 C 6.1875 -0.222656 5.710938 -0.15625 5.203125 -0.15625 C 4.378906 -0.15625 3.625 -0.34375 2.9375 -0.71875 C 2.257812 -1.09375 1.710938 -1.691406 1.296875 -2.515625 C 0.890625 -3.335938 0.6875 -4.410156 0.6875 -5.734375 C 0.6875 -7.117188 0.898438 -8.242188 1.328125 -9.109375 C 1.765625 -9.972656 2.320312 -10.609375 3 -11.015625 C 3.6875 -11.421875 4.410156 -11.625 5.171875 -11.625 C 5.734375 -11.625 6.226562 -11.523438 6.65625 -11.328125 C 7.082031 -11.128906 7.441406 -10.863281 7.734375 -10.53125 C 8.023438 -10.207031 8.242188 -9.851562 8.390625 -9.46875 L 8.484375 -9.46875 L 8.484375 -11.46875 L 12.609375 -11.46875 L 12.609375 -0.03125 C 12.609375 0.9375 12.359375 1.757812 11.859375 2.4375 C 11.359375 3.125 10.65625 3.644531 9.75 4 C 8.84375 4.363281 7.785156 4.546875 6.578125 4.546875 Z M 6.71875 -3.078125 C 7.101562 -3.078125 7.429688 -3.179688 7.703125 -3.390625 C 7.972656 -3.609375 8.179688 -3.914062 8.328125 -4.3125 C 8.472656 -4.707031 8.546875 -5.179688 8.546875 -5.734375 C 8.546875 -6.304688 8.472656 -6.789062 8.328125 -7.1875 C 8.179688 -7.59375 7.972656 -7.90625 7.703125 -8.125 C 7.429688 -8.34375 7.101562 -8.453125 6.71875 -8.453125 C 6.34375 -8.453125 6.019531 -8.34375 5.75 -8.125 C 5.488281 -7.90625 5.285156 -7.59375 5.140625 -7.1875 C 4.992188 -6.789062 4.921875 -6.304688 4.921875 -5.734375 C 4.921875 -5.171875 4.992188 -4.691406 5.140625 -4.296875 C 5.285156 -3.898438 5.488281 -3.597656 5.75 -3.390625 C 6.019531 -3.179688 6.34375 -3.078125 6.71875 -3.078125 Z M 6.71875 -3.078125 "/></g></g></g><g fill="#000000" fill-opacity="1"><g transform="translate(696.206494, 276.513462)"><g><path d="M 5.171875 -6.453125 L 5.171875 0 L 1.046875 0 L 1.046875 -11.46875 L 4.953125 -11.46875 L 4.953125 -9.296875 L 5.078125 -9.296875 C 5.328125 -10.015625 5.765625 -10.582031 6.390625 -11 C 7.023438 -11.414062 7.765625 -11.625 8.609375 -11.625 C 9.421875 -11.625 10.125 -11.4375 10.71875 -11.0625 C 11.320312 -10.695312 11.785156 -10.1875 12.109375 -9.53125 C 12.441406 -8.882812 12.609375 -8.144531 12.609375 -7.3125 L 12.609375 0 L 8.484375 0 L 8.484375 -6.453125 C 8.484375 -7.015625 8.335938 -7.457031 8.046875 -7.78125 C 7.765625 -8.113281 7.363281 -8.28125 6.84375 -8.28125 C 6.5 -8.28125 6.203125 -8.203125 5.953125 -8.046875 C 5.703125 -7.898438 5.507812 -7.691406 5.375 -7.421875 C 5.238281 -7.148438 5.171875 -6.828125 5.171875 -6.453125 Z M 5.171875 -6.453125 "/></g></g></g><g clip-path="url(#0261ba3d72)"><path fill="#000000" d="M 35.683594 183.445312 C 40.640625 182.03125 45.570312 185.773438 45.570312 190.929688 L 45.570312 270.292969 C 45.570312 274.722656 41.449219 278.039062 37.132812 277.019531 C 15.859375 272.007812 -0.0234375 252.867188 -0.0234375 230.082031 C -0.0234375 208.023438 14.855469 189.382812 35.683594 183.445312 Z M 54.269531 179.238281 L 54.269531 270.292969 C 54.269531 274.722656 58.394531 278.039062 62.710938 277.019531 C 83.984375 272.011719 99.867188 252.867188 99.867188 230.082031 L 99.867188 137.332031 C 99.867188 133.851562 96.691406 131.234375 93.273438 131.898438 C 71.078125 136.210938 54.269531 155.796875 54.269531 179.238281 Z M 54.269531 179.238281 " fill-opacity="1" fill-rule="nonzero"/></g></svg>