<svg xmlns="http://www.w3.org/2000/svg" xmlns:xlink="http://www.w3.org/1999/xlink" width="1000" zoomAndPan="magnify" viewBox="0 0 750 374.999991" height="500" preserveAspectRatio="xMidYMid meet" version="1.0"><defs><clipPath id="b25daf34a8"><path d="M 247.5 1 L 502.5 1 L 502.5 373 L 247.5 373 Z M 247.5 1 " clip-rule="nonzero"/></clipPath></defs><g clip-path="url(#b25daf34a8)"><path fill="#000000" d="M 338.652344 133.34375 C 351.316406 129.734375 363.910156 139.289062 363.910156 152.464844 L 363.910156 355.195312 C 363.910156 366.515625 353.375 374.984375 342.351562 372.378906 C 288.003906 359.578125 247.433594 310.675781 247.433594 252.472656 C 247.433594 196.125 285.441406 148.507812 338.652344 133.34375 Z M 386.128906 122.589844 L 386.128906 355.195312 C 386.128906 366.515625 396.667969 374.984375 407.6875 372.378906 C 462.035156 359.585938 502.609375 310.675781 502.609375 252.472656 L 502.609375 15.546875 C 502.609375 6.65625 494.496094 -0.03125 485.769531 1.664062 C 429.066406 12.679688 386.128906 62.71875 386.128906 122.589844 Z M 386.128906 122.589844 " fill-opacity="1" fill-rule="nonzero"/></g></svg>