<svg xmlns="http://www.w3.org/2000/svg" xmlns:xlink="http://www.w3.org/1999/xlink" width="1000" zoomAndPan="magnify" viewBox="0 0 750 374.999991" height="500" preserveAspectRatio="xMidYMid meet" version="1.0"><defs><clipPath id="7f626a82d7"><path d="M 198 11.246094 L 552 11.246094 L 552 363.746094 L 198 363.746094 Z M 198 11.246094 " clip-rule="nonzero"/></clipPath></defs><path fill="#ffffff" d="M 195.546875 345.722656 C 158.335938 303.546875 135.75 248.15625 135.75 187.511719 C 135.75 126.855469 158.339844 71.460938 195.558594 29.285156 C 180.304688 35.453125 165.53125 42.378906 151.304688 50.015625 C 88.523438 83.703125 36.292969 131.128906 0 187.503906 C 36.292969 243.882812 88.523438 291.3125 151.304688 325 C 165.53125 332.628906 180.300781 339.558594 195.546875 345.722656 Z M 195.546875 345.722656 " fill-opacity="1" fill-rule="nonzero"/><path fill="#ffffff" d="M 554.449219 29.285156 C 591.664062 71.460938 614.257812 126.855469 614.257812 187.511719 C 614.257812 248.15625 591.671875 303.546875 554.457031 345.722656 C 569.710938 339.558594 584.480469 332.628906 598.703125 325 C 661.480469 291.3125 713.71875 243.882812 750.011719 187.503906 C 713.71875 131.128906 661.480469 83.703125 598.703125 50.015625 C 584.472656 42.378906 569.703125 35.453125 554.449219 29.285156 Z M 554.449219 29.285156 " fill-opacity="1" fill-rule="nonzero"/><g clip-path="url(#7f626a82d7)"><path fill="#ffffff" d="M 438.457031 142.363281 C 450.128906 142.363281 459.597656 151.835938 459.597656 163.511719 C 459.597656 175.191406 450.128906 184.660156 438.457031 184.660156 C 426.777344 184.660156 417.300781 175.191406 417.300781 163.511719 C 417.300781 151.835938 426.777344 142.363281 438.457031 142.363281 Z M 375.003906 11.414062 C 409.75 11.414062 442.15625 21.488281 469.449219 38.871094 C 453.820312 44.945312 442.742188 60.132812 442.742188 77.90625 C 442.742188 101.027344 461.484375 119.773438 484.605469 119.773438 C 502.382812 119.773438 517.570312 108.695312 523.648438 93.066406 C 541.023438 120.363281 551.101562 152.757812 551.101562 187.511719 C 551.101562 284.75 472.238281 363.605469 375.003906 363.605469 C 277.765625 363.605469 198.90625 284.75 198.90625 187.511719 C 198.910156 90.269531 277.765625 11.414062 375.003906 11.414062 Z M 375.003906 11.414062 " fill-opacity="1" fill-rule="evenodd"/></g></svg>