<svg xmlns="http://www.w3.org/2000/svg" xmlns:xlink="http://www.w3.org/1999/xlink" width="1000" zoomAndPan="magnify" viewBox="0 0 750 374.999991" height="500" preserveAspectRatio="xMidYMid meet" version="1.0"><defs><g/><clipPath id="58c03d7e34"><path d="M 76 120.058594 L 211 120.058594 L 211 255 L 76 255 Z M 76 120.058594 " clip-rule="nonzero"/></clipPath></defs><g fill="#ffffff" fill-opacity="1"><g transform="translate(304.336863, 180.166313)"><g><path d="M 3.640625 0 L 4.875 -41.671875 L 14.4375 -41.671875 L 28.40625 -14.5 L 42.140625 -41.671875 L 51.703125 -41.671875 L 52.578125 0 L 41.25 0 L 40.90625 -17.4375 L 31.984375 0 L 23.765625 0 L 14.90625 -17.140625 L 14.375 0 Z M 3.640625 0 "/></g></g></g><g fill="#ffffff" fill-opacity="1"><g transform="translate(363.964125, 180.166313)"><g><path d="M -2.28125 0 L 16.078125 -41.671875 L 25.828125 -41.671875 L 43.546875 0 L 31.6875 0 L 28.75 -7.453125 L 12.625 -7.453125 L 9.5625 0 Z M 16.609375 -17.140625 L 24.890625 -17.140625 L 20.828125 -27.34375 Z M 16.609375 -17.140625 "/></g></g></g><g fill="#ffffff" fill-opacity="1"><g transform="translate(408.802154, 180.166313)"><g><path d="M 37.734375 -41.671875 L 36.03125 -31.453125 L 23.828125 -31.453125 L 23.828125 0 L 12.09375 0 L 12.09375 -31.453125 L -0.9375 -31.453125 L -0.9375 -41.671875 Z M 37.734375 -41.671875 "/></g></g></g><g fill="#ffffff" fill-opacity="1"><g transform="translate(448.006188, 180.166313)"><g><path d="M -2.28125 0 L 16.078125 -41.671875 L 25.828125 -41.671875 L 43.546875 0 L 31.6875 0 L 28.75 -7.453125 L 12.625 -7.453125 L 9.5625 0 Z M 16.609375 -17.140625 L 24.890625 -17.140625 L 20.828125 -27.34375 Z M 16.609375 -17.140625 "/></g></g></g><g fill="#ffffff" fill-opacity="1"><g transform="translate(492.844217, 180.166313)"><g/></g></g><g fill="#ffffff" fill-opacity="1"><g transform="translate(511.566326, 180.166313)"><g><path d="M 3.515625 0 L 3.515625 -41.671875 L 15.265625 -41.671875 L 15.265625 -24.359375 L 30.109375 -41.671875 L 44.078125 -41.671875 L 25.875 -20.78125 C 26.820312 -20.269531 27.664062 -19.625 28.40625 -18.84375 C 29.144531 -18.0625 29.789062 -17.195312 30.34375 -16.25 L 32.625 -12.328125 C 33.644531 -10.484375 35.191406 -9.5625 37.265625 -9.5625 C 38.953125 -9.5625 40.457031 -9.972656 41.78125 -10.796875 L 44.484375 -1.765625 C 43.546875 -1.015625 42.289062 -0.414062 40.71875 0.03125 C 39.15625 0.476562 37.570312 0.703125 35.96875 0.703125 C 30.0625 0.703125 25.835938 -1.46875 23.296875 -5.8125 L 19.484375 -12.328125 C 18.859375 -13.378906 18.25 -14.171875 17.65625 -14.703125 C 17.070312 -15.234375 16.273438 -15.59375 15.265625 -15.78125 L 15.265625 0 Z M 3.515625 0 "/></g></g></g><g fill="#ffffff" fill-opacity="1"><g transform="translate(557.108589, 180.166313)"><g><path d="M 30.453125 -41.671875 L 41.96875 -41.671875 L 42.078125 -18.84375 C 42.117188 -15.007812 41.335938 -11.625 39.734375 -8.6875 C 38.128906 -5.75 35.878906 -3.457031 32.984375 -1.8125 C 30.085938 -0.175781 26.722656 0.640625 22.890625 0.640625 C 16.628906 0.640625 11.804688 -0.921875 8.421875 -4.046875 C 5.035156 -7.179688 3.34375 -11.816406 3.34375 -17.953125 L 3.34375 -41.671875 L 15.078125 -41.671875 L 15.078125 -18.546875 C 15.078125 -15.378906 15.8125 -13.109375 17.28125 -11.734375 C 18.75 -10.367188 20.640625 -9.6875 22.953125 -9.6875 C 25.367188 -9.6875 27.253906 -10.425781 28.609375 -11.90625 C 29.960938 -13.394531 30.617188 -15.84375 30.578125 -19.25 Z M 30.453125 -41.671875 "/></g></g></g><g fill="#ffffff" fill-opacity="1"><g transform="translate(605.878682, 180.166313)"><g><path d="M 15.03125 0 L 3.515625 0 L 3.515625 -41.671875 L 19.3125 -41.671875 C 25.757812 -41.671875 30.519531 -40.503906 33.59375 -38.171875 C 36.664062 -35.847656 38.203125 -32.457031 38.203125 -28 C 38.203125 -25.019531 37.398438 -22.453125 35.796875 -20.296875 C 34.191406 -18.148438 31.921875 -16.5 28.984375 -15.34375 C 26.054688 -14.1875 22.554688 -13.609375 18.484375 -13.609375 L 15.03125 -13.609375 Z M 19.65625 -32.21875 L 15.03125 -32.21875 L 15.03125 -23.125 L 19.078125 -23.125 C 21.503906 -23.125 23.351562 -23.492188 24.625 -24.234375 C 25.894531 -24.984375 26.53125 -26.195312 26.53125 -27.875 C 26.53125 -29.363281 25.976562 -30.457031 24.875 -31.15625 C 23.78125 -31.863281 22.039062 -32.21875 19.65625 -32.21875 Z M 19.65625 -32.21875 "/></g></g></g><g fill="#ffffff" fill-opacity="1"><g transform="translate(647.78232, 180.166313)"><g><path d="M 30.640625 -41.671875 L 42.375 -41.671875 L 27.875 0 L 11.265625 0 L -0.875 -41.671875 L 11.5625 -41.671875 L 20.1875 -10.5625 Z M 30.640625 -41.671875 "/></g></g></g><g fill="#ffffff" fill-opacity="1"><g transform="translate(691.270552, 180.166313)"><g><path d="M -2.28125 0 L 16.078125 -41.671875 L 25.828125 -41.671875 L 43.546875 0 L 31.6875 0 L 28.75 -7.453125 L 12.625 -7.453125 L 9.5625 0 Z M 16.609375 -17.140625 L 24.890625 -17.140625 L 20.828125 -27.34375 Z M 16.609375 -17.140625 "/></g></g></g><path fill="#ffffff" d="M 74.820312 248.035156 C 60.582031 231.898438 51.941406 210.703125 51.941406 187.5 C 51.941406 164.292969 60.585938 143.097656 74.824219 126.960938 C 68.988281 129.320312 63.335938 131.96875 57.894531 134.890625 C 33.871094 147.78125 13.886719 165.925781 0 187.496094 C 13.886719 209.070312 33.871094 227.21875 57.894531 240.105469 C 63.335938 243.027344 68.988281 245.675781 74.820312 248.035156 Z M 74.820312 248.035156 " fill-opacity="1" fill-rule="nonzero"/><path fill="#ffffff" d="M 212.144531 126.960938 C 226.386719 143.097656 235.03125 164.292969 235.03125 187.5 C 235.03125 210.703125 226.386719 231.898438 212.148438 248.035156 C 217.984375 245.675781 223.636719 243.027344 229.078125 240.105469 C 253.097656 227.21875 273.085938 209.070312 286.972656 187.496094 C 273.085938 165.925781 253.097656 147.78125 229.078125 134.890625 C 223.632812 131.96875 217.984375 129.320312 212.144531 126.960938 Z M 212.144531 126.960938 " fill-opacity="1" fill-rule="nonzero"/><g clip-path="url(#58c03d7e34)"><path fill="#ffffff" d="M 167.765625 170.226562 C 172.230469 170.226562 175.855469 173.851562 175.855469 178.316406 C 175.855469 182.785156 172.230469 186.410156 167.765625 186.410156 C 163.296875 186.410156 159.667969 182.785156 159.667969 178.316406 C 159.667969 173.851562 163.296875 170.226562 167.765625 170.226562 Z M 143.484375 120.121094 C 156.78125 120.121094 169.179688 123.976562 179.625 130.625 C 173.644531 132.953125 169.402344 138.761719 169.402344 145.5625 C 169.402344 154.410156 176.574219 161.582031 185.421875 161.582031 C 192.222656 161.582031 198.035156 157.34375 200.359375 151.363281 C 207.007812 161.808594 210.863281 174.203125 210.863281 187.5 C 210.863281 224.707031 180.691406 254.878906 143.484375 254.878906 C 106.28125 254.878906 76.105469 224.707031 76.105469 187.5 C 76.109375 150.292969 106.28125 120.121094 143.484375 120.121094 Z M 143.484375 120.121094 " fill-opacity="1" fill-rule="evenodd"/></g><g fill="#ffffff" fill-opacity="1"><g transform="translate(304.336863, 209.992004)"><g><path d="M 0.84375 -13.109375 L 5.28125 -13.109375 L 8.328125 -5.6875 L 8.484375 -5.6875 L 11.53125 -13.109375 L 15.953125 -13.109375 L 15.953125 0 L 12.46875 0 L 12.46875 -7.578125 L 12.375 -7.578125 L 9.453125 -0.109375 L 7.34375 -0.109375 L 4.4375 -7.625 L 4.328125 -7.625 L 4.328125 0 L 0.84375 0 Z M 0.84375 -13.109375 "/></g></g></g><g fill="#ffffff" fill-opacity="1"><g transform="translate(322.946616, 209.992004)"><g><path d="M 5.640625 0.171875 C 4.566406 0.171875 3.648438 -0.0351562 2.890625 -0.453125 C 2.128906 -0.878906 1.546875 -1.472656 1.140625 -2.234375 C 0.734375 -2.992188 0.53125 -3.878906 0.53125 -4.890625 C 0.53125 -5.898438 0.734375 -6.785156 1.140625 -7.546875 C 1.546875 -8.304688 2.128906 -8.898438 2.890625 -9.328125 C 3.648438 -9.753906 4.566406 -9.96875 5.640625 -9.96875 C 6.703125 -9.96875 7.613281 -9.753906 8.375 -9.328125 C 9.132812 -8.898438 9.71875 -8.304688 10.125 -7.546875 C 10.53125 -6.785156 10.734375 -5.898438 10.734375 -4.890625 C 10.734375 -3.878906 10.53125 -2.992188 10.125 -2.234375 C 9.71875 -1.472656 9.132812 -0.878906 8.375 -0.453125 C 7.613281 -0.0351562 6.703125 0.171875 5.640625 0.171875 Z M 5.65625 -2.4375 C 5.957031 -2.4375 6.21875 -2.535156 6.4375 -2.734375 C 6.65625 -2.929688 6.820312 -3.21875 6.9375 -3.59375 C 7.0625 -3.96875 7.125 -4.410156 7.125 -4.921875 C 7.125 -5.429688 7.0625 -5.867188 6.9375 -6.234375 C 6.820312 -6.609375 6.65625 -6.894531 6.4375 -7.09375 C 6.21875 -7.300781 5.957031 -7.40625 5.65625 -7.40625 C 5.34375 -7.40625 5.070312 -7.300781 4.84375 -7.09375 C 4.625 -6.894531 4.453125 -6.609375 4.328125 -6.234375 C 4.210938 -5.867188 4.15625 -5.429688 4.15625 -4.921875 C 4.15625 -4.410156 4.210938 -3.96875 4.328125 -3.59375 C 4.453125 -3.21875 4.625 -2.929688 4.84375 -2.734375 C 5.070312 -2.535156 5.34375 -2.4375 5.65625 -2.4375 Z M 5.65625 -2.4375 "/></g></g></g><g fill="#ffffff" fill-opacity="1"><g transform="translate(336.022819, 209.992004)"><g><path d="M 4.4375 -5.53125 L 4.4375 0 L 0.890625 0 L 0.890625 -9.828125 L 4.25 -9.828125 L 4.25 -7.96875 L 4.359375 -7.96875 C 4.566406 -8.59375 4.941406 -9.082031 5.484375 -9.4375 C 6.023438 -9.789062 6.65625 -9.96875 7.375 -9.96875 C 8.070312 -9.96875 8.675781 -9.804688 9.1875 -9.484375 C 9.707031 -9.171875 10.109375 -8.734375 10.390625 -8.171875 C 10.671875 -7.617188 10.8125 -6.988281 10.8125 -6.28125 L 10.8125 0 L 7.28125 0 L 7.28125 -5.53125 C 7.28125 -6.019531 7.15625 -6.398438 6.90625 -6.671875 C 6.65625 -6.953125 6.304688 -7.09375 5.859375 -7.09375 C 5.578125 -7.09375 5.328125 -7.03125 5.109375 -6.90625 C 4.890625 -6.78125 4.722656 -6.597656 4.609375 -6.359375 C 4.492188 -6.128906 4.4375 -5.851562 4.4375 -5.53125 Z M 4.4375 -5.53125 "/></g></g></g><g fill="#ffffff" fill-opacity="1"><g transform="translate(349.483293, 209.992004)"><g><path d="M 0.890625 0 L 0.890625 -9.828125 L 4.4375 -9.828125 L 4.4375 0 Z M 2.671875 -10.859375 C 2.191406 -10.859375 1.78125 -11.015625 1.4375 -11.328125 C 1.09375 -11.648438 0.921875 -12.03125 0.921875 -12.46875 C 0.921875 -12.914062 1.09375 -13.296875 1.4375 -13.609375 C 1.78125 -13.929688 2.1875 -14.09375 2.65625 -14.09375 C 3.144531 -14.09375 3.554688 -13.929688 3.890625 -13.609375 C 4.234375 -13.296875 4.40625 -12.914062 4.40625 -12.46875 C 4.40625 -12.03125 4.234375 -11.648438 3.890625 -11.328125 C 3.554688 -11.015625 3.148438 -10.859375 2.671875 -10.859375 Z M 2.671875 -10.859375 "/></g></g></g><g fill="#ffffff" fill-opacity="1"><g transform="translate(356.61604, 209.992004)"><g><path d="M 6.765625 -9.828125 L 6.765625 -7.28125 L 0.28125 -7.28125 L 0.28125 -9.828125 Z M 1.53125 -12.1875 L 5.078125 -12.1875 L 5.078125 -3.15625 C 5.078125 -3.019531 5.097656 -2.90625 5.140625 -2.8125 C 5.191406 -2.726562 5.265625 -2.660156 5.359375 -2.609375 C 5.453125 -2.566406 5.578125 -2.546875 5.734375 -2.546875 C 5.835938 -2.546875 5.960938 -2.554688 6.109375 -2.578125 C 6.253906 -2.609375 6.359375 -2.632812 6.421875 -2.65625 L 6.9375 -0.171875 C 6.78125 -0.117188 6.554688 -0.0625 6.265625 0 C 5.972656 0.0703125 5.625 0.117188 5.21875 0.140625 C 4.414062 0.179688 3.738281 0.0976562 3.1875 -0.109375 C 2.632812 -0.316406 2.21875 -0.648438 1.9375 -1.109375 C 1.664062 -1.566406 1.53125 -2.140625 1.53125 -2.828125 Z M 1.53125 -12.1875 "/></g></g></g><g fill="#ffffff" fill-opacity="1"><g transform="translate(365.721394, 209.992004)"><g><path d="M 5.640625 0.171875 C 4.566406 0.171875 3.648438 -0.0351562 2.890625 -0.453125 C 2.128906 -0.878906 1.546875 -1.472656 1.140625 -2.234375 C 0.734375 -2.992188 0.53125 -3.878906 0.53125 -4.890625 C 0.53125 -5.898438 0.734375 -6.785156 1.140625 -7.546875 C 1.546875 -8.304688 2.128906 -8.898438 2.890625 -9.328125 C 3.648438 -9.753906 4.566406 -9.96875 5.640625 -9.96875 C 6.703125 -9.96875 7.613281 -9.753906 8.375 -9.328125 C 9.132812 -8.898438 9.71875 -8.304688 10.125 -7.546875 C 10.53125 -6.785156 10.734375 -5.898438 10.734375 -4.890625 C 10.734375 -3.878906 10.53125 -2.992188 10.125 -2.234375 C 9.71875 -1.472656 9.132812 -0.878906 8.375 -0.453125 C 7.613281 -0.0351562 6.703125 0.171875 5.640625 0.171875 Z M 5.65625 -2.4375 C 5.957031 -2.4375 6.21875 -2.535156 6.4375 -2.734375 C 6.65625 -2.929688 6.820312 -3.21875 6.9375 -3.59375 C 7.0625 -3.96875 7.125 -4.410156 7.125 -4.921875 C 7.125 -5.429688 7.0625 -5.867188 6.9375 -6.234375 C 6.820312 -6.609375 6.65625 -6.894531 6.4375 -7.09375 C 6.21875 -7.300781 5.957031 -7.40625 5.65625 -7.40625 C 5.34375 -7.40625 5.070312 -7.300781 4.84375 -7.09375 C 4.625 -6.894531 4.453125 -6.609375 4.328125 -6.234375 C 4.210938 -5.867188 4.15625 -5.429688 4.15625 -4.921875 C 4.15625 -4.410156 4.210938 -3.96875 4.328125 -3.59375 C 4.453125 -3.21875 4.625 -2.929688 4.84375 -2.734375 C 5.070312 -2.535156 5.34375 -2.4375 5.65625 -2.4375 Z M 5.65625 -2.4375 "/></g></g></g><g fill="#ffffff" fill-opacity="1"><g transform="translate(378.797595, 209.992004)"><g><path d="M 0.890625 0 L 0.890625 -9.828125 L 4.328125 -9.828125 L 4.328125 -7.96875 L 4.4375 -7.96875 C 4.613281 -8.65625 4.894531 -9.160156 5.28125 -9.484375 C 5.675781 -9.804688 6.132812 -9.96875 6.65625 -9.96875 C 6.8125 -9.96875 6.960938 -9.953125 7.109375 -9.921875 C 7.265625 -9.898438 7.414062 -9.867188 7.5625 -9.828125 L 7.5625 -6.8125 C 7.382812 -6.875 7.164062 -6.921875 6.90625 -6.953125 C 6.65625 -6.984375 6.4375 -7 6.25 -7 C 5.90625 -7 5.59375 -6.921875 5.3125 -6.765625 C 5.039062 -6.609375 4.828125 -6.390625 4.671875 -6.109375 C 4.515625 -5.828125 4.4375 -5.5 4.4375 -5.125 L 4.4375 0 Z M 0.890625 0 "/></g></g></g><g fill="#ffffff" fill-opacity="1"><g transform="translate(388.415324, 209.992004)"><g><path d="M 0.890625 0 L 0.890625 -9.828125 L 4.4375 -9.828125 L 4.4375 0 Z M 2.671875 -10.859375 C 2.191406 -10.859375 1.78125 -11.015625 1.4375 -11.328125 C 1.09375 -11.648438 0.921875 -12.03125 0.921875 -12.46875 C 0.921875 -12.914062 1.09375 -13.296875 1.4375 -13.609375 C 1.78125 -13.929688 2.1875 -14.09375 2.65625 -14.09375 C 3.144531 -14.09375 3.554688 -13.929688 3.890625 -13.609375 C 4.234375 -13.296875 4.40625 -12.914062 4.40625 -12.46875 C 4.40625 -12.03125 4.234375 -11.648438 3.890625 -11.328125 C 3.554688 -11.015625 3.148438 -10.859375 2.671875 -10.859375 Z M 2.671875 -10.859375 "/></g></g></g><g fill="#ffffff" fill-opacity="1"><g transform="translate(395.548071, 209.992004)"><g><path d="M 4.4375 -5.53125 L 4.4375 0 L 0.890625 0 L 0.890625 -9.828125 L 4.25 -9.828125 L 4.25 -7.96875 L 4.359375 -7.96875 C 4.566406 -8.59375 4.941406 -9.082031 5.484375 -9.4375 C 6.023438 -9.789062 6.65625 -9.96875 7.375 -9.96875 C 8.070312 -9.96875 8.675781 -9.804688 9.1875 -9.484375 C 9.707031 -9.171875 10.109375 -8.734375 10.390625 -8.171875 C 10.671875 -7.617188 10.8125 -6.988281 10.8125 -6.28125 L 10.8125 0 L 7.28125 0 L 7.28125 -5.53125 C 7.28125 -6.019531 7.15625 -6.398438 6.90625 -6.671875 C 6.65625 -6.953125 6.304688 -7.09375 5.859375 -7.09375 C 5.578125 -7.09375 5.328125 -7.03125 5.109375 -6.90625 C 4.890625 -6.78125 4.722656 -6.597656 4.609375 -6.359375 C 4.492188 -6.128906 4.4375 -5.851562 4.4375 -5.53125 Z M 4.4375 -5.53125 "/></g></g></g><g fill="#ffffff" fill-opacity="1"><g transform="translate(409.008548, 209.992004)"><g><path d="M 5.640625 3.890625 C 4.648438 3.890625 3.800781 3.75 3.09375 3.46875 C 2.394531 3.1875 1.851562 2.800781 1.46875 2.3125 C 1.082031 1.832031 0.863281 1.273438 0.8125 0.640625 L 4.21875 0.640625 C 4.257812 0.847656 4.347656 1.015625 4.484375 1.140625 C 4.617188 1.273438 4.789062 1.367188 5 1.421875 C 5.21875 1.484375 5.460938 1.515625 5.734375 1.515625 C 6.191406 1.515625 6.570312 1.398438 6.875 1.171875 C 7.175781 0.953125 7.328125 0.550781 7.328125 -0.03125 L 7.328125 -1.6875 L 7.21875 -1.6875 C 7.09375 -1.351562 6.894531 -1.070312 6.625 -0.84375 C 6.363281 -0.613281 6.046875 -0.4375 5.671875 -0.3125 C 5.304688 -0.1875 4.898438 -0.125 4.453125 -0.125 C 3.753906 -0.125 3.109375 -0.285156 2.515625 -0.609375 C 1.929688 -0.929688 1.460938 -1.445312 1.109375 -2.15625 C 0.765625 -2.863281 0.59375 -3.785156 0.59375 -4.921875 C 0.59375 -6.109375 0.773438 -7.070312 1.140625 -7.8125 C 1.515625 -8.550781 1.992188 -9.09375 2.578125 -9.4375 C 3.160156 -9.789062 3.78125 -9.96875 4.4375 -9.96875 C 4.914062 -9.96875 5.335938 -9.878906 5.703125 -9.703125 C 6.078125 -9.535156 6.382812 -9.3125 6.625 -9.03125 C 6.875 -8.757812 7.066406 -8.457031 7.203125 -8.125 L 7.28125 -8.125 L 7.28125 -9.828125 L 10.8125 -9.828125 L 10.8125 -0.03125 C 10.8125 0.800781 10.59375 1.507812 10.15625 2.09375 C 9.726562 2.675781 9.125 3.117188 8.34375 3.421875 C 7.570312 3.734375 6.671875 3.890625 5.640625 3.890625 Z M 5.765625 -2.640625 C 6.085938 -2.640625 6.363281 -2.726562 6.59375 -2.90625 C 6.832031 -3.09375 7.015625 -3.351562 7.140625 -3.6875 C 7.265625 -4.03125 7.328125 -4.441406 7.328125 -4.921875 C 7.328125 -5.398438 7.265625 -5.8125 7.140625 -6.15625 C 7.015625 -6.507812 6.832031 -6.78125 6.59375 -6.96875 C 6.363281 -7.15625 6.085938 -7.25 5.765625 -7.25 C 5.441406 -7.25 5.164062 -7.15625 4.9375 -6.96875 C 4.707031 -6.78125 4.53125 -6.507812 4.40625 -6.15625 C 4.28125 -5.8125 4.21875 -5.398438 4.21875 -4.921875 C 4.21875 -4.429688 4.28125 -4.015625 4.40625 -3.671875 C 4.53125 -3.335938 4.707031 -3.082031 4.9375 -2.90625 C 5.164062 -2.726562 5.441406 -2.640625 5.765625 -2.640625 Z M 5.765625 -2.640625 "/></g></g></g><g fill="#ffffff" fill-opacity="1"><g transform="translate(422.520255, 209.992004)"><g/></g></g><g fill="#ffffff" fill-opacity="1"><g transform="translate(427.91096, 209.992004)"><g><path d="M 4.25 0 L 0.40625 0 L 4.734375 -13.109375 L 9.609375 -13.109375 L 13.9375 0 L 10.09375 0 L 7.21875 -9.5 L 7.125 -9.5 Z M 3.53125 -5.171875 L 10.75 -5.171875 L 10.75 -2.515625 L 3.53125 -2.515625 Z M 3.53125 -5.171875 "/></g></g></g><g fill="#ffffff" fill-opacity="1"><g transform="translate(444.061353, 209.992004)"><g><path d="M 7.28125 -4.296875 L 7.28125 -9.828125 L 10.8125 -9.828125 L 10.8125 0 L 7.453125 0 L 7.453125 -1.875 L 7.34375 -1.875 C 7.132812 -1.238281 6.765625 -0.742188 6.234375 -0.390625 C 5.703125 -0.046875 5.066406 0.125 4.328125 0.125 C 3.640625 0.125 3.035156 -0.03125 2.515625 -0.34375 C 2.003906 -0.65625 1.609375 -1.085938 1.328125 -1.640625 C 1.046875 -2.203125 0.898438 -2.84375 0.890625 -3.5625 L 0.890625 -9.828125 L 4.4375 -9.828125 L 4.4375 -4.296875 C 4.4375 -3.816406 4.554688 -3.4375 4.796875 -3.15625 C 5.046875 -2.875 5.394531 -2.734375 5.84375 -2.734375 C 6.132812 -2.734375 6.382812 -2.796875 6.59375 -2.921875 C 6.8125 -3.054688 6.976562 -3.238281 7.09375 -3.46875 C 7.21875 -3.695312 7.28125 -3.972656 7.28125 -4.296875 Z M 7.28125 -4.296875 "/></g></g></g><g fill="#ffffff" fill-opacity="1"><g transform="translate(457.573059, 209.992004)"><g><path d="M 4.453125 0.125 C 3.753906 0.125 3.109375 -0.0546875 2.515625 -0.421875 C 1.929688 -0.785156 1.460938 -1.34375 1.109375 -2.09375 C 0.765625 -2.84375 0.59375 -3.785156 0.59375 -4.921875 C 0.59375 -6.109375 0.773438 -7.070312 1.140625 -7.8125 C 1.515625 -8.550781 1.992188 -9.09375 2.578125 -9.4375 C 3.160156 -9.789062 3.78125 -9.96875 4.4375 -9.96875 C 4.914062 -9.96875 5.335938 -9.878906 5.703125 -9.703125 C 6.078125 -9.535156 6.382812 -9.3125 6.625 -9.03125 C 6.875 -8.757812 7.066406 -8.457031 7.203125 -8.125 L 7.25 -8.125 L 7.25 -13.109375 L 10.78125 -13.109375 L 10.78125 0 L 7.28125 0 L 7.28125 -1.609375 L 7.203125 -1.609375 C 7.066406 -1.273438 6.867188 -0.976562 6.609375 -0.71875 C 6.359375 -0.457031 6.050781 -0.25 5.6875 -0.09375 C 5.320312 0.0507812 4.910156 0.125 4.453125 0.125 Z M 5.765625 -2.59375 C 6.085938 -2.59375 6.363281 -2.6875 6.59375 -2.875 C 6.832031 -3.0625 7.015625 -3.328125 7.140625 -3.671875 C 7.265625 -4.023438 7.328125 -4.441406 7.328125 -4.921875 C 7.328125 -5.398438 7.265625 -5.8125 7.140625 -6.15625 C 7.015625 -6.507812 6.832031 -6.78125 6.59375 -6.96875 C 6.363281 -7.15625 6.085938 -7.25 5.765625 -7.25 C 5.441406 -7.25 5.164062 -7.15625 4.9375 -6.96875 C 4.707031 -6.78125 4.53125 -6.507812 4.40625 -6.15625 C 4.28125 -5.8125 4.21875 -5.398438 4.21875 -4.921875 C 4.21875 -4.429688 4.28125 -4.007812 4.40625 -3.65625 C 4.53125 -3.3125 4.707031 -3.046875 4.9375 -2.859375 C 5.164062 -2.679688 5.441406 -2.59375 5.765625 -2.59375 Z M 5.765625 -2.59375 "/></g></g></g><g fill="#ffffff" fill-opacity="1"><g transform="translate(471.007908, 209.992004)"><g><path d="M 0.890625 0 L 0.890625 -9.828125 L 4.4375 -9.828125 L 4.4375 0 Z M 2.671875 -10.859375 C 2.191406 -10.859375 1.78125 -11.015625 1.4375 -11.328125 C 1.09375 -11.648438 0.921875 -12.03125 0.921875 -12.46875 C 0.921875 -12.914062 1.09375 -13.296875 1.4375 -13.609375 C 1.78125 -13.929688 2.1875 -14.09375 2.65625 -14.09375 C 3.144531 -14.09375 3.554688 -13.929688 3.890625 -13.609375 C 4.234375 -13.296875 4.40625 -12.914062 4.40625 -12.46875 C 4.40625 -12.03125 4.234375 -11.648438 3.890625 -11.328125 C 3.554688 -11.015625 3.148438 -10.859375 2.671875 -10.859375 Z M 2.671875 -10.859375 "/></g></g></g><g fill="#ffffff" fill-opacity="1"><g transform="translate(478.140655, 209.992004)"><g><path d="M 6.765625 -9.828125 L 6.765625 -7.28125 L 0.28125 -7.28125 L 0.28125 -9.828125 Z M 1.53125 -12.1875 L 5.078125 -12.1875 L 5.078125 -3.15625 C 5.078125 -3.019531 5.097656 -2.90625 5.140625 -2.8125 C 5.191406 -2.726562 5.265625 -2.660156 5.359375 -2.609375 C 5.453125 -2.566406 5.578125 -2.546875 5.734375 -2.546875 C 5.835938 -2.546875 5.960938 -2.554688 6.109375 -2.578125 C 6.253906 -2.609375 6.359375 -2.632812 6.421875 -2.65625 L 6.9375 -0.171875 C 6.78125 -0.117188 6.554688 -0.0625 6.265625 0 C 5.972656 0.0703125 5.625 0.117188 5.21875 0.140625 C 4.414062 0.179688 3.738281 0.0976562 3.1875 -0.109375 C 2.632812 -0.316406 2.21875 -0.648438 1.9375 -1.109375 C 1.664062 -1.566406 1.53125 -2.140625 1.53125 -2.828125 Z M 1.53125 -12.1875 "/></g></g></g><g fill="#ffffff" fill-opacity="1"><g transform="translate(487.246008, 209.992004)"><g/></g></g><g fill="#ffffff" fill-opacity="1"><g transform="translate(492.636713, 209.992004)"><g><path d="M 0.84375 0 L 0.84375 -13.109375 L 4.40625 -13.109375 L 4.40625 -7.8125 L 4.578125 -7.8125 L 8.53125 -13.109375 L 12.671875 -13.109375 L 8.25 -7.28125 L 12.78125 0 L 8.53125 0 L 5.578125 -4.921875 L 4.40625 -3.375 L 4.40625 0 Z M 0.84375 0 "/></g></g></g><g fill="#ffffff" fill-opacity="1"><g transform="translate(507.326863, 209.992004)"><g><path d="M 5.609375 0.171875 C 4.554688 0.171875 3.648438 -0.0234375 2.890625 -0.421875 C 2.140625 -0.828125 1.554688 -1.40625 1.140625 -2.15625 C 0.734375 -2.914062 0.53125 -3.828125 0.53125 -4.890625 C 0.53125 -5.910156 0.734375 -6.800781 1.140625 -7.5625 C 1.554688 -8.320312 2.140625 -8.910156 2.890625 -9.328125 C 3.640625 -9.753906 4.519531 -9.96875 5.53125 -9.96875 C 6.269531 -9.96875 6.941406 -9.847656 7.546875 -9.609375 C 8.148438 -9.378906 8.664062 -9.046875 9.09375 -8.609375 C 9.519531 -8.171875 9.847656 -7.640625 10.078125 -7.015625 C 10.304688 -6.398438 10.421875 -5.703125 10.421875 -4.921875 L 10.421875 -4.09375 L 1.640625 -4.09375 L 1.640625 -6.046875 L 7.171875 -6.046875 C 7.171875 -6.328125 7.097656 -6.570312 6.953125 -6.78125 C 6.816406 -7 6.628906 -7.171875 6.390625 -7.296875 C 6.160156 -7.421875 5.898438 -7.484375 5.609375 -7.484375 C 5.328125 -7.484375 5.066406 -7.421875 4.828125 -7.296875 C 4.585938 -7.171875 4.394531 -7 4.25 -6.78125 C 4.101562 -6.570312 4.023438 -6.328125 4.015625 -6.046875 L 4.015625 -3.9375 C 4.015625 -3.625 4.082031 -3.34375 4.21875 -3.09375 C 4.351562 -2.851562 4.539062 -2.660156 4.78125 -2.515625 C 5.03125 -2.378906 5.332031 -2.3125 5.6875 -2.3125 C 5.925781 -2.3125 6.144531 -2.34375 6.34375 -2.40625 C 6.550781 -2.476562 6.726562 -2.578125 6.875 -2.703125 C 7.019531 -2.835938 7.128906 -2.992188 7.203125 -3.171875 L 10.421875 -3.171875 C 10.316406 -2.492188 10.054688 -1.898438 9.640625 -1.390625 C 9.222656 -0.890625 8.671875 -0.503906 7.984375 -0.234375 C 7.304688 0.0351562 6.515625 0.171875 5.609375 0.171875 Z M 5.609375 0.171875 "/></g></g></g><g fill="#ffffff" fill-opacity="1"><g transform="translate(520.095654, 209.992004)"><g><path d="M 0.890625 3.6875 L 0.890625 -9.828125 L 4.40625 -9.828125 L 4.40625 -8.125 L 4.484375 -8.125 C 4.609375 -8.457031 4.796875 -8.757812 5.046875 -9.03125 C 5.296875 -9.3125 5.601562 -9.535156 5.96875 -9.703125 C 6.332031 -9.878906 6.757812 -9.96875 7.25 -9.96875 C 7.894531 -9.96875 8.507812 -9.789062 9.09375 -9.4375 C 9.6875 -9.09375 10.164062 -8.550781 10.53125 -7.8125 C 10.90625 -7.070312 11.09375 -6.109375 11.09375 -4.921875 C 11.09375 -3.785156 10.914062 -2.84375 10.5625 -2.09375 C 10.207031 -1.34375 9.734375 -0.785156 9.140625 -0.421875 C 8.554688 -0.0546875 7.914062 0.125 7.21875 0.125 C 6.757812 0.125 6.347656 0.0507812 5.984375 -0.09375 C 5.628906 -0.25 5.320312 -0.457031 5.0625 -0.71875 C 4.8125 -0.976562 4.617188 -1.273438 4.484375 -1.609375 L 4.4375 -1.609375 L 4.4375 3.6875 Z M 4.359375 -4.921875 C 4.359375 -4.441406 4.421875 -4.023438 4.546875 -3.671875 C 4.671875 -3.328125 4.847656 -3.0625 5.078125 -2.875 C 5.316406 -2.6875 5.597656 -2.59375 5.921875 -2.59375 C 6.242188 -2.59375 6.519531 -2.679688 6.75 -2.859375 C 6.976562 -3.046875 7.148438 -3.3125 7.265625 -3.65625 C 7.390625 -4.007812 7.453125 -4.429688 7.453125 -4.921875 C 7.453125 -5.398438 7.390625 -5.8125 7.265625 -6.15625 C 7.148438 -6.507812 6.976562 -6.78125 6.75 -6.96875 C 6.519531 -7.15625 6.242188 -7.25 5.921875 -7.25 C 5.597656 -7.25 5.316406 -7.15625 5.078125 -6.96875 C 4.847656 -6.78125 4.671875 -6.507812 4.546875 -6.15625 C 4.421875 -5.8125 4.359375 -5.398438 4.359375 -4.921875 Z M 4.359375 -4.921875 "/></g></g></g><g fill="#ffffff" fill-opacity="1"><g transform="translate(533.58176, 209.992004)"><g><path d="M 3.640625 0.15625 C 3.015625 0.15625 2.457031 0.0507812 1.96875 -0.15625 C 1.488281 -0.363281 1.113281 -0.675781 0.84375 -1.09375 C 0.570312 -1.519531 0.4375 -2.0625 0.4375 -2.71875 C 0.4375 -3.25 0.523438 -3.707031 0.703125 -4.09375 C 0.890625 -4.476562 1.144531 -4.789062 1.46875 -5.03125 C 1.800781 -5.269531 2.1875 -5.453125 2.625 -5.578125 C 3.0625 -5.710938 3.535156 -5.800781 4.046875 -5.84375 C 4.597656 -5.882812 5.039062 -5.9375 5.375 -6 C 5.707031 -6.0625 5.945312 -6.144531 6.09375 -6.25 C 6.25 -6.363281 6.328125 -6.515625 6.328125 -6.703125 L 6.328125 -6.734375 C 6.328125 -6.992188 6.226562 -7.191406 6.03125 -7.328125 C 5.832031 -7.460938 5.582031 -7.53125 5.28125 -7.53125 C 4.9375 -7.53125 4.660156 -7.457031 4.453125 -7.3125 C 4.242188 -7.164062 4.117188 -6.941406 4.078125 -6.640625 L 0.8125 -6.640625 C 0.863281 -7.234375 1.054688 -7.78125 1.390625 -8.28125 C 1.734375 -8.789062 2.226562 -9.195312 2.875 -9.5 C 3.53125 -9.8125 4.347656 -9.96875 5.328125 -9.96875 C 6.035156 -9.96875 6.664062 -9.882812 7.21875 -9.71875 C 7.78125 -9.550781 8.253906 -9.320312 8.640625 -9.03125 C 9.035156 -8.738281 9.335938 -8.394531 9.546875 -8 C 9.753906 -7.613281 9.859375 -7.191406 9.859375 -6.734375 L 9.859375 0 L 6.5625 0 L 6.5625 -1.390625 L 6.484375 -1.390625 C 6.285156 -1.015625 6.046875 -0.710938 5.765625 -0.484375 C 5.484375 -0.265625 5.164062 -0.101562 4.8125 0 C 4.457031 0.101562 4.066406 0.15625 3.640625 0.15625 Z M 4.796875 -2.078125 C 5.054688 -2.078125 5.304688 -2.128906 5.546875 -2.234375 C 5.785156 -2.347656 5.976562 -2.507812 6.125 -2.71875 C 6.28125 -2.925781 6.359375 -3.179688 6.359375 -3.484375 L 6.359375 -4.296875 C 6.265625 -4.265625 6.160156 -4.226562 6.046875 -4.1875 C 5.941406 -4.15625 5.832031 -4.125 5.71875 -4.09375 C 5.601562 -4.0625 5.476562 -4.03125 5.34375 -4 C 5.21875 -3.976562 5.082031 -3.957031 4.9375 -3.9375 C 4.664062 -3.894531 4.441406 -3.828125 4.265625 -3.734375 C 4.097656 -3.640625 3.972656 -3.519531 3.890625 -3.375 C 3.804688 -3.238281 3.765625 -3.085938 3.765625 -2.921875 C 3.765625 -2.648438 3.859375 -2.441406 4.046875 -2.296875 C 4.242188 -2.148438 4.492188 -2.078125 4.796875 -2.078125 Z M 4.796875 -2.078125 "/></g></g></g><g fill="#ffffff" fill-opacity="1"><g transform="translate(546.043116, 209.992004)"><g><path d="M 6.765625 -9.828125 L 6.765625 -7.28125 L 0.28125 -7.28125 L 0.28125 -9.828125 Z M 1.53125 -12.1875 L 5.078125 -12.1875 L 5.078125 -3.15625 C 5.078125 -3.019531 5.097656 -2.90625 5.140625 -2.8125 C 5.191406 -2.726562 5.265625 -2.660156 5.359375 -2.609375 C 5.453125 -2.566406 5.578125 -2.546875 5.734375 -2.546875 C 5.835938 -2.546875 5.960938 -2.554688 6.109375 -2.578125 C 6.253906 -2.609375 6.359375 -2.632812 6.421875 -2.65625 L 6.9375 -0.171875 C 6.78125 -0.117188 6.554688 -0.0625 6.265625 0 C 5.972656 0.0703125 5.625 0.117188 5.21875 0.140625 C 4.414062 0.179688 3.738281 0.0976562 3.1875 -0.109375 C 2.632812 -0.316406 2.21875 -0.648438 1.9375 -1.109375 C 1.664062 -1.566406 1.53125 -2.140625 1.53125 -2.828125 Z M 1.53125 -12.1875 "/></g></g></g><g fill="#ffffff" fill-opacity="1"><g transform="translate(555.14847, 209.992004)"><g><path d="M 7.28125 -4.296875 L 7.28125 -9.828125 L 10.8125 -9.828125 L 10.8125 0 L 7.453125 0 L 7.453125 -1.875 L 7.34375 -1.875 C 7.132812 -1.238281 6.765625 -0.742188 6.234375 -0.390625 C 5.703125 -0.046875 5.066406 0.125 4.328125 0.125 C 3.640625 0.125 3.035156 -0.03125 2.515625 -0.34375 C 2.003906 -0.65625 1.609375 -1.085938 1.328125 -1.640625 C 1.046875 -2.203125 0.898438 -2.84375 0.890625 -3.5625 L 0.890625 -9.828125 L 4.4375 -9.828125 L 4.4375 -4.296875 C 4.4375 -3.816406 4.554688 -3.4375 4.796875 -3.15625 C 5.046875 -2.875 5.394531 -2.734375 5.84375 -2.734375 C 6.132812 -2.734375 6.382812 -2.796875 6.59375 -2.921875 C 6.8125 -3.054688 6.976562 -3.238281 7.09375 -3.46875 C 7.21875 -3.695312 7.28125 -3.972656 7.28125 -4.296875 Z M 7.28125 -4.296875 "/></g></g></g><g fill="#ffffff" fill-opacity="1"><g transform="translate(568.660188, 209.992004)"><g><path d="M 4.4375 -5.53125 L 4.4375 0 L 0.890625 0 L 0.890625 -13.109375 L 4.296875 -13.109375 L 4.296875 -7.96875 L 4.40625 -7.96875 C 4.625 -8.59375 4.988281 -9.082031 5.5 -9.4375 C 6.019531 -9.789062 6.644531 -9.96875 7.375 -9.96875 C 8.070312 -9.96875 8.675781 -9.804688 9.1875 -9.484375 C 9.707031 -9.171875 10.109375 -8.734375 10.390625 -8.171875 C 10.671875 -7.617188 10.8125 -6.988281 10.8125 -6.28125 L 10.8125 0 L 7.28125 0 L 7.28125 -5.53125 C 7.28125 -6.019531 7.15625 -6.398438 6.90625 -6.671875 C 6.664062 -6.953125 6.316406 -7.09375 5.859375 -7.09375 C 5.578125 -7.09375 5.328125 -7.03125 5.109375 -6.90625 C 4.898438 -6.78125 4.734375 -6.597656 4.609375 -6.359375 C 4.492188 -6.128906 4.4375 -5.851562 4.4375 -5.53125 Z M 4.4375 -5.53125 "/></g></g></g><g fill="#ffffff" fill-opacity="1"><g transform="translate(582.120659, 209.992004)"><g><path d="M 3.640625 0.15625 C 3.015625 0.15625 2.457031 0.0507812 1.96875 -0.15625 C 1.488281 -0.363281 1.113281 -0.675781 0.84375 -1.09375 C 0.570312 -1.519531 0.4375 -2.0625 0.4375 -2.71875 C 0.4375 -3.25 0.523438 -3.707031 0.703125 -4.09375 C 0.890625 -4.476562 1.144531 -4.789062 1.46875 -5.03125 C 1.800781 -5.269531 2.1875 -5.453125 2.625 -5.578125 C 3.0625 -5.710938 3.535156 -5.800781 4.046875 -5.84375 C 4.597656 -5.882812 5.039062 -5.9375 5.375 -6 C 5.707031 -6.0625 5.945312 -6.144531 6.09375 -6.25 C 6.25 -6.363281 6.328125 -6.515625 6.328125 -6.703125 L 6.328125 -6.734375 C 6.328125 -6.992188 6.226562 -7.191406 6.03125 -7.328125 C 5.832031 -7.460938 5.582031 -7.53125 5.28125 -7.53125 C 4.9375 -7.53125 4.660156 -7.457031 4.453125 -7.3125 C 4.242188 -7.164062 4.117188 -6.941406 4.078125 -6.640625 L 0.8125 -6.640625 C 0.863281 -7.234375 1.054688 -7.78125 1.390625 -8.28125 C 1.734375 -8.789062 2.226562 -9.195312 2.875 -9.5 C 3.53125 -9.8125 4.347656 -9.96875 5.328125 -9.96875 C 6.035156 -9.96875 6.664062 -9.882812 7.21875 -9.71875 C 7.78125 -9.550781 8.253906 -9.320312 8.640625 -9.03125 C 9.035156 -8.738281 9.335938 -8.394531 9.546875 -8 C 9.753906 -7.613281 9.859375 -7.191406 9.859375 -6.734375 L 9.859375 0 L 6.5625 0 L 6.5625 -1.390625 L 6.484375 -1.390625 C 6.285156 -1.015625 6.046875 -0.710938 5.765625 -0.484375 C 5.484375 -0.265625 5.164062 -0.101562 4.8125 0 C 4.457031 0.101562 4.066406 0.15625 3.640625 0.15625 Z M 4.796875 -2.078125 C 5.054688 -2.078125 5.304688 -2.128906 5.546875 -2.234375 C 5.785156 -2.347656 5.976562 -2.507812 6.125 -2.71875 C 6.28125 -2.925781 6.359375 -3.179688 6.359375 -3.484375 L 6.359375 -4.296875 C 6.265625 -4.265625 6.160156 -4.226562 6.046875 -4.1875 C 5.941406 -4.15625 5.832031 -4.125 5.71875 -4.09375 C 5.601562 -4.0625 5.476562 -4.03125 5.34375 -4 C 5.21875 -3.976562 5.082031 -3.957031 4.9375 -3.9375 C 4.664062 -3.894531 4.441406 -3.828125 4.265625 -3.734375 C 4.097656 -3.640625 3.972656 -3.519531 3.890625 -3.375 C 3.804688 -3.238281 3.765625 -3.085938 3.765625 -2.921875 C 3.765625 -2.648438 3.859375 -2.441406 4.046875 -2.296875 C 4.242188 -2.148438 4.492188 -2.078125 4.796875 -2.078125 Z M 4.796875 -2.078125 "/></g></g></g><g fill="#ffffff" fill-opacity="1"><g transform="translate(594.582015, 209.992004)"><g><path d="M 4.4375 -5.53125 L 4.4375 0 L 0.890625 0 L 0.890625 -9.828125 L 4.25 -9.828125 L 4.25 -7.96875 L 4.359375 -7.96875 C 4.566406 -8.59375 4.941406 -9.082031 5.484375 -9.4375 C 6.023438 -9.789062 6.65625 -9.96875 7.375 -9.96875 C 8.070312 -9.96875 8.675781 -9.804688 9.1875 -9.484375 C 9.707031 -9.171875 10.109375 -8.734375 10.390625 -8.171875 C 10.671875 -7.617188 10.8125 -6.988281 10.8125 -6.28125 L 10.8125 0 L 7.28125 0 L 7.28125 -5.53125 C 7.28125 -6.019531 7.15625 -6.398438 6.90625 -6.671875 C 6.65625 -6.953125 6.304688 -7.09375 5.859375 -7.09375 C 5.578125 -7.09375 5.328125 -7.03125 5.109375 -6.90625 C 4.890625 -6.78125 4.722656 -6.597656 4.609375 -6.359375 C 4.492188 -6.128906 4.4375 -5.851562 4.4375 -5.53125 Z M 4.4375 -5.53125 "/></g></g></g><g fill="#ffffff" fill-opacity="1"><g transform="translate(608.051691, 209.992004)"><g/></g></g><g fill="#ffffff" fill-opacity="1"><g transform="translate(304.336863, 234.742002)"><g><path d="M 0.84375 0 L 0.84375 -13.109375 L 4.40625 -13.109375 L 4.40625 -7.8125 L 4.578125 -7.8125 L 8.53125 -13.109375 L 12.671875 -13.109375 L 8.25 -7.28125 L 12.78125 0 L 8.53125 0 L 5.578125 -4.921875 L 4.40625 -3.375 L 4.40625 0 Z M 0.84375 0 "/></g></g></g><g fill="#ffffff" fill-opacity="1"><g transform="translate(319.027015, 234.742002)"><g><path d="M 5.609375 0.171875 C 4.554688 0.171875 3.648438 -0.0234375 2.890625 -0.421875 C 2.140625 -0.828125 1.554688 -1.40625 1.140625 -2.15625 C 0.734375 -2.914062 0.53125 -3.828125 0.53125 -4.890625 C 0.53125 -5.910156 0.734375 -6.800781 1.140625 -7.5625 C 1.554688 -8.320312 2.140625 -8.910156 2.890625 -9.328125 C 3.640625 -9.753906 4.519531 -9.96875 5.53125 -9.96875 C 6.269531 -9.96875 6.941406 -9.847656 7.546875 -9.609375 C 8.148438 -9.378906 8.664062 -9.046875 9.09375 -8.609375 C 9.519531 -8.171875 9.847656 -7.640625 10.078125 -7.015625 C 10.304688 -6.398438 10.421875 -5.703125 10.421875 -4.921875 L 10.421875 -4.09375 L 1.640625 -4.09375 L 1.640625 -6.046875 L 7.171875 -6.046875 C 7.171875 -6.328125 7.097656 -6.570312 6.953125 -6.78125 C 6.816406 -7 6.628906 -7.171875 6.390625 -7.296875 C 6.160156 -7.421875 5.898438 -7.484375 5.609375 -7.484375 C 5.328125 -7.484375 5.066406 -7.421875 4.828125 -7.296875 C 4.585938 -7.171875 4.394531 -7 4.25 -6.78125 C 4.101562 -6.570312 4.023438 -6.328125 4.015625 -6.046875 L 4.015625 -3.9375 C 4.015625 -3.625 4.082031 -3.34375 4.21875 -3.09375 C 4.351562 -2.851562 4.539062 -2.660156 4.78125 -2.515625 C 5.03125 -2.378906 5.332031 -2.3125 5.6875 -2.3125 C 5.925781 -2.3125 6.144531 -2.34375 6.34375 -2.40625 C 6.550781 -2.476562 6.726562 -2.578125 6.875 -2.703125 C 7.019531 -2.835938 7.128906 -2.992188 7.203125 -3.171875 L 10.421875 -3.171875 C 10.316406 -2.492188 10.054688 -1.898438 9.640625 -1.390625 C 9.222656 -0.890625 8.671875 -0.503906 7.984375 -0.234375 C 7.304688 0.0351562 6.515625 0.171875 5.609375 0.171875 Z M 5.609375 0.171875 "/></g></g></g><g fill="#ffffff" fill-opacity="1"><g transform="translate(331.795796, 234.742002)"><g><path d="M 5.640625 3.890625 C 4.648438 3.890625 3.800781 3.75 3.09375 3.46875 C 2.394531 3.1875 1.851562 2.800781 1.46875 2.3125 C 1.082031 1.832031 0.863281 1.273438 0.8125 0.640625 L 4.21875 0.640625 C 4.257812 0.847656 4.347656 1.015625 4.484375 1.140625 C 4.617188 1.273438 4.789062 1.367188 5 1.421875 C 5.21875 1.484375 5.460938 1.515625 5.734375 1.515625 C 6.191406 1.515625 6.570312 1.398438 6.875 1.171875 C 7.175781 0.953125 7.328125 0.550781 7.328125 -0.03125 L 7.328125 -1.6875 L 7.21875 -1.6875 C 7.09375 -1.351562 6.894531 -1.070312 6.625 -0.84375 C 6.363281 -0.613281 6.046875 -0.4375 5.671875 -0.3125 C 5.304688 -0.1875 4.898438 -0.125 4.453125 -0.125 C 3.753906 -0.125 3.109375 -0.285156 2.515625 -0.609375 C 1.929688 -0.929688 1.460938 -1.445312 1.109375 -2.15625 C 0.765625 -2.863281 0.59375 -3.785156 0.59375 -4.921875 C 0.59375 -6.109375 0.773438 -7.070312 1.140625 -7.8125 C 1.515625 -8.550781 1.992188 -9.09375 2.578125 -9.4375 C 3.160156 -9.789062 3.78125 -9.96875 4.4375 -9.96875 C 4.914062 -9.96875 5.335938 -9.878906 5.703125 -9.703125 C 6.078125 -9.535156 6.382812 -9.3125 6.625 -9.03125 C 6.875 -8.757812 7.066406 -8.457031 7.203125 -8.125 L 7.28125 -8.125 L 7.28125 -9.828125 L 10.8125 -9.828125 L 10.8125 -0.03125 C 10.8125 0.800781 10.59375 1.507812 10.15625 2.09375 C 9.726562 2.675781 9.125 3.117188 8.34375 3.421875 C 7.570312 3.734375 6.671875 3.890625 5.640625 3.890625 Z M 5.765625 -2.640625 C 6.085938 -2.640625 6.363281 -2.726562 6.59375 -2.90625 C 6.832031 -3.09375 7.015625 -3.351562 7.140625 -3.6875 C 7.265625 -4.03125 7.328125 -4.441406 7.328125 -4.921875 C 7.328125 -5.398438 7.265625 -5.8125 7.140625 -6.15625 C 7.015625 -6.507812 6.832031 -6.78125 6.59375 -6.96875 C 6.363281 -7.15625 6.085938 -7.25 5.765625 -7.25 C 5.441406 -7.25 5.164062 -7.15625 4.9375 -6.96875 C 4.707031 -6.78125 4.53125 -6.507812 4.40625 -6.15625 C 4.28125 -5.8125 4.21875 -5.398438 4.21875 -4.921875 C 4.21875 -4.429688 4.28125 -4.015625 4.40625 -3.671875 C 4.53125 -3.335938 4.707031 -3.082031 4.9375 -2.90625 C 5.164062 -2.726562 5.441406 -2.640625 5.765625 -2.640625 Z M 5.765625 -2.640625 "/></g></g></g><g fill="#ffffff" fill-opacity="1"><g transform="translate(345.307505, 234.742002)"><g><path d="M 0.890625 0 L 0.890625 -9.828125 L 4.4375 -9.828125 L 4.4375 0 Z M 2.671875 -10.859375 C 2.191406 -10.859375 1.78125 -11.015625 1.4375 -11.328125 C 1.09375 -11.648438 0.921875 -12.03125 0.921875 -12.46875 C 0.921875 -12.914062 1.09375 -13.296875 1.4375 -13.609375 C 1.78125 -13.929688 2.1875 -14.09375 2.65625 -14.09375 C 3.144531 -14.09375 3.554688 -13.929688 3.890625 -13.609375 C 4.234375 -13.296875 4.40625 -12.914062 4.40625 -12.46875 C 4.40625 -12.03125 4.234375 -11.648438 3.890625 -11.328125 C 3.554688 -11.015625 3.148438 -10.859375 2.671875 -10.859375 Z M 2.671875 -10.859375 "/></g></g></g><g fill="#ffffff" fill-opacity="1"><g transform="translate(352.440252, 234.742002)"><g><path d="M 3.640625 0.15625 C 3.015625 0.15625 2.457031 0.0507812 1.96875 -0.15625 C 1.488281 -0.363281 1.113281 -0.675781 0.84375 -1.09375 C 0.570312 -1.519531 0.4375 -2.0625 0.4375 -2.71875 C 0.4375 -3.25 0.523438 -3.707031 0.703125 -4.09375 C 0.890625 -4.476562 1.144531 -4.789062 1.46875 -5.03125 C 1.800781 -5.269531 2.1875 -5.453125 2.625 -5.578125 C 3.0625 -5.710938 3.535156 -5.800781 4.046875 -5.84375 C 4.597656 -5.882812 5.039062 -5.9375 5.375 -6 C 5.707031 -6.0625 5.945312 -6.144531 6.09375 -6.25 C 6.25 -6.363281 6.328125 -6.515625 6.328125 -6.703125 L 6.328125 -6.734375 C 6.328125 -6.992188 6.226562 -7.191406 6.03125 -7.328125 C 5.832031 -7.460938 5.582031 -7.53125 5.28125 -7.53125 C 4.9375 -7.53125 4.660156 -7.457031 4.453125 -7.3125 C 4.242188 -7.164062 4.117188 -6.941406 4.078125 -6.640625 L 0.8125 -6.640625 C 0.863281 -7.234375 1.054688 -7.78125 1.390625 -8.28125 C 1.734375 -8.789062 2.226562 -9.195312 2.875 -9.5 C 3.53125 -9.8125 4.347656 -9.96875 5.328125 -9.96875 C 6.035156 -9.96875 6.664062 -9.882812 7.21875 -9.71875 C 7.78125 -9.550781 8.253906 -9.320312 8.640625 -9.03125 C 9.035156 -8.738281 9.335938 -8.394531 9.546875 -8 C 9.753906 -7.613281 9.859375 -7.191406 9.859375 -6.734375 L 9.859375 0 L 6.5625 0 L 6.5625 -1.390625 L 6.484375 -1.390625 C 6.285156 -1.015625 6.046875 -0.710938 5.765625 -0.484375 C 5.484375 -0.265625 5.164062 -0.101562 4.8125 0 C 4.457031 0.101562 4.066406 0.15625 3.640625 0.15625 Z M 4.796875 -2.078125 C 5.054688 -2.078125 5.304688 -2.128906 5.546875 -2.234375 C 5.785156 -2.347656 5.976562 -2.507812 6.125 -2.71875 C 6.28125 -2.925781 6.359375 -3.179688 6.359375 -3.484375 L 6.359375 -4.296875 C 6.265625 -4.265625 6.160156 -4.226562 6.046875 -4.1875 C 5.941406 -4.15625 5.832031 -4.125 5.71875 -4.09375 C 5.601562 -4.0625 5.476562 -4.03125 5.34375 -4 C 5.21875 -3.976562 5.082031 -3.957031 4.9375 -3.9375 C 4.664062 -3.894531 4.441406 -3.828125 4.265625 -3.734375 C 4.097656 -3.640625 3.972656 -3.519531 3.890625 -3.375 C 3.804688 -3.238281 3.765625 -3.085938 3.765625 -2.921875 C 3.765625 -2.648438 3.859375 -2.441406 4.046875 -2.296875 C 4.242188 -2.148438 4.492188 -2.078125 4.796875 -2.078125 Z M 4.796875 -2.078125 "/></g></g></g><g fill="#ffffff" fill-opacity="1"><g transform="translate(364.901609, 234.742002)"><g><path d="M 6.765625 -9.828125 L 6.765625 -7.28125 L 0.28125 -7.28125 L 0.28125 -9.828125 Z M 1.53125 -12.1875 L 5.078125 -12.1875 L 5.078125 -3.15625 C 5.078125 -3.019531 5.097656 -2.90625 5.140625 -2.8125 C 5.191406 -2.726562 5.265625 -2.660156 5.359375 -2.609375 C 5.453125 -2.566406 5.578125 -2.546875 5.734375 -2.546875 C 5.835938 -2.546875 5.960938 -2.554688 6.109375 -2.578125 C 6.253906 -2.609375 6.359375 -2.632812 6.421875 -2.65625 L 6.9375 -0.171875 C 6.78125 -0.117188 6.554688 -0.0625 6.265625 0 C 5.972656 0.0703125 5.625 0.117188 5.21875 0.140625 C 4.414062 0.179688 3.738281 0.0976562 3.1875 -0.109375 C 2.632812 -0.316406 2.21875 -0.648438 1.9375 -1.109375 C 1.664062 -1.566406 1.53125 -2.140625 1.53125 -2.828125 Z M 1.53125 -12.1875 "/></g></g></g><g fill="#ffffff" fill-opacity="1"><g transform="translate(374.006962, 234.742002)"><g><path d="M 3.640625 0.15625 C 3.015625 0.15625 2.457031 0.0507812 1.96875 -0.15625 C 1.488281 -0.363281 1.113281 -0.675781 0.84375 -1.09375 C 0.570312 -1.519531 0.4375 -2.0625 0.4375 -2.71875 C 0.4375 -3.25 0.523438 -3.707031 0.703125 -4.09375 C 0.890625 -4.476562 1.144531 -4.789062 1.46875 -5.03125 C 1.800781 -5.269531 2.1875 -5.453125 2.625 -5.578125 C 3.0625 -5.710938 3.535156 -5.800781 4.046875 -5.84375 C 4.597656 -5.882812 5.039062 -5.9375 5.375 -6 C 5.707031 -6.0625 5.945312 -6.144531 6.09375 -6.25 C 6.25 -6.363281 6.328125 -6.515625 6.328125 -6.703125 L 6.328125 -6.734375 C 6.328125 -6.992188 6.226562 -7.191406 6.03125 -7.328125 C 5.832031 -7.460938 5.582031 -7.53125 5.28125 -7.53125 C 4.9375 -7.53125 4.660156 -7.457031 4.453125 -7.3125 C 4.242188 -7.164062 4.117188 -6.941406 4.078125 -6.640625 L 0.8125 -6.640625 C 0.863281 -7.234375 1.054688 -7.78125 1.390625 -8.28125 C 1.734375 -8.789062 2.226562 -9.195312 2.875 -9.5 C 3.53125 -9.8125 4.347656 -9.96875 5.328125 -9.96875 C 6.035156 -9.96875 6.664062 -9.882812 7.21875 -9.71875 C 7.78125 -9.550781 8.253906 -9.320312 8.640625 -9.03125 C 9.035156 -8.738281 9.335938 -8.394531 9.546875 -8 C 9.753906 -7.613281 9.859375 -7.191406 9.859375 -6.734375 L 9.859375 0 L 6.5625 0 L 6.5625 -1.390625 L 6.484375 -1.390625 C 6.285156 -1.015625 6.046875 -0.710938 5.765625 -0.484375 C 5.484375 -0.265625 5.164062 -0.101562 4.8125 0 C 4.457031 0.101562 4.066406 0.15625 3.640625 0.15625 Z M 4.796875 -2.078125 C 5.054688 -2.078125 5.304688 -2.128906 5.546875 -2.234375 C 5.785156 -2.347656 5.976562 -2.507812 6.125 -2.71875 C 6.28125 -2.925781 6.359375 -3.179688 6.359375 -3.484375 L 6.359375 -4.296875 C 6.265625 -4.265625 6.160156 -4.226562 6.046875 -4.1875 C 5.941406 -4.15625 5.832031 -4.125 5.71875 -4.09375 C 5.601562 -4.0625 5.476562 -4.03125 5.34375 -4 C 5.21875 -3.976562 5.082031 -3.957031 4.9375 -3.9375 C 4.664062 -3.894531 4.441406 -3.828125 4.265625 -3.734375 C 4.097656 -3.640625 3.972656 -3.519531 3.890625 -3.375 C 3.804688 -3.238281 3.765625 -3.085938 3.765625 -2.921875 C 3.765625 -2.648438 3.859375 -2.441406 4.046875 -2.296875 C 4.242188 -2.148438 4.492188 -2.078125 4.796875 -2.078125 Z M 4.796875 -2.078125 "/></g></g></g><g fill="#ffffff" fill-opacity="1"><g transform="translate(386.468319, 234.742002)"><g><path d="M 4.4375 -5.53125 L 4.4375 0 L 0.890625 0 L 0.890625 -9.828125 L 4.25 -9.828125 L 4.25 -7.96875 L 4.359375 -7.96875 C 4.566406 -8.59375 4.941406 -9.082031 5.484375 -9.4375 C 6.023438 -9.789062 6.65625 -9.96875 7.375 -9.96875 C 8.070312 -9.96875 8.675781 -9.804688 9.1875 -9.484375 C 9.707031 -9.171875 10.109375 -8.734375 10.390625 -8.171875 C 10.671875 -7.617188 10.8125 -6.988281 10.8125 -6.28125 L 10.8125 0 L 7.28125 0 L 7.28125 -5.53125 C 7.28125 -6.019531 7.15625 -6.398438 6.90625 -6.671875 C 6.65625 -6.953125 6.304688 -7.09375 5.859375 -7.09375 C 5.578125 -7.09375 5.328125 -7.03125 5.109375 -6.90625 C 4.890625 -6.78125 4.722656 -6.597656 4.609375 -6.359375 C 4.492188 -6.128906 4.4375 -5.851562 4.4375 -5.53125 Z M 4.4375 -5.53125 "/></g></g></g><g fill="#ffffff" fill-opacity="1"><g transform="translate(399.92879, 234.742002)"><g/></g></g><g fill="#ffffff" fill-opacity="1"><g transform="translate(405.3195, 234.742002)"><g><path d="M 8.609375 -13.109375 L 12.171875 -13.109375 L 12.171875 -4.71875 C 12.171875 -3.71875 11.929688 -2.851562 11.453125 -2.125 C 10.972656 -1.394531 10.304688 -0.832031 9.453125 -0.4375 C 8.609375 -0.0390625 7.625 0.15625 6.5 0.15625 C 5.375 0.15625 4.382812 -0.0390625 3.53125 -0.4375 C 2.6875 -0.832031 2.023438 -1.394531 1.546875 -2.125 C 1.078125 -2.851562 0.84375 -3.71875 0.84375 -4.71875 L 0.84375 -13.109375 L 4.40625 -13.109375 L 4.40625 -5.015625 C 4.40625 -4.609375 4.492188 -4.242188 4.671875 -3.921875 C 4.847656 -3.609375 5.09375 -3.363281 5.40625 -3.1875 C 5.726562 -3.007812 6.09375 -2.921875 6.5 -2.921875 C 6.914062 -2.921875 7.28125 -3.007812 7.59375 -3.1875 C 7.90625 -3.363281 8.148438 -3.609375 8.328125 -3.921875 C 8.515625 -4.242188 8.609375 -4.609375 8.609375 -5.015625 Z M 8.609375 -13.109375 "/></g></g></g><g fill="#ffffff" fill-opacity="1"><g transform="translate(420.137744, 234.742002)"><g><path d="M 9.890625 -6.640625 L 6.640625 -6.640625 C 6.617188 -6.835938 6.546875 -7.007812 6.421875 -7.15625 C 6.296875 -7.300781 6.132812 -7.410156 5.9375 -7.484375 C 5.75 -7.566406 5.535156 -7.609375 5.296875 -7.609375 C 4.992188 -7.609375 4.734375 -7.550781 4.515625 -7.4375 C 4.296875 -7.332031 4.191406 -7.175781 4.203125 -6.96875 C 4.191406 -6.820312 4.25 -6.6875 4.375 -6.5625 C 4.507812 -6.4375 4.765625 -6.34375 5.140625 -6.28125 L 7.140625 -5.921875 C 8.148438 -5.734375 8.898438 -5.421875 9.390625 -4.984375 C 9.890625 -4.554688 10.140625 -3.976562 10.140625 -3.25 C 10.140625 -2.550781 9.929688 -1.941406 9.515625 -1.421875 C 9.109375 -0.910156 8.546875 -0.515625 7.828125 -0.234375 C 7.117188 0.0351562 6.3125 0.171875 5.40625 0.171875 C 3.90625 0.171875 2.726562 -0.132812 1.875 -0.75 C 1.03125 -1.363281 0.5625 -2.171875 0.46875 -3.171875 L 3.96875 -3.171875 C 4.019531 -2.859375 4.175781 -2.617188 4.4375 -2.453125 C 4.695312 -2.285156 5.03125 -2.203125 5.4375 -2.203125 C 5.757812 -2.203125 6.023438 -2.253906 6.234375 -2.359375 C 6.441406 -2.472656 6.550781 -2.632812 6.5625 -2.84375 C 6.550781 -3.03125 6.453125 -3.175781 6.265625 -3.28125 C 6.085938 -3.394531 5.8125 -3.488281 5.4375 -3.5625 L 3.6875 -3.875 C 2.6875 -4.039062 1.9375 -4.367188 1.4375 -4.859375 C 0.9375 -5.359375 0.6875 -5.992188 0.6875 -6.765625 C 0.6875 -7.441406 0.867188 -8.019531 1.234375 -8.5 C 1.597656 -8.976562 2.117188 -9.34375 2.796875 -9.59375 C 3.484375 -9.84375 4.289062 -9.96875 5.21875 -9.96875 C 6.644531 -9.96875 7.769531 -9.671875 8.59375 -9.078125 C 9.414062 -8.492188 9.847656 -7.679688 9.890625 -6.640625 Z M 9.890625 -6.640625 "/></g></g></g><g fill="#ffffff" fill-opacity="1"><g transform="translate(432.547865, 234.742002)"><g><path d="M 3.640625 0.15625 C 3.015625 0.15625 2.457031 0.0507812 1.96875 -0.15625 C 1.488281 -0.363281 1.113281 -0.675781 0.84375 -1.09375 C 0.570312 -1.519531 0.4375 -2.0625 0.4375 -2.71875 C 0.4375 -3.25 0.523438 -3.707031 0.703125 -4.09375 C 0.890625 -4.476562 1.144531 -4.789062 1.46875 -5.03125 C 1.800781 -5.269531 2.1875 -5.453125 2.625 -5.578125 C 3.0625 -5.710938 3.535156 -5.800781 4.046875 -5.84375 C 4.597656 -5.882812 5.039062 -5.9375 5.375 -6 C 5.707031 -6.0625 5.945312 -6.144531 6.09375 -6.25 C 6.25 -6.363281 6.328125 -6.515625 6.328125 -6.703125 L 6.328125 -6.734375 C 6.328125 -6.992188 6.226562 -7.191406 6.03125 -7.328125 C 5.832031 -7.460938 5.582031 -7.53125 5.28125 -7.53125 C 4.9375 -7.53125 4.660156 -7.457031 4.453125 -7.3125 C 4.242188 -7.164062 4.117188 -6.941406 4.078125 -6.640625 L 0.8125 -6.640625 C 0.863281 -7.234375 1.054688 -7.78125 1.390625 -8.28125 C 1.734375 -8.789062 2.226562 -9.195312 2.875 -9.5 C 3.53125 -9.8125 4.347656 -9.96875 5.328125 -9.96875 C 6.035156 -9.96875 6.664062 -9.882812 7.21875 -9.71875 C 7.78125 -9.550781 8.253906 -9.320312 8.640625 -9.03125 C 9.035156 -8.738281 9.335938 -8.394531 9.546875 -8 C 9.753906 -7.613281 9.859375 -7.191406 9.859375 -6.734375 L 9.859375 0 L 6.5625 0 L 6.5625 -1.390625 L 6.484375 -1.390625 C 6.285156 -1.015625 6.046875 -0.710938 5.765625 -0.484375 C 5.484375 -0.265625 5.164062 -0.101562 4.8125 0 C 4.457031 0.101562 4.066406 0.15625 3.640625 0.15625 Z M 4.796875 -2.078125 C 5.054688 -2.078125 5.304688 -2.128906 5.546875 -2.234375 C 5.785156 -2.347656 5.976562 -2.507812 6.125 -2.71875 C 6.28125 -2.925781 6.359375 -3.179688 6.359375 -3.484375 L 6.359375 -4.296875 C 6.265625 -4.265625 6.160156 -4.226562 6.046875 -4.1875 C 5.941406 -4.15625 5.832031 -4.125 5.71875 -4.09375 C 5.601562 -4.0625 5.476562 -4.03125 5.34375 -4 C 5.21875 -3.976562 5.082031 -3.957031 4.9375 -3.9375 C 4.664062 -3.894531 4.441406 -3.828125 4.265625 -3.734375 C 4.097656 -3.640625 3.972656 -3.519531 3.890625 -3.375 C 3.804688 -3.238281 3.765625 -3.085938 3.765625 -2.921875 C 3.765625 -2.648438 3.859375 -2.441406 4.046875 -2.296875 C 4.242188 -2.148438 4.492188 -2.078125 4.796875 -2.078125 Z M 4.796875 -2.078125 "/></g></g></g><g fill="#ffffff" fill-opacity="1"><g transform="translate(445.009222, 234.742002)"><g><path d="M 4.4375 -5.53125 L 4.4375 0 L 0.890625 0 L 0.890625 -13.109375 L 4.296875 -13.109375 L 4.296875 -7.96875 L 4.40625 -7.96875 C 4.625 -8.59375 4.988281 -9.082031 5.5 -9.4375 C 6.019531 -9.789062 6.644531 -9.96875 7.375 -9.96875 C 8.070312 -9.96875 8.675781 -9.804688 9.1875 -9.484375 C 9.707031 -9.171875 10.109375 -8.734375 10.390625 -8.171875 C 10.671875 -7.617188 10.8125 -6.988281 10.8125 -6.28125 L 10.8125 0 L 7.28125 0 L 7.28125 -5.53125 C 7.28125 -6.019531 7.15625 -6.398438 6.90625 -6.671875 C 6.664062 -6.953125 6.316406 -7.09375 5.859375 -7.09375 C 5.578125 -7.09375 5.328125 -7.03125 5.109375 -6.90625 C 4.898438 -6.78125 4.734375 -6.597656 4.609375 -6.359375 C 4.492188 -6.128906 4.4375 -5.851562 4.4375 -5.53125 Z M 4.4375 -5.53125 "/></g></g></g><g fill="#ffffff" fill-opacity="1"><g transform="translate(458.469693, 234.742002)"><g><path d="M 3.640625 0.15625 C 3.015625 0.15625 2.457031 0.0507812 1.96875 -0.15625 C 1.488281 -0.363281 1.113281 -0.675781 0.84375 -1.09375 C 0.570312 -1.519531 0.4375 -2.0625 0.4375 -2.71875 C 0.4375 -3.25 0.523438 -3.707031 0.703125 -4.09375 C 0.890625 -4.476562 1.144531 -4.789062 1.46875 -5.03125 C 1.800781 -5.269531 2.1875 -5.453125 2.625 -5.578125 C 3.0625 -5.710938 3.535156 -5.800781 4.046875 -5.84375 C 4.597656 -5.882812 5.039062 -5.9375 5.375 -6 C 5.707031 -6.0625 5.945312 -6.144531 6.09375 -6.25 C 6.25 -6.363281 6.328125 -6.515625 6.328125 -6.703125 L 6.328125 -6.734375 C 6.328125 -6.992188 6.226562 -7.191406 6.03125 -7.328125 C 5.832031 -7.460938 5.582031 -7.53125 5.28125 -7.53125 C 4.9375 -7.53125 4.660156 -7.457031 4.453125 -7.3125 C 4.242188 -7.164062 4.117188 -6.941406 4.078125 -6.640625 L 0.8125 -6.640625 C 0.863281 -7.234375 1.054688 -7.78125 1.390625 -8.28125 C 1.734375 -8.789062 2.226562 -9.195312 2.875 -9.5 C 3.53125 -9.8125 4.347656 -9.96875 5.328125 -9.96875 C 6.035156 -9.96875 6.664062 -9.882812 7.21875 -9.71875 C 7.78125 -9.550781 8.253906 -9.320312 8.640625 -9.03125 C 9.035156 -8.738281 9.335938 -8.394531 9.546875 -8 C 9.753906 -7.613281 9.859375 -7.191406 9.859375 -6.734375 L 9.859375 0 L 6.5625 0 L 6.5625 -1.390625 L 6.484375 -1.390625 C 6.285156 -1.015625 6.046875 -0.710938 5.765625 -0.484375 C 5.484375 -0.265625 5.164062 -0.101562 4.8125 0 C 4.457031 0.101562 4.066406 0.15625 3.640625 0.15625 Z M 4.796875 -2.078125 C 5.054688 -2.078125 5.304688 -2.128906 5.546875 -2.234375 C 5.785156 -2.347656 5.976562 -2.507812 6.125 -2.71875 C 6.28125 -2.925781 6.359375 -3.179688 6.359375 -3.484375 L 6.359375 -4.296875 C 6.265625 -4.265625 6.160156 -4.226562 6.046875 -4.1875 C 5.941406 -4.15625 5.832031 -4.125 5.71875 -4.09375 C 5.601562 -4.0625 5.476562 -4.03125 5.34375 -4 C 5.21875 -3.976562 5.082031 -3.957031 4.9375 -3.9375 C 4.664062 -3.894531 4.441406 -3.828125 4.265625 -3.734375 C 4.097656 -3.640625 3.972656 -3.519531 3.890625 -3.375 C 3.804688 -3.238281 3.765625 -3.085938 3.765625 -2.921875 C 3.765625 -2.648438 3.859375 -2.441406 4.046875 -2.296875 C 4.242188 -2.148438 4.492188 -2.078125 4.796875 -2.078125 Z M 4.796875 -2.078125 "/></g></g></g><g fill="#ffffff" fill-opacity="1"><g transform="translate(470.931049, 234.742002)"><g/></g></g><g fill="#ffffff" fill-opacity="1"><g transform="translate(476.321754, 234.742002)"><g><path d="M 0.84375 0 L 0.84375 -13.109375 L 6.5 -13.109375 C 7.476562 -13.109375 8.332031 -12.914062 9.0625 -12.53125 C 9.789062 -12.15625 10.359375 -11.617188 10.765625 -10.921875 C 11.171875 -10.222656 11.375 -9.410156 11.375 -8.484375 C 11.375 -7.535156 11.164062 -6.71875 10.75 -6.03125 C 10.332031 -5.34375 9.75 -4.8125 9 -4.4375 C 8.25 -4.070312 7.375 -3.890625 6.375 -3.890625 L 3 -3.890625 L 3 -6.65625 L 5.65625 -6.65625 C 6.070312 -6.65625 6.425781 -6.726562 6.71875 -6.875 C 7.019531 -7.019531 7.25 -7.226562 7.40625 -7.5 C 7.570312 -7.78125 7.65625 -8.109375 7.65625 -8.484375 C 7.65625 -8.859375 7.570312 -9.175781 7.40625 -9.4375 C 7.25 -9.707031 7.019531 -9.910156 6.71875 -10.046875 C 6.425781 -10.191406 6.070312 -10.265625 5.65625 -10.265625 L 4.40625 -10.265625 L 4.40625 0 Z M 0.84375 0 "/></g></g></g><g fill="#ffffff" fill-opacity="1"><g transform="translate(489.961554, 234.742002)"><g><path d="M 5.609375 0.171875 C 4.554688 0.171875 3.648438 -0.0234375 2.890625 -0.421875 C 2.140625 -0.828125 1.554688 -1.40625 1.140625 -2.15625 C 0.734375 -2.914062 0.53125 -3.828125 0.53125 -4.890625 C 0.53125 -5.910156 0.734375 -6.800781 1.140625 -7.5625 C 1.554688 -8.320312 2.140625 -8.910156 2.890625 -9.328125 C 3.640625 -9.753906 4.519531 -9.96875 5.53125 -9.96875 C 6.269531 -9.96875 6.941406 -9.847656 7.546875 -9.609375 C 8.148438 -9.378906 8.664062 -9.046875 9.09375 -8.609375 C 9.519531 -8.171875 9.847656 -7.640625 10.078125 -7.015625 C 10.304688 -6.398438 10.421875 -5.703125 10.421875 -4.921875 L 10.421875 -4.09375 L 1.640625 -4.09375 L 1.640625 -6.046875 L 7.171875 -6.046875 C 7.171875 -6.328125 7.097656 -6.570312 6.953125 -6.78125 C 6.816406 -7 6.628906 -7.171875 6.390625 -7.296875 C 6.160156 -7.421875 5.898438 -7.484375 5.609375 -7.484375 C 5.328125 -7.484375 5.066406 -7.421875 4.828125 -7.296875 C 4.585938 -7.171875 4.394531 -7 4.25 -6.78125 C 4.101562 -6.570312 4.023438 -6.328125 4.015625 -6.046875 L 4.015625 -3.9375 C 4.015625 -3.625 4.082031 -3.34375 4.21875 -3.09375 C 4.351562 -2.851562 4.539062 -2.660156 4.78125 -2.515625 C 5.03125 -2.378906 5.332031 -2.3125 5.6875 -2.3125 C 5.925781 -2.3125 6.144531 -2.34375 6.34375 -2.40625 C 6.550781 -2.476562 6.726562 -2.578125 6.875 -2.703125 C 7.019531 -2.835938 7.128906 -2.992188 7.203125 -3.171875 L 10.421875 -3.171875 C 10.316406 -2.492188 10.054688 -1.898438 9.640625 -1.390625 C 9.222656 -0.890625 8.671875 -0.503906 7.984375 -0.234375 C 7.304688 0.0351562 6.515625 0.171875 5.609375 0.171875 Z M 5.609375 0.171875 "/></g></g></g><g fill="#ffffff" fill-opacity="1"><g transform="translate(502.730344, 234.742002)"><g><path d="M 4.453125 0.125 C 3.753906 0.125 3.109375 -0.0546875 2.515625 -0.421875 C 1.929688 -0.785156 1.460938 -1.34375 1.109375 -2.09375 C 0.765625 -2.84375 0.59375 -3.785156 0.59375 -4.921875 C 0.59375 -6.109375 0.773438 -7.070312 1.140625 -7.8125 C 1.515625 -8.550781 1.992188 -9.09375 2.578125 -9.4375 C 3.160156 -9.789062 3.78125 -9.96875 4.4375 -9.96875 C 4.914062 -9.96875 5.335938 -9.878906 5.703125 -9.703125 C 6.078125 -9.535156 6.382812 -9.3125 6.625 -9.03125 C 6.875 -8.757812 7.066406 -8.457031 7.203125 -8.125 L 7.25 -8.125 L 7.25 -13.109375 L 10.78125 -13.109375 L 10.78125 0 L 7.28125 0 L 7.28125 -1.609375 L 7.203125 -1.609375 C 7.066406 -1.273438 6.867188 -0.976562 6.609375 -0.71875 C 6.359375 -0.457031 6.050781 -0.25 5.6875 -0.09375 C 5.320312 0.0507812 4.910156 0.125 4.453125 0.125 Z M 5.765625 -2.59375 C 6.085938 -2.59375 6.363281 -2.6875 6.59375 -2.875 C 6.832031 -3.0625 7.015625 -3.328125 7.140625 -3.671875 C 7.265625 -4.023438 7.328125 -4.441406 7.328125 -4.921875 C 7.328125 -5.398438 7.265625 -5.8125 7.140625 -6.15625 C 7.015625 -6.507812 6.832031 -6.78125 6.59375 -6.96875 C 6.363281 -7.15625 6.085938 -7.25 5.765625 -7.25 C 5.441406 -7.25 5.164062 -7.15625 4.9375 -6.96875 C 4.707031 -6.78125 4.53125 -6.507812 4.40625 -6.15625 C 4.28125 -5.8125 4.21875 -5.398438 4.21875 -4.921875 C 4.21875 -4.429688 4.28125 -4.007812 4.40625 -3.65625 C 4.53125 -3.3125 4.707031 -3.046875 4.9375 -2.859375 C 5.164062 -2.679688 5.441406 -2.59375 5.765625 -2.59375 Z M 5.765625 -2.59375 "/></g></g></g><g fill="#ffffff" fill-opacity="1"><g transform="translate(516.165203, 234.742002)"><g><path d="M 3.640625 0.15625 C 3.015625 0.15625 2.457031 0.0507812 1.96875 -0.15625 C 1.488281 -0.363281 1.113281 -0.675781 0.84375 -1.09375 C 0.570312 -1.519531 0.4375 -2.0625 0.4375 -2.71875 C 0.4375 -3.25 0.523438 -3.707031 0.703125 -4.09375 C 0.890625 -4.476562 1.144531 -4.789062 1.46875 -5.03125 C 1.800781 -5.269531 2.1875 -5.453125 2.625 -5.578125 C 3.0625 -5.710938 3.535156 -5.800781 4.046875 -5.84375 C 4.597656 -5.882812 5.039062 -5.9375 5.375 -6 C 5.707031 -6.0625 5.945312 -6.144531 6.09375 -6.25 C 6.25 -6.363281 6.328125 -6.515625 6.328125 -6.703125 L 6.328125 -6.734375 C 6.328125 -6.992188 6.226562 -7.191406 6.03125 -7.328125 C 5.832031 -7.460938 5.582031 -7.53125 5.28125 -7.53125 C 4.9375 -7.53125 4.660156 -7.457031 4.453125 -7.3125 C 4.242188 -7.164062 4.117188 -6.941406 4.078125 -6.640625 L 0.8125 -6.640625 C 0.863281 -7.234375 1.054688 -7.78125 1.390625 -8.28125 C 1.734375 -8.789062 2.226562 -9.195312 2.875 -9.5 C 3.53125 -9.8125 4.347656 -9.96875 5.328125 -9.96875 C 6.035156 -9.96875 6.664062 -9.882812 7.21875 -9.71875 C 7.78125 -9.550781 8.253906 -9.320312 8.640625 -9.03125 C 9.035156 -8.738281 9.335938 -8.394531 9.546875 -8 C 9.753906 -7.613281 9.859375 -7.191406 9.859375 -6.734375 L 9.859375 0 L 6.5625 0 L 6.5625 -1.390625 L 6.484375 -1.390625 C 6.285156 -1.015625 6.046875 -0.710938 5.765625 -0.484375 C 5.484375 -0.265625 5.164062 -0.101562 4.8125 0 C 4.457031 0.101562 4.066406 0.15625 3.640625 0.15625 Z M 4.796875 -2.078125 C 5.054688 -2.078125 5.304688 -2.128906 5.546875 -2.234375 C 5.785156 -2.347656 5.976562 -2.507812 6.125 -2.71875 C 6.28125 -2.925781 6.359375 -3.179688 6.359375 -3.484375 L 6.359375 -4.296875 C 6.265625 -4.265625 6.160156 -4.226562 6.046875 -4.1875 C 5.941406 -4.15625 5.832031 -4.125 5.71875 -4.09375 C 5.601562 -4.0625 5.476562 -4.03125 5.34375 -4 C 5.21875 -3.976562 5.082031 -3.957031 4.9375 -3.9375 C 4.664062 -3.894531 4.441406 -3.828125 4.265625 -3.734375 C 4.097656 -3.640625 3.972656 -3.519531 3.890625 -3.375 C 3.804688 -3.238281 3.765625 -3.085938 3.765625 -2.921875 C 3.765625 -2.648438 3.859375 -2.441406 4.046875 -2.296875 C 4.242188 -2.148438 4.492188 -2.078125 4.796875 -2.078125 Z M 4.796875 -2.078125 "/></g></g></g><g fill="#ffffff" fill-opacity="1"><g transform="translate(528.62656, 234.742002)"><g><path d="M 5.640625 3.890625 C 4.648438 3.890625 3.800781 3.75 3.09375 3.46875 C 2.394531 3.1875 1.851562 2.800781 1.46875 2.3125 C 1.082031 1.832031 0.863281 1.273438 0.8125 0.640625 L 4.21875 0.640625 C 4.257812 0.847656 4.347656 1.015625 4.484375 1.140625 C 4.617188 1.273438 4.789062 1.367188 5 1.421875 C 5.21875 1.484375 5.460938 1.515625 5.734375 1.515625 C 6.191406 1.515625 6.570312 1.398438 6.875 1.171875 C 7.175781 0.953125 7.328125 0.550781 7.328125 -0.03125 L 7.328125 -1.6875 L 7.21875 -1.6875 C 7.09375 -1.351562 6.894531 -1.070312 6.625 -0.84375 C 6.363281 -0.613281 6.046875 -0.4375 5.671875 -0.3125 C 5.304688 -0.1875 4.898438 -0.125 4.453125 -0.125 C 3.753906 -0.125 3.109375 -0.285156 2.515625 -0.609375 C 1.929688 -0.929688 1.460938 -1.445312 1.109375 -2.15625 C 0.765625 -2.863281 0.59375 -3.785156 0.59375 -4.921875 C 0.59375 -6.109375 0.773438 -7.070312 1.140625 -7.8125 C 1.515625 -8.550781 1.992188 -9.09375 2.578125 -9.4375 C 3.160156 -9.789062 3.78125 -9.96875 4.4375 -9.96875 C 4.914062 -9.96875 5.335938 -9.878906 5.703125 -9.703125 C 6.078125 -9.535156 6.382812 -9.3125 6.625 -9.03125 C 6.875 -8.757812 7.066406 -8.457031 7.203125 -8.125 L 7.28125 -8.125 L 7.28125 -9.828125 L 10.8125 -9.828125 L 10.8125 -0.03125 C 10.8125 0.800781 10.59375 1.507812 10.15625 2.09375 C 9.726562 2.675781 9.125 3.117188 8.34375 3.421875 C 7.570312 3.734375 6.671875 3.890625 5.640625 3.890625 Z M 5.765625 -2.640625 C 6.085938 -2.640625 6.363281 -2.726562 6.59375 -2.90625 C 6.832031 -3.09375 7.015625 -3.351562 7.140625 -3.6875 C 7.265625 -4.03125 7.328125 -4.441406 7.328125 -4.921875 C 7.328125 -5.398438 7.265625 -5.8125 7.140625 -6.15625 C 7.015625 -6.507812 6.832031 -6.78125 6.59375 -6.96875 C 6.363281 -7.15625 6.085938 -7.25 5.765625 -7.25 C 5.441406 -7.25 5.164062 -7.15625 4.9375 -6.96875 C 4.707031 -6.78125 4.53125 -6.507812 4.40625 -6.15625 C 4.28125 -5.8125 4.21875 -5.398438 4.21875 -4.921875 C 4.21875 -4.429688 4.28125 -4.015625 4.40625 -3.671875 C 4.53125 -3.335938 4.707031 -3.082031 4.9375 -2.90625 C 5.164062 -2.726562 5.441406 -2.640625 5.765625 -2.640625 Z M 5.765625 -2.640625 "/></g></g></g><g fill="#ffffff" fill-opacity="1"><g transform="translate(542.138278, 234.742002)"><g><path d="M 3.640625 0.15625 C 3.015625 0.15625 2.457031 0.0507812 1.96875 -0.15625 C 1.488281 -0.363281 1.113281 -0.675781 0.84375 -1.09375 C 0.570312 -1.519531 0.4375 -2.0625 0.4375 -2.71875 C 0.4375 -3.25 0.523438 -3.707031 0.703125 -4.09375 C 0.890625 -4.476562 1.144531 -4.789062 1.46875 -5.03125 C 1.800781 -5.269531 2.1875 -5.453125 2.625 -5.578125 C 3.0625 -5.710938 3.535156 -5.800781 4.046875 -5.84375 C 4.597656 -5.882812 5.039062 -5.9375 5.375 -6 C 5.707031 -6.0625 5.945312 -6.144531 6.09375 -6.25 C 6.25 -6.363281 6.328125 -6.515625 6.328125 -6.703125 L 6.328125 -6.734375 C 6.328125 -6.992188 6.226562 -7.191406 6.03125 -7.328125 C 5.832031 -7.460938 5.582031 -7.53125 5.28125 -7.53125 C 4.9375 -7.53125 4.660156 -7.457031 4.453125 -7.3125 C 4.242188 -7.164062 4.117188 -6.941406 4.078125 -6.640625 L 0.8125 -6.640625 C 0.863281 -7.234375 1.054688 -7.78125 1.390625 -8.28125 C 1.734375 -8.789062 2.226562 -9.195312 2.875 -9.5 C 3.53125 -9.8125 4.347656 -9.96875 5.328125 -9.96875 C 6.035156 -9.96875 6.664062 -9.882812 7.21875 -9.71875 C 7.78125 -9.550781 8.253906 -9.320312 8.640625 -9.03125 C 9.035156 -8.738281 9.335938 -8.394531 9.546875 -8 C 9.753906 -7.613281 9.859375 -7.191406 9.859375 -6.734375 L 9.859375 0 L 6.5625 0 L 6.5625 -1.390625 L 6.484375 -1.390625 C 6.285156 -1.015625 6.046875 -0.710938 5.765625 -0.484375 C 5.484375 -0.265625 5.164062 -0.101562 4.8125 0 C 4.457031 0.101562 4.066406 0.15625 3.640625 0.15625 Z M 4.796875 -2.078125 C 5.054688 -2.078125 5.304688 -2.128906 5.546875 -2.234375 C 5.785156 -2.347656 5.976562 -2.507812 6.125 -2.71875 C 6.28125 -2.925781 6.359375 -3.179688 6.359375 -3.484375 L 6.359375 -4.296875 C 6.265625 -4.265625 6.160156 -4.226562 6.046875 -4.1875 C 5.941406 -4.15625 5.832031 -4.125 5.71875 -4.09375 C 5.601562 -4.0625 5.476562 -4.03125 5.34375 -4 C 5.21875 -3.976562 5.082031 -3.957031 4.9375 -3.9375 C 4.664062 -3.894531 4.441406 -3.828125 4.265625 -3.734375 C 4.097656 -3.640625 3.972656 -3.519531 3.890625 -3.375 C 3.804688 -3.238281 3.765625 -3.085938 3.765625 -2.921875 C 3.765625 -2.648438 3.859375 -2.441406 4.046875 -2.296875 C 4.242188 -2.148438 4.492188 -2.078125 4.796875 -2.078125 Z M 4.796875 -2.078125 "/></g></g></g><g fill="#ffffff" fill-opacity="1"><g transform="translate(554.599634, 234.742002)"><g><path d="M 4.4375 -5.53125 L 4.4375 0 L 0.890625 0 L 0.890625 -9.828125 L 4.25 -9.828125 L 4.25 -7.96875 L 4.359375 -7.96875 C 4.566406 -8.59375 4.941406 -9.082031 5.484375 -9.4375 C 6.023438 -9.789062 6.65625 -9.96875 7.375 -9.96875 C 8.070312 -9.96875 8.675781 -9.804688 9.1875 -9.484375 C 9.707031 -9.171875 10.109375 -8.734375 10.390625 -8.171875 C 10.671875 -7.617188 10.8125 -6.988281 10.8125 -6.28125 L 10.8125 0 L 7.28125 0 L 7.28125 -5.53125 C 7.28125 -6.019531 7.15625 -6.398438 6.90625 -6.671875 C 6.65625 -6.953125 6.304688 -7.09375 5.859375 -7.09375 C 5.578125 -7.09375 5.328125 -7.03125 5.109375 -6.90625 C 4.890625 -6.78125 4.722656 -6.597656 4.609375 -6.359375 C 4.492188 -6.128906 4.4375 -5.851562 4.4375 -5.53125 Z M 4.4375 -5.53125 "/></g></g></g><g fill="#ffffff" fill-opacity="1"><g transform="translate(568.060105, 234.742002)"><g><path d="M 5.640625 3.890625 C 4.648438 3.890625 3.800781 3.75 3.09375 3.46875 C 2.394531 3.1875 1.851562 2.800781 1.46875 2.3125 C 1.082031 1.832031 0.863281 1.273438 0.8125 0.640625 L 4.21875 0.640625 C 4.257812 0.847656 4.347656 1.015625 4.484375 1.140625 C 4.617188 1.273438 4.789062 1.367188 5 1.421875 C 5.21875 1.484375 5.460938 1.515625 5.734375 1.515625 C 6.191406 1.515625 6.570312 1.398438 6.875 1.171875 C 7.175781 0.953125 7.328125 0.550781 7.328125 -0.03125 L 7.328125 -1.6875 L 7.21875 -1.6875 C 7.09375 -1.351562 6.894531 -1.070312 6.625 -0.84375 C 6.363281 -0.613281 6.046875 -0.4375 5.671875 -0.3125 C 5.304688 -0.1875 4.898438 -0.125 4.453125 -0.125 C 3.753906 -0.125 3.109375 -0.285156 2.515625 -0.609375 C 1.929688 -0.929688 1.460938 -1.445312 1.109375 -2.15625 C 0.765625 -2.863281 0.59375 -3.785156 0.59375 -4.921875 C 0.59375 -6.109375 0.773438 -7.070312 1.140625 -7.8125 C 1.515625 -8.550781 1.992188 -9.09375 2.578125 -9.4375 C 3.160156 -9.789062 3.78125 -9.96875 4.4375 -9.96875 C 4.914062 -9.96875 5.335938 -9.878906 5.703125 -9.703125 C 6.078125 -9.535156 6.382812 -9.3125 6.625 -9.03125 C 6.875 -8.757812 7.066406 -8.457031 7.203125 -8.125 L 7.28125 -8.125 L 7.28125 -9.828125 L 10.8125 -9.828125 L 10.8125 -0.03125 C 10.8125 0.800781 10.59375 1.507812 10.15625 2.09375 C 9.726562 2.675781 9.125 3.117188 8.34375 3.421875 C 7.570312 3.734375 6.671875 3.890625 5.640625 3.890625 Z M 5.765625 -2.640625 C 6.085938 -2.640625 6.363281 -2.726562 6.59375 -2.90625 C 6.832031 -3.09375 7.015625 -3.351562 7.140625 -3.6875 C 7.265625 -4.03125 7.328125 -4.441406 7.328125 -4.921875 C 7.328125 -5.398438 7.265625 -5.8125 7.140625 -6.15625 C 7.015625 -6.507812 6.832031 -6.78125 6.59375 -6.96875 C 6.363281 -7.15625 6.085938 -7.25 5.765625 -7.25 C 5.441406 -7.25 5.164062 -7.15625 4.9375 -6.96875 C 4.707031 -6.78125 4.53125 -6.507812 4.40625 -6.15625 C 4.28125 -5.8125 4.21875 -5.398438 4.21875 -4.921875 C 4.21875 -4.429688 4.28125 -4.015625 4.40625 -3.671875 C 4.53125 -3.335938 4.707031 -3.082031 4.9375 -2.90625 C 5.164062 -2.726562 5.441406 -2.640625 5.765625 -2.640625 Z M 5.765625 -2.640625 "/></g></g></g><g fill="#ffffff" fill-opacity="1"><g transform="translate(581.571823, 234.742002)"><g/></g></g><g fill="#ffffff" fill-opacity="1"><g transform="translate(586.962539, 234.742002)"><g><path d="M 4.4375 -13.109375 L 7.125 -3.875 L 7.21875 -3.875 L 9.90625 -13.109375 L 13.9375 -13.109375 L 9.609375 0 L 4.734375 0 L 0.40625 -13.109375 Z M 4.4375 -13.109375 "/></g></g></g><g fill="#ffffff" fill-opacity="1"><g transform="translate(603.112944, 234.742002)"><g><path d="M 3.640625 0.15625 C 3.015625 0.15625 2.457031 0.0507812 1.96875 -0.15625 C 1.488281 -0.363281 1.113281 -0.675781 0.84375 -1.09375 C 0.570312 -1.519531 0.4375 -2.0625 0.4375 -2.71875 C 0.4375 -3.25 0.523438 -3.707031 0.703125 -4.09375 C 0.890625 -4.476562 1.144531 -4.789062 1.46875 -5.03125 C 1.800781 -5.269531 2.1875 -5.453125 2.625 -5.578125 C 3.0625 -5.710938 3.535156 -5.800781 4.046875 -5.84375 C 4.597656 -5.882812 5.039062 -5.9375 5.375 -6 C 5.707031 -6.0625 5.945312 -6.144531 6.09375 -6.25 C 6.25 -6.363281 6.328125 -6.515625 6.328125 -6.703125 L 6.328125 -6.734375 C 6.328125 -6.992188 6.226562 -7.191406 6.03125 -7.328125 C 5.832031 -7.460938 5.582031 -7.53125 5.28125 -7.53125 C 4.9375 -7.53125 4.660156 -7.457031 4.453125 -7.3125 C 4.242188 -7.164062 4.117188 -6.941406 4.078125 -6.640625 L 0.8125 -6.640625 C 0.863281 -7.234375 1.054688 -7.78125 1.390625 -8.28125 C 1.734375 -8.789062 2.226562 -9.195312 2.875 -9.5 C 3.53125 -9.8125 4.347656 -9.96875 5.328125 -9.96875 C 6.035156 -9.96875 6.664062 -9.882812 7.21875 -9.71875 C 7.78125 -9.550781 8.253906 -9.320312 8.640625 -9.03125 C 9.035156 -8.738281 9.335938 -8.394531 9.546875 -8 C 9.753906 -7.613281 9.859375 -7.191406 9.859375 -6.734375 L 9.859375 0 L 6.5625 0 L 6.5625 -1.390625 L 6.484375 -1.390625 C 6.285156 -1.015625 6.046875 -0.710938 5.765625 -0.484375 C 5.484375 -0.265625 5.164062 -0.101562 4.8125 0 C 4.457031 0.101562 4.066406 0.15625 3.640625 0.15625 Z M 4.796875 -2.078125 C 5.054688 -2.078125 5.304688 -2.128906 5.546875 -2.234375 C 5.785156 -2.347656 5.976562 -2.507812 6.125 -2.71875 C 6.28125 -2.925781 6.359375 -3.179688 6.359375 -3.484375 L 6.359375 -4.296875 C 6.265625 -4.265625 6.160156 -4.226562 6.046875 -4.1875 C 5.941406 -4.15625 5.832031 -4.125 5.71875 -4.09375 C 5.601562 -4.0625 5.476562 -4.03125 5.34375 -4 C 5.21875 -3.976562 5.082031 -3.957031 4.9375 -3.9375 C 4.664062 -3.894531 4.441406 -3.828125 4.265625 -3.734375 C 4.097656 -3.640625 3.972656 -3.519531 3.890625 -3.375 C 3.804688 -3.238281 3.765625 -3.085938 3.765625 -2.921875 C 3.765625 -2.648438 3.859375 -2.441406 4.046875 -2.296875 C 4.242188 -2.148438 4.492188 -2.078125 4.796875 -2.078125 Z M 4.796875 -2.078125 "/></g></g></g><g fill="#ffffff" fill-opacity="1"><g transform="translate(615.574301, 234.742002)"><g><path d="M 4.4375 -13.109375 L 4.4375 0 L 0.890625 0 L 0.890625 -13.109375 Z M 4.4375 -13.109375 "/></g></g></g><g fill="#ffffff" fill-opacity="1"><g transform="translate(622.707059, 234.742002)"><g><path d="M 7.28125 -4.296875 L 7.28125 -9.828125 L 10.8125 -9.828125 L 10.8125 0 L 7.453125 0 L 7.453125 -1.875 L 7.34375 -1.875 C 7.132812 -1.238281 6.765625 -0.742188 6.234375 -0.390625 C 5.703125 -0.046875 5.066406 0.125 4.328125 0.125 C 3.640625 0.125 3.035156 -0.03125 2.515625 -0.34375 C 2.003906 -0.65625 1.609375 -1.085938 1.328125 -1.640625 C 1.046875 -2.203125 0.898438 -2.84375 0.890625 -3.5625 L 0.890625 -9.828125 L 4.4375 -9.828125 L 4.4375 -4.296875 C 4.4375 -3.816406 4.554688 -3.4375 4.796875 -3.15625 C 5.046875 -2.875 5.394531 -2.734375 5.84375 -2.734375 C 6.132812 -2.734375 6.382812 -2.796875 6.59375 -2.921875 C 6.8125 -3.054688 6.976562 -3.238281 7.09375 -3.46875 C 7.21875 -3.695312 7.28125 -3.972656 7.28125 -4.296875 Z M 7.28125 -4.296875 "/></g></g></g><g fill="#ffffff" fill-opacity="1"><g transform="translate(636.218777, 234.742002)"><g><path d="M 6.765625 -9.828125 L 6.765625 -7.28125 L 0.28125 -7.28125 L 0.28125 -9.828125 Z M 1.53125 -12.1875 L 5.078125 -12.1875 L 5.078125 -3.15625 C 5.078125 -3.019531 5.097656 -2.90625 5.140625 -2.8125 C 5.191406 -2.726562 5.265625 -2.660156 5.359375 -2.609375 C 5.453125 -2.566406 5.578125 -2.546875 5.734375 -2.546875 C 5.835938 -2.546875 5.960938 -2.554688 6.109375 -2.578125 C 6.253906 -2.609375 6.359375 -2.632812 6.421875 -2.65625 L 6.9375 -0.171875 C 6.78125 -0.117188 6.554688 -0.0625 6.265625 0 C 5.972656 0.0703125 5.625 0.117188 5.21875 0.140625 C 4.414062 0.179688 3.738281 0.0976562 3.1875 -0.109375 C 2.632812 -0.316406 2.21875 -0.648438 1.9375 -1.109375 C 1.664062 -1.566406 1.53125 -2.140625 1.53125 -2.828125 Z M 1.53125 -12.1875 "/></g></g></g><g fill="#ffffff" fill-opacity="1"><g transform="translate(645.324131, 234.742002)"><g><path d="M 3.640625 0.15625 C 3.015625 0.15625 2.457031 0.0507812 1.96875 -0.15625 C 1.488281 -0.363281 1.113281 -0.675781 0.84375 -1.09375 C 0.570312 -1.519531 0.4375 -2.0625 0.4375 -2.71875 C 0.4375 -3.25 0.523438 -3.707031 0.703125 -4.09375 C 0.890625 -4.476562 1.144531 -4.789062 1.46875 -5.03125 C 1.800781 -5.269531 2.1875 -5.453125 2.625 -5.578125 C 3.0625 -5.710938 3.535156 -5.800781 4.046875 -5.84375 C 4.597656 -5.882812 5.039062 -5.9375 5.375 -6 C 5.707031 -6.0625 5.945312 -6.144531 6.09375 -6.25 C 6.25 -6.363281 6.328125 -6.515625 6.328125 -6.703125 L 6.328125 -6.734375 C 6.328125 -6.992188 6.226562 -7.191406 6.03125 -7.328125 C 5.832031 -7.460938 5.582031 -7.53125 5.28125 -7.53125 C 4.9375 -7.53125 4.660156 -7.457031 4.453125 -7.3125 C 4.242188 -7.164062 4.117188 -6.941406 4.078125 -6.640625 L 0.8125 -6.640625 C 0.863281 -7.234375 1.054688 -7.78125 1.390625 -8.28125 C 1.734375 -8.789062 2.226562 -9.195312 2.875 -9.5 C 3.53125 -9.8125 4.347656 -9.96875 5.328125 -9.96875 C 6.035156 -9.96875 6.664062 -9.882812 7.21875 -9.71875 C 7.78125 -9.550781 8.253906 -9.320312 8.640625 -9.03125 C 9.035156 -8.738281 9.335938 -8.394531 9.546875 -8 C 9.753906 -7.613281 9.859375 -7.191406 9.859375 -6.734375 L 9.859375 0 L 6.5625 0 L 6.5625 -1.390625 L 6.484375 -1.390625 C 6.285156 -1.015625 6.046875 -0.710938 5.765625 -0.484375 C 5.484375 -0.265625 5.164062 -0.101562 4.8125 0 C 4.457031 0.101562 4.066406 0.15625 3.640625 0.15625 Z M 4.796875 -2.078125 C 5.054688 -2.078125 5.304688 -2.128906 5.546875 -2.234375 C 5.785156 -2.347656 5.976562 -2.507812 6.125 -2.71875 C 6.28125 -2.925781 6.359375 -3.179688 6.359375 -3.484375 L 6.359375 -4.296875 C 6.265625 -4.265625 6.160156 -4.226562 6.046875 -4.1875 C 5.941406 -4.15625 5.832031 -4.125 5.71875 -4.09375 C 5.601562 -4.0625 5.476562 -4.03125 5.34375 -4 C 5.21875 -3.976562 5.082031 -3.957031 4.9375 -3.9375 C 4.664062 -3.894531 4.441406 -3.828125 4.265625 -3.734375 C 4.097656 -3.640625 3.972656 -3.519531 3.890625 -3.375 C 3.804688 -3.238281 3.765625 -3.085938 3.765625 -2.921875 C 3.765625 -2.648438 3.859375 -2.441406 4.046875 -2.296875 C 4.242188 -2.148438 4.492188 -2.078125 4.796875 -2.078125 Z M 4.796875 -2.078125 "/></g></g></g><g fill="#ffffff" fill-opacity="1"><g transform="translate(657.785487, 234.742002)"><g/></g></g><g fill="#ffffff" fill-opacity="1"><g transform="translate(663.176203, 234.742002)"><g><path d="M 4.25 0 L 0.40625 0 L 4.734375 -13.109375 L 9.609375 -13.109375 L 13.9375 0 L 10.09375 0 L 7.21875 -9.5 L 7.125 -9.5 Z M 3.53125 -5.171875 L 10.75 -5.171875 L 10.75 -2.515625 L 3.53125 -2.515625 Z M 3.53125 -5.171875 "/></g></g></g><g fill="#ffffff" fill-opacity="1"><g transform="translate(679.326608, 234.742002)"><g><path d="M 9.890625 -6.640625 L 6.640625 -6.640625 C 6.617188 -6.835938 6.546875 -7.007812 6.421875 -7.15625 C 6.296875 -7.300781 6.132812 -7.410156 5.9375 -7.484375 C 5.75 -7.566406 5.535156 -7.609375 5.296875 -7.609375 C 4.992188 -7.609375 4.734375 -7.550781 4.515625 -7.4375 C 4.296875 -7.332031 4.191406 -7.175781 4.203125 -6.96875 C 4.191406 -6.820312 4.25 -6.6875 4.375 -6.5625 C 4.507812 -6.4375 4.765625 -6.34375 5.140625 -6.28125 L 7.140625 -5.921875 C 8.148438 -5.734375 8.898438 -5.421875 9.390625 -4.984375 C 9.890625 -4.554688 10.140625 -3.976562 10.140625 -3.25 C 10.140625 -2.550781 9.929688 -1.941406 9.515625 -1.421875 C 9.109375 -0.910156 8.546875 -0.515625 7.828125 -0.234375 C 7.117188 0.0351562 6.3125 0.171875 5.40625 0.171875 C 3.90625 0.171875 2.726562 -0.132812 1.875 -0.75 C 1.03125 -1.363281 0.5625 -2.171875 0.46875 -3.171875 L 3.96875 -3.171875 C 4.019531 -2.859375 4.175781 -2.617188 4.4375 -2.453125 C 4.695312 -2.285156 5.03125 -2.203125 5.4375 -2.203125 C 5.757812 -2.203125 6.023438 -2.253906 6.234375 -2.359375 C 6.441406 -2.472656 6.550781 -2.632812 6.5625 -2.84375 C 6.550781 -3.03125 6.453125 -3.175781 6.265625 -3.28125 C 6.085938 -3.394531 5.8125 -3.488281 5.4375 -3.5625 L 3.6875 -3.875 C 2.6875 -4.039062 1.9375 -4.367188 1.4375 -4.859375 C 0.9375 -5.359375 0.6875 -5.992188 0.6875 -6.765625 C 0.6875 -7.441406 0.867188 -8.019531 1.234375 -8.5 C 1.597656 -8.976562 2.117188 -9.34375 2.796875 -9.59375 C 3.484375 -9.84375 4.289062 -9.96875 5.21875 -9.96875 C 6.644531 -9.96875 7.769531 -9.671875 8.59375 -9.078125 C 9.414062 -8.492188 9.847656 -7.679688 9.890625 -6.640625 Z M 9.890625 -6.640625 "/></g></g></g><g fill="#ffffff" fill-opacity="1"><g transform="translate(691.736741, 234.742002)"><g><path d="M 0.890625 0 L 0.890625 -9.828125 L 4.4375 -9.828125 L 4.4375 0 Z M 2.671875 -10.859375 C 2.191406 -10.859375 1.78125 -11.015625 1.4375 -11.328125 C 1.09375 -11.648438 0.921875 -12.03125 0.921875 -12.46875 C 0.921875 -12.914062 1.09375 -13.296875 1.4375 -13.609375 C 1.78125 -13.929688 2.1875 -14.09375 2.65625 -14.09375 C 3.144531 -14.09375 3.554688 -13.929688 3.890625 -13.609375 C 4.234375 -13.296875 4.40625 -12.914062 4.40625 -12.46875 C 4.40625 -12.03125 4.234375 -11.648438 3.890625 -11.328125 C 3.554688 -11.015625 3.148438 -10.859375 2.671875 -10.859375 Z M 2.671875 -10.859375 "/></g></g></g><g fill="#ffffff" fill-opacity="1"><g transform="translate(698.869477, 234.742002)"><g><path d="M 4.4375 -5.53125 L 4.4375 0 L 0.890625 0 L 0.890625 -9.828125 L 4.25 -9.828125 L 4.25 -7.96875 L 4.359375 -7.96875 C 4.566406 -8.59375 4.941406 -9.082031 5.484375 -9.4375 C 6.023438 -9.789062 6.65625 -9.96875 7.375 -9.96875 C 8.070312 -9.96875 8.675781 -9.804688 9.1875 -9.484375 C 9.707031 -9.171875 10.109375 -8.734375 10.390625 -8.171875 C 10.671875 -7.617188 10.8125 -6.988281 10.8125 -6.28125 L 10.8125 0 L 7.28125 0 L 7.28125 -5.53125 C 7.28125 -6.019531 7.15625 -6.398438 6.90625 -6.671875 C 6.65625 -6.953125 6.304688 -7.09375 5.859375 -7.09375 C 5.578125 -7.09375 5.328125 -7.03125 5.109375 -6.90625 C 4.890625 -6.78125 4.722656 -6.597656 4.609375 -6.359375 C 4.492188 -6.128906 4.4375 -5.851562 4.4375 -5.53125 Z M 4.4375 -5.53125 "/></g></g></g><g fill="#ffffff" fill-opacity="1"><g transform="translate(712.329971, 234.742002)"><g><path d="M 5.640625 3.890625 C 4.648438 3.890625 3.800781 3.75 3.09375 3.46875 C 2.394531 3.1875 1.851562 2.800781 1.46875 2.3125 C 1.082031 1.832031 0.863281 1.273438 0.8125 0.640625 L 4.21875 0.640625 C 4.257812 0.847656 4.347656 1.015625 4.484375 1.140625 C 4.617188 1.273438 4.789062 1.367188 5 1.421875 C 5.21875 1.484375 5.460938 1.515625 5.734375 1.515625 C 6.191406 1.515625 6.570312 1.398438 6.875 1.171875 C 7.175781 0.953125 7.328125 0.550781 7.328125 -0.03125 L 7.328125 -1.6875 L 7.21875 -1.6875 C 7.09375 -1.351562 6.894531 -1.070312 6.625 -0.84375 C 6.363281 -0.613281 6.046875 -0.4375 5.671875 -0.3125 C 5.304688 -0.1875 4.898438 -0.125 4.453125 -0.125 C 3.753906 -0.125 3.109375 -0.285156 2.515625 -0.609375 C 1.929688 -0.929688 1.460938 -1.445312 1.109375 -2.15625 C 0.765625 -2.863281 0.59375 -3.785156 0.59375 -4.921875 C 0.59375 -6.109375 0.773438 -7.070312 1.140625 -7.8125 C 1.515625 -8.550781 1.992188 -9.09375 2.578125 -9.4375 C 3.160156 -9.789062 3.78125 -9.96875 4.4375 -9.96875 C 4.914062 -9.96875 5.335938 -9.878906 5.703125 -9.703125 C 6.078125 -9.535156 6.382812 -9.3125 6.625 -9.03125 C 6.875 -8.757812 7.066406 -8.457031 7.203125 -8.125 L 7.28125 -8.125 L 7.28125 -9.828125 L 10.8125 -9.828125 L 10.8125 -0.03125 C 10.8125 0.800781 10.59375 1.507812 10.15625 2.09375 C 9.726562 2.675781 9.125 3.117188 8.34375 3.421875 C 7.570312 3.734375 6.671875 3.890625 5.640625 3.890625 Z M 5.765625 -2.640625 C 6.085938 -2.640625 6.363281 -2.726562 6.59375 -2.90625 C 6.832031 -3.09375 7.015625 -3.351562 7.140625 -3.6875 C 7.265625 -4.03125 7.328125 -4.441406 7.328125 -4.921875 C 7.328125 -5.398438 7.265625 -5.8125 7.140625 -6.15625 C 7.015625 -6.507812 6.832031 -6.78125 6.59375 -6.96875 C 6.363281 -7.15625 6.085938 -7.25 5.765625 -7.25 C 5.441406 -7.25 5.164062 -7.15625 4.9375 -6.96875 C 4.707031 -6.78125 4.53125 -6.507812 4.40625 -6.15625 C 4.28125 -5.8125 4.21875 -5.398438 4.21875 -4.921875 C 4.21875 -4.429688 4.28125 -4.015625 4.40625 -3.671875 C 4.53125 -3.335938 4.707031 -3.082031 4.9375 -2.90625 C 5.164062 -2.726562 5.441406 -2.640625 5.765625 -2.640625 Z M 5.765625 -2.640625 "/></g></g></g></svg>