<svg xmlns="http://www.w3.org/2000/svg" xmlns:xlink="http://www.w3.org/1999/xlink" width="500" zoomAndPan="magnify" viewBox="0 0 375 374.999991" height="500" preserveAspectRatio="xMidYMid meet" version="1.0"><defs><g/><clipPath id="f8ae254c45"><path d="M 83.207031 96 L 138 96 L 138 185 L 83.207031 185 Z M 83.207031 96 " clip-rule="nonzero"/></clipPath><clipPath id="47b3992c4c"><path d="M 237 96 L 291.792969 96 L 291.792969 185 L 237 185 Z M 237 96 " clip-rule="nonzero"/></clipPath><clipPath id="6c1777ca82"><path d="M 138 91.335938 L 237 91.335938 L 237 189.371094 L 138 189.371094 Z M 138 91.335938 " clip-rule="nonzero"/></clipPath></defs><g clip-path="url(#f8ae254c45)"><path fill="#ffffff" d="M 137.589844 184.359375 C 127.242188 172.628906 120.960938 157.222656 120.960938 140.355469 C 120.960938 123.488281 127.242188 108.082031 137.59375 96.351562 C 133.351562 98.066406 129.242188 99.992188 125.285156 102.117188 C 107.824219 111.484375 93.300781 124.675781 83.207031 140.355469 C 93.300781 156.035156 107.824219 169.226562 125.285156 178.59375 C 129.242188 180.714844 133.351562 182.644531 137.589844 184.359375 Z M 137.589844 184.359375 " fill-opacity="1" fill-rule="nonzero"/></g><g clip-path="url(#47b3992c4c)"><path fill="#ffffff" d="M 237.40625 96.351562 C 247.757812 108.082031 254.042969 123.488281 254.042969 140.355469 C 254.042969 157.222656 247.761719 172.628906 237.410156 184.359375 C 241.652344 182.644531 245.761719 180.714844 249.714844 178.59375 C 267.175781 169.226562 281.703125 156.035156 291.796875 140.355469 C 281.703125 124.675781 267.175781 111.484375 249.714844 102.117188 C 245.757812 99.992188 241.648438 98.066406 237.40625 96.351562 Z M 237.40625 96.351562 " fill-opacity="1" fill-rule="nonzero"/></g><g clip-path="url(#6c1777ca82)"><path fill="#ffffff" d="M 205.148438 127.800781 C 208.394531 127.800781 211.027344 130.433594 211.027344 133.683594 C 211.027344 136.929688 208.394531 139.5625 205.148438 139.5625 C 201.898438 139.5625 199.265625 136.929688 199.265625 133.683594 C 199.265625 130.433594 201.898438 127.800781 205.148438 127.800781 Z M 187.5 91.382812 C 197.164062 91.382812 206.175781 94.183594 213.769531 99.015625 C 209.421875 100.707031 206.339844 104.929688 206.339844 109.875 C 206.339844 116.304688 211.554688 121.519531 217.984375 121.519531 C 222.925781 121.519531 227.152344 118.4375 228.839844 114.089844 C 233.671875 121.679688 236.476562 130.691406 236.476562 140.355469 C 236.476562 167.398438 214.542969 189.332031 187.5 189.332031 C 160.457031 189.332031 138.527344 167.398438 138.527344 140.355469 C 138.527344 113.3125 160.457031 91.382812 187.5 91.382812 Z M 187.5 91.382812 " fill-opacity="1" fill-rule="evenodd"/></g><g fill="#ffffff" fill-opacity="1"><g transform="translate(87.700971, 243.257398)"><g><path d="M 20.671875 -7.140625 L 22.625 -1.578125 C 21.8125 -0.910156 20.785156 -0.382812 19.546875 0 C 18.316406 0.382812 16.925781 0.578125 15.375 0.578125 C 12.132812 0.578125 9.671875 -0.300781 7.984375 -2.0625 C 6.296875 -3.832031 5.453125 -6.40625 5.453125 -9.78125 L 5.453125 -24.015625 L 0.890625 -24.015625 L 0.890625 -29.984375 L 5.453125 -29.984375 L 5.453125 -35.828125 L 12.984375 -37.046875 L 12.984375 -29.984375 L 21.484375 -29.984375 L 21.484375 -24.015625 L 12.984375 -24.015625 L 12.984375 -10.328125 C 12.984375 -8.835938 13.289062 -7.753906 13.90625 -7.078125 C 14.519531 -6.398438 15.414062 -6.0625 16.59375 -6.0625 C 17.9375 -6.0625 19.101562 -6.421875 20.09375 -7.140625 Z M 20.671875 -7.140625 "/></g></g></g><g fill="#ffffff" fill-opacity="1"><g transform="translate(108.360367, 243.257398)"><g><path d="M 4.3125 0 L 4.3125 -41.984375 L 11.84375 -41.984375 L 11.84375 -26.046875 L 12.40625 -25.9375 C 13.40625 -27.40625 14.628906 -28.535156 16.078125 -29.328125 C 17.523438 -30.128906 19.273438 -30.53125 21.328125 -30.53125 C 27.929688 -30.53125 31.234375 -26.78125 31.234375 -19.28125 L 31.234375 0 L 23.71875 0 L 23.71875 -18.328125 C 23.71875 -20.378906 23.304688 -21.863281 22.484375 -22.78125 C 21.671875 -23.707031 20.40625 -24.171875 18.6875 -24.171875 C 16.582031 -24.171875 14.914062 -23.46875 13.6875 -22.0625 C 12.457031 -20.664062 11.84375 -18.484375 11.84375 -15.515625 L 11.84375 0 Z M 4.3125 0 "/></g></g></g><g fill="#ffffff" fill-opacity="1"><g transform="translate(140.833117, 243.257398)"><g><path d="M 29.609375 -13.28125 L 10.34375 -13.28125 C 10.5625 -10.675781 11.304688 -8.78125 12.578125 -7.59375 C 13.847656 -6.40625 15.578125 -5.8125 17.765625 -5.8125 C 19.484375 -5.8125 20.875 -6.128906 21.9375 -6.765625 C 23.007812 -7.410156 23.875 -8.390625 24.53125 -9.703125 L 25.09375 -9.703125 L 30.09375 -6.484375 C 29.113281 -4.390625 27.632812 -2.6875 25.65625 -1.375 C 23.6875 -0.0703125 21.054688 0.578125 17.765625 0.578125 C 14.671875 0.578125 11.992188 -0.0078125 9.734375 -1.1875 C 7.484375 -2.363281 5.742188 -4.113281 4.515625 -6.4375 C 3.296875 -8.769531 2.6875 -11.613281 2.6875 -14.96875 C 2.6875 -18.375 3.328125 -21.242188 4.609375 -23.578125 C 5.898438 -25.910156 7.640625 -27.648438 9.828125 -28.796875 C 12.023438 -29.953125 14.488281 -30.53125 17.21875 -30.53125 C 21.457031 -30.53125 24.703125 -29.40625 26.953125 -27.15625 C 29.210938 -24.914062 30.34375 -21.625 30.34375 -17.28125 C 30.34375 -15.695312 30.285156 -14.472656 30.171875 -13.609375 Z M 23.140625 -18.140625 C 23.066406 -20.421875 22.535156 -22.082031 21.546875 -23.125 C 20.566406 -24.164062 19.125 -24.6875 17.21875 -24.6875 C 13.414062 -24.6875 11.179688 -22.503906 10.515625 -18.140625 Z M 23.140625 -18.140625 "/></g></g></g><g fill="#ffffff" fill-opacity="1"><g transform="translate(170.780263, 243.257398)"><g><path d="M 12.4375 0.578125 C 9.738281 0.578125 7.675781 -0.148438 6.25 -1.609375 C 4.832031 -3.066406 4.125 -5.28125 4.125 -8.25 L 4.125 -41.984375 L 11.65625 -41.984375 L 11.65625 -8.5625 C 11.65625 -6.726562 12.414062 -5.8125 13.9375 -5.8125 C 14.363281 -5.8125 14.820312 -5.882812 15.3125 -6.03125 L 15.703125 -5.921875 L 16.375 -0.140625 C 15.957031 0.078125 15.40625 0.25 14.71875 0.375 C 14.03125 0.507812 13.269531 0.578125 12.4375 0.578125 Z M 12.4375 0.578125 "/></g></g></g><g fill="#ffffff" fill-opacity="1"><g transform="translate(185.383602, 243.257398)"><g><path d="M 17.40625 0.578125 C 14.476562 0.578125 11.90625 -0.0234375 9.6875 -1.234375 C 7.46875 -2.441406 5.742188 -4.207031 4.515625 -6.53125 C 3.296875 -8.851562 2.6875 -11.664062 2.6875 -14.96875 C 2.6875 -18.257812 3.296875 -21.070312 4.515625 -23.40625 C 5.742188 -25.75 7.46875 -27.519531 9.6875 -28.71875 C 11.90625 -29.925781 14.476562 -30.53125 17.40625 -30.53125 C 20.34375 -30.53125 22.921875 -29.925781 25.140625 -28.71875 C 27.359375 -27.519531 29.082031 -25.75 30.3125 -23.40625 C 31.539062 -21.070312 32.15625 -18.257812 32.15625 -14.96875 C 32.15625 -11.664062 31.539062 -8.851562 30.3125 -6.53125 C 29.082031 -4.207031 27.359375 -2.441406 25.140625 -1.234375 C 22.921875 -0.0234375 20.34375 0.578125 17.40625 0.578125 Z M 17.40625 -5.8125 C 22.0625 -5.8125 24.390625 -8.863281 24.390625 -14.96875 C 24.390625 -18.132812 23.789062 -20.453125 22.59375 -21.921875 C 21.40625 -23.398438 19.675781 -24.140625 17.40625 -24.140625 C 12.757812 -24.140625 10.4375 -21.082031 10.4375 -14.96875 C 10.4375 -8.863281 12.757812 -5.8125 17.40625 -5.8125 Z M 17.40625 -5.8125 "/></g></g></g><g fill="#ffffff" fill-opacity="1"><g transform="translate(217.584776, 243.257398)"><g><path d="M 15.53125 12.71875 C 10.59375 12.71875 6.945312 11.988281 4.59375 10.53125 C 2.238281 9.082031 1.0625 7.066406 1.0625 4.484375 C 1.0625 2.910156 1.5625 1.617188 2.5625 0.609375 C 3.570312 -0.390625 5.019531 -1.0625 6.90625 -1.40625 L 6.90625 -1.984375 C 5.882812 -2.597656 5.148438 -3.28125 4.703125 -4.03125 C 4.265625 -4.78125 4.046875 -5.65625 4.046875 -6.65625 C 4.046875 -9.0625 5.613281 -10.679688 8.75 -11.515625 L 8.75 -12.09375 C 7.132812 -13.007812 5.921875 -14.148438 5.109375 -15.515625 C 4.296875 -16.890625 3.890625 -18.546875 3.890625 -20.484375 C 3.890625 -22.472656 4.34375 -24.222656 5.25 -25.734375 C 6.164062 -27.242188 7.503906 -28.421875 9.265625 -29.265625 C 11.035156 -30.109375 13.15625 -30.53125 15.625 -30.53125 C 18.113281 -30.53125 20.101562 -30.09375 21.59375 -29.21875 C 22.519531 -30.5625 23.050781 -32.113281 23.1875 -33.875 L 23.765625 -34.21875 L 29.171875 -32.890625 C 29.003906 -31.460938 28.585938 -30.265625 27.921875 -29.296875 C 27.253906 -28.328125 26.210938 -27.460938 24.796875 -26.703125 L 24.796875 -26.09375 C 26.484375 -24.613281 27.328125 -22.539062 27.328125 -19.875 C 27.328125 -18.03125 26.863281 -16.375 25.9375 -14.90625 C 25.007812 -13.445312 23.660156 -12.289062 21.890625 -11.4375 C 20.128906 -10.582031 18.039062 -10.15625 15.625 -10.15625 L 14.484375 -10.1875 C 13.753906 -10.21875 13.242188 -10.234375 12.953125 -10.234375 C 12.265625 -10.234375 11.722656 -10.046875 11.328125 -9.671875 C 10.941406 -9.304688 10.75 -8.832031 10.75 -8.25 C 10.75 -7.625 11.003906 -7.132812 11.515625 -6.78125 C 12.023438 -6.425781 12.769531 -6.226562 13.75 -6.1875 L 20.453125 -5.953125 C 27.078125 -5.753906 30.390625 -2.898438 30.390625 2.609375 C 30.390625 4.546875 29.894531 6.269531 28.90625 7.78125 C 27.925781 9.289062 26.332031 10.488281 24.125 11.375 C 21.914062 12.269531 19.050781 12.71875 15.53125 12.71875 Z M 15.625 -15.421875 C 17.070312 -15.421875 18.203125 -15.847656 19.015625 -16.703125 C 19.828125 -17.554688 20.234375 -18.769531 20.234375 -20.34375 C 20.234375 -21.914062 19.828125 -23.125 19.015625 -23.96875 C 18.203125 -24.8125 17.070312 -25.234375 15.625 -25.234375 C 14.15625 -25.234375 13.019531 -24.8125 12.21875 -23.96875 C 11.425781 -23.125 11.03125 -21.914062 11.03125 -20.34375 C 11.03125 -18.75 11.425781 -17.53125 12.21875 -16.6875 C 13.019531 -15.84375 14.15625 -15.421875 15.625 -15.421875 Z M 15.53125 7.25 C 18.101562 7.25 19.972656 6.882812 21.140625 6.15625 C 22.304688 5.4375 22.890625 4.5 22.890625 3.34375 C 22.890625 2.394531 22.59375 1.695312 22 1.25 C 21.40625 0.8125 20.453125 0.578125 19.140625 0.546875 L 13.234375 0.265625 C 13.023438 0.265625 12.832031 0.253906 12.65625 0.234375 C 12.488281 0.222656 12.328125 0.21875 12.171875 0.21875 C 10.898438 0.21875 9.929688 0.488281 9.265625 1.03125 C 8.609375 1.570312 8.28125 2.320312 8.28125 3.28125 C 8.28125 4.550781 8.882812 5.53125 10.09375 6.21875 C 11.3125 6.90625 13.125 7.25 15.53125 7.25 Z M 15.53125 7.25 "/></g></g></g><g fill="#ffffff" fill-opacity="1"><g transform="translate(246.119742, 243.257398)"><g><path d="M 8.0625 -33.546875 C 6.707031 -33.546875 5.601562 -33.957031 4.75 -34.78125 C 3.90625 -35.601562 3.484375 -36.664062 3.484375 -37.96875 C 3.484375 -39.257812 3.90625 -40.316406 4.75 -41.140625 C 5.601562 -41.960938 6.707031 -42.375 8.0625 -42.375 C 8.96875 -42.375 9.773438 -42.179688 10.484375 -41.796875 C 11.191406 -41.421875 11.738281 -40.898438 12.125 -40.234375 C 12.519531 -39.578125 12.71875 -38.820312 12.71875 -37.96875 C 12.71875 -37.113281 12.519531 -36.351562 12.125 -35.6875 C 11.738281 -35.019531 11.191406 -34.492188 10.484375 -34.109375 C 9.773438 -33.734375 8.96875 -33.546875 8.0625 -33.546875 Z M 4.3125 0 L 4.3125 -29.953125 L 11.84375 -29.953125 L 11.84375 0 Z M 4.3125 0 "/></g></g></g><g fill="#ffffff" fill-opacity="1"><g transform="translate(259.636795, 243.257398)"><g><path d="M 14.015625 0.578125 C 11.972656 0.578125 10.097656 0.335938 8.390625 -0.140625 C 6.691406 -0.628906 5.238281 -1.289062 4.03125 -2.125 C 2.832031 -2.96875 1.941406 -3.9375 1.359375 -5.03125 L 5.546875 -9.53125 L 6.109375 -9.53125 C 7.109375 -8.195312 8.285156 -7.191406 9.640625 -6.515625 C 10.992188 -5.847656 12.46875 -5.515625 14.0625 -5.515625 C 15.53125 -5.515625 16.632812 -5.773438 17.375 -6.296875 C 18.125 -6.828125 18.5 -7.582031 18.5 -8.5625 C 18.5 -9.320312 18.226562 -9.957031 17.6875 -10.46875 C 17.15625 -10.988281 16.289062 -11.390625 15.09375 -11.671875 L 11.140625 -12.625 C 8.171875 -13.332031 6 -14.414062 4.625 -15.875 C 3.257812 -17.332031 2.578125 -19.1875 2.578125 -21.4375 C 2.578125 -23.300781 3.050781 -24.921875 4 -26.296875 C 4.957031 -27.671875 6.300781 -28.71875 8.03125 -29.4375 C 9.757812 -30.164062 11.769531 -30.53125 14.0625 -30.53125 C 16.757812 -30.53125 18.992188 -30.140625 20.765625 -29.359375 C 22.546875 -28.578125 23.9375 -27.535156 24.9375 -26.234375 L 20.90625 -21.890625 L 20.375 -21.890625 C 19.539062 -22.828125 18.601562 -23.515625 17.5625 -23.953125 C 16.519531 -24.390625 15.351562 -24.609375 14.0625 -24.609375 C 11.09375 -24.609375 9.609375 -23.6875 9.609375 -21.84375 C 9.609375 -21.0625 9.882812 -20.425781 10.4375 -19.9375 C 10.988281 -19.445312 11.960938 -19.046875 13.359375 -18.734375 L 17.0625 -17.921875 C 20.101562 -17.273438 22.320312 -16.226562 23.71875 -14.78125 C 25.125 -13.34375 25.828125 -11.410156 25.828125 -8.984375 C 25.828125 -7.085938 25.351562 -5.414062 24.40625 -3.96875 C 23.46875 -2.519531 22.113281 -1.398438 20.34375 -0.609375 C 18.570312 0.179688 16.460938 0.578125 14.015625 0.578125 Z M 14.015625 0.578125 "/></g></g></g><g fill="#ffffff" fill-opacity="1"><g transform="translate(113.40007, 270.487467)"><g><path d="M 12.28125 0 L 10.828125 0 L 10.828125 -9.71875 L 10.796875 -9.71875 L 7.453125 0 L 6.078125 0 L 2.75 -9.890625 L 2.6875 -9.890625 L 2.6875 0 L 1.234375 0 L 1.234375 -11.625 L 3.53125 -11.625 L 6.28125 -3.390625 C 6.59375 -2.472656 6.769531 -1.898438 6.8125 -1.671875 L 6.84375 -1.671875 C 6.988281 -2.117188 7.195312 -2.738281 7.46875 -3.53125 L 10.234375 -11.625 L 12.28125 -11.625 Z M 12.28125 0 "/></g></g></g><g fill="#ffffff" fill-opacity="1"><g transform="translate(131.761439, 270.487467)"><g><path d="M 10.84375 0 L 9.109375 0 L 7.75 -3.53125 L 2.890625 -3.53125 L 1.609375 0 L -0.015625 0 L 4.453125 -11.625 L 6.109375 -11.625 Z M 7.28125 -4.75 C 6.320312 -7.269531 5.78125 -8.695312 5.65625 -9.03125 C 5.539062 -9.375 5.410156 -9.832031 5.265625 -10.40625 L 5.21875 -10.40625 C 5.070312 -9.625 4.875 -8.898438 4.625 -8.234375 L 3.328125 -4.75 Z M 7.28125 -4.75 "/></g></g></g><g fill="#ffffff" fill-opacity="1"><g transform="translate(147.428258, 270.487467)"><g><path d="M 9.5625 -10.234375 L 5.71875 -10.234375 L 5.71875 0 L 4.171875 0 L 4.171875 -10.234375 L 0.359375 -10.234375 L 0.359375 -11.625 L 9.5625 -11.625 Z M 9.5625 -10.234375 "/></g></g></g><g fill="#ffffff" fill-opacity="1"><g transform="translate(162.183683, 270.487467)"><g><path d="M 10.84375 0 L 9.109375 0 L 7.75 -3.53125 L 2.890625 -3.53125 L 1.609375 0 L -0.015625 0 L 4.453125 -11.625 L 6.109375 -11.625 Z M 7.28125 -4.75 C 6.320312 -7.269531 5.78125 -8.695312 5.65625 -9.03125 C 5.539062 -9.375 5.410156 -9.832031 5.265625 -10.40625 L 5.21875 -10.40625 C 5.070312 -9.625 4.875 -8.898438 4.625 -8.234375 L 3.328125 -4.75 Z M 7.28125 -4.75 "/></g></g></g><g fill="#ffffff" fill-opacity="1"><g transform="translate(177.850503, 270.487467)"><g/></g></g><g fill="#ffffff" fill-opacity="1"><g transform="translate(187.200982, 270.487467)"><g><path d="M 10.796875 0 L 8.765625 0 L 4.640625 -5.875 L 2.734375 -4.03125 L 2.734375 0 L 1.1875 0 L 1.1875 -11.625 L 2.734375 -11.625 L 2.734375 -5.859375 L 8.5 -11.625 L 10.578125 -11.625 L 5.71875 -6.90625 Z M 10.796875 0 "/></g></g></g><g fill="#ffffff" fill-opacity="1"><g transform="translate(202.867803, 270.487467)"><g><path d="M 10.421875 -4.90625 C 10.421875 -4.300781 10.382812 -3.742188 10.3125 -3.234375 C 10.25 -2.734375 10.078125 -2.210938 9.796875 -1.671875 C 9.515625 -1.140625 9.054688 -0.691406 8.421875 -0.328125 C 7.785156 0.0234375 6.9375 0.203125 5.875 0.203125 C 4.832031 0.203125 3.992188 0.046875 3.359375 -0.265625 C 2.734375 -0.585938 2.269531 -1 1.96875 -1.5 C 1.675781 -2.007812 1.488281 -2.535156 1.40625 -3.078125 C 1.320312 -3.617188 1.28125 -4.226562 1.28125 -4.90625 L 1.28125 -11.625 L 2.828125 -11.625 L 2.828125 -4.921875 C 2.828125 -4.222656 2.875 -3.617188 2.96875 -3.109375 C 3.070312 -2.609375 3.335938 -2.160156 3.765625 -1.765625 C 4.191406 -1.378906 4.851562 -1.1875 5.75 -1.1875 C 6.65625 -1.1875 7.332031 -1.34375 7.78125 -1.65625 C 8.238281 -1.96875 8.535156 -2.382812 8.671875 -2.90625 C 8.804688 -3.425781 8.875 -4.097656 8.875 -4.921875 L 8.875 -11.625 L 10.421875 -11.625 Z M 10.421875 -4.90625 "/></g></g></g><g fill="#ffffff" fill-opacity="1"><g transform="translate(219.430165, 270.487467)"><g><path d="M 1.25 -11.625 L 5.640625 -11.625 C 6.328125 -11.625 6.921875 -11.585938 7.421875 -11.515625 C 7.921875 -11.453125 8.382812 -11.273438 8.8125 -10.984375 C 9.238281 -10.691406 9.5625 -10.296875 9.78125 -9.796875 C 10 -9.304688 10.109375 -8.796875 10.109375 -8.265625 C 10.109375 -7.191406 9.765625 -6.328125 9.078125 -5.671875 C 8.390625 -5.023438 7.285156 -4.703125 5.765625 -4.703125 L 2.796875 -4.703125 L 2.796875 0 L 1.25 0 Z M 2.796875 -6.09375 L 5.78125 -6.09375 C 7.601562 -6.09375 8.515625 -6.800781 8.515625 -8.21875 C 8.515625 -8.675781 8.394531 -9.082031 8.15625 -9.4375 C 7.925781 -9.800781 7.632812 -10.023438 7.28125 -10.109375 C 6.9375 -10.191406 6.425781 -10.234375 5.75 -10.234375 L 2.796875 -10.234375 Z M 2.796875 -6.09375 "/></g></g></g><g fill="#ffffff" fill-opacity="1"><g transform="translate(235.096985, 270.487467)"><g><path d="M 10.71875 -11.625 L 6.171875 0 L 4.59375 0 L 0.09375 -11.625 L 1.75 -11.625 L 4.765625 -3.171875 C 4.992188 -2.640625 5.195312 -2.007812 5.375 -1.28125 L 5.40625 -1.28125 C 5.5625 -1.90625 5.765625 -2.535156 6.015625 -3.171875 L 9.15625 -11.625 Z M 10.71875 -11.625 "/></g></g></g><g fill="#ffffff" fill-opacity="1"><g transform="translate(250.763798, 270.487467)"><g><path d="M 10.84375 0 L 9.109375 0 L 7.75 -3.53125 L 2.890625 -3.53125 L 1.609375 0 L -0.015625 0 L 4.453125 -11.625 L 6.109375 -11.625 Z M 7.28125 -4.75 C 6.320312 -7.269531 5.78125 -8.695312 5.65625 -9.03125 C 5.539062 -9.375 5.410156 -9.832031 5.265625 -10.40625 L 5.21875 -10.40625 C 5.070312 -9.625 4.875 -8.898438 4.625 -8.234375 L 3.328125 -4.75 Z M 7.28125 -4.75 "/></g></g></g></svg>