<svg xmlns="http://www.w3.org/2000/svg" xmlns:xlink="http://www.w3.org/1999/xlink" width="1000" zoomAndPan="magnify" viewBox="0 0 750 374.999991" height="500" preserveAspectRatio="xMidYMid meet" version="1.0"><defs><g/><clipPath id="fa051a2f1a"><path d="M 68.800781 134 L 161.546875 134 L 161.546875 270 L 68.800781 270 Z M 68.800781 134 " clip-rule="nonzero"/></clipPath></defs><g clip-path="url(#fa051a2f1a)"><path fill="#ffffff" d="M 101.925781 182.242188 C 106.527344 180.933594 111.105469 184.40625 111.105469 189.191406 L 111.105469 262.855469 C 111.105469 266.96875 107.273438 270.046875 103.269531 269.101562 C 83.523438 264.449219 68.78125 246.679688 68.78125 225.53125 C 68.78125 205.058594 82.589844 187.753906 101.925781 182.242188 Z M 119.175781 178.335938 L 119.175781 262.855469 C 119.175781 266.96875 123.003906 270.046875 127.011719 269.101562 C 146.757812 264.453125 161.5 246.679688 161.5 225.53125 L 161.5 139.441406 C 161.5 136.210938 158.550781 133.78125 155.382812 134.398438 C 134.777344 138.398438 119.175781 156.582031 119.175781 178.335938 Z M 119.175781 178.335938 " fill-opacity="1" fill-rule="nonzero"/></g><g fill="#ffffff" fill-opacity="1"><g transform="translate(178.62029, 222.907)"><g><path d="M 7.28125 0 L 7.28125 -86.234375 L 31.578125 -86.234375 L 31.578125 0 Z M 7.28125 0 "/></g></g></g><g fill="#ffffff" fill-opacity="1"><g transform="translate(224.402389, 222.907)"><g><path d="M 62.3125 -86.234375 L 85.625 -86.234375 L 85.625 0 L 64 0 L 30.609375 -46.390625 L 30.609375 0 L 7.28125 0 L 7.28125 -86.234375 L 28.90625 -86.234375 L 62.3125 -39.953125 Z M 62.3125 -86.234375 "/></g></g></g><g fill="#ffffff" fill-opacity="1"><g transform="translate(324.223, 222.907)"><g><path d="M -4.734375 0 L 33.28125 -86.234375 L 53.4375 -86.234375 L 90.125 0 L 65.578125 0 L 59.515625 -15.421875 L 26.109375 -15.421875 L 19.796875 0 Z M 34.375 -35.46875 L 51.5 -35.46875 L 43.109375 -56.59375 Z M 34.375 -35.46875 "/></g></g></g><g fill="#ffffff" fill-opacity="1"><g transform="translate(417.00039, 222.907)"><g><path d="M 7.53125 0 L 10.078125 -86.234375 L 29.875 -86.234375 L 58.78125 -30 L 87.203125 -86.234375 L 107 -86.234375 L 108.828125 0 L 85.375 0 L 84.65625 -36.078125 L 66.1875 0 L 49.1875 0 L 30.84375 -35.46875 L 29.75 0 Z M 7.53125 0 "/></g></g></g><g fill="#ffffff" fill-opacity="1"><g transform="translate(540.379371, 222.907)"><g><path d="M 7.28125 0 L 7.28125 -86.234375 L 31.578125 -86.234375 L 31.578125 0 Z M 7.28125 0 "/></g></g></g><g fill="#ffffff" fill-opacity="1"><g transform="translate(586.161466, 222.907)"><g><path d="M 36.3125 1.21875 C 25.46875 1.21875 17.007812 -1.085938 10.9375 -5.703125 C 4.863281 -10.316406 1.421875 -17.039062 0.609375 -25.875 L 23.078125 -29.15625 C 23.234375 -26.070312 24.585938 -23.578125 27.140625 -21.671875 C 29.691406 -19.773438 32.992188 -18.828125 37.046875 -18.828125 C 44.492188 -18.828125 48.21875 -20.769531 48.21875 -24.65625 C 48.21875 -26.4375 47.179688 -27.875 45.109375 -28.96875 C 43.046875 -30.0625 39.671875 -31.175781 34.984375 -32.3125 C 24.941406 -34.738281 17.570312 -37.972656 12.875 -42.015625 C 8.175781 -46.066406 5.867188 -51.773438 5.953125 -59.140625 C 6.035156 -64.734375 7.515625 -69.65625 10.390625 -73.90625 C 13.265625 -78.15625 17.3125 -81.472656 22.53125 -83.859375 C 27.75 -86.253906 33.878906 -87.453125 40.921875 -87.453125 C 49.585938 -87.453125 56.734375 -85.265625 62.359375 -80.890625 C 67.992188 -76.515625 71.210938 -70.5625 72.015625 -63.03125 L 50.765625 -59.390625 C 50.359375 -61.734375 49.125 -63.65625 47.0625 -65.15625 C 45 -66.65625 42.507812 -67.40625 39.59375 -67.40625 C 36.84375 -67.40625 34.632812 -66.859375 32.96875 -65.765625 C 31.3125 -64.671875 30.484375 -63.191406 30.484375 -61.328125 C 30.484375 -59.628906 31.3125 -58.148438 32.96875 -56.890625 C 34.632812 -55.640625 37.773438 -54.445312 42.390625 -53.3125 C 49.023438 -51.695312 54.585938 -49.851562 59.078125 -47.78125 C 63.578125 -45.71875 66.976562 -43.066406 69.28125 -39.828125 C 71.59375 -36.597656 72.75 -32.347656 72.75 -27.078125 C 72.75 -21.492188 71.226562 -16.578125 68.1875 -12.328125 C 65.15625 -8.078125 60.90625 -4.753906 55.4375 -2.359375 C 49.976562 0.0234375 43.601562 1.21875 36.3125 1.21875 Z M 36.3125 1.21875 "/></g></g></g><g fill="#ffffff" fill-opacity="1"><g transform="translate(183.881995, 262.29442)"><g><path d="M 17.609375 -16.421875 L 7.828125 -16.421875 L 7.828125 -13.46875 L 16.8125 -13.46875 L 16.8125 -8.25 L 7.828125 -8.25 L 7.828125 -5.203125 L 17.859375 -5.203125 L 17.484375 0 L 1.828125 0 L 1.828125 -21.625 L 17.609375 -21.625 Z M 17.609375 -16.421875 "/></g></g></g><g fill="#ffffff" fill-opacity="1"><g transform="translate(209.629912, 262.29442)"><g><path d="M 16.84375 -16.421875 L 7.828125 -16.421875 L 7.828125 -13.1875 L 16.0625 -13.1875 L 16.0625 -7.984375 L 7.828125 -7.984375 L 7.828125 0 L 1.828125 0 L 1.828125 -21.625 L 16.84375 -21.625 Z M 16.84375 -16.421875 "/></g></g></g><g fill="#ffffff" fill-opacity="1"><g transform="translate(234.067664, 262.29442)"><g><path d="M 1.828125 0 L 1.828125 -21.625 L 7.921875 -21.625 L 7.921875 0 Z M 1.828125 0 "/></g></g></g><g fill="#ffffff" fill-opacity="1"><g transform="translate(251.436653, 262.29442)"><g><path d="M 9.109375 0.296875 C 6.390625 0.296875 4.265625 -0.28125 2.734375 -1.4375 C 1.210938 -2.59375 0.351562 -4.273438 0.15625 -6.484375 L 5.78125 -7.3125 C 5.820312 -6.539062 6.160156 -5.914062 6.796875 -5.4375 C 7.441406 -4.957031 8.273438 -4.71875 9.296875 -4.71875 C 11.160156 -4.71875 12.09375 -5.207031 12.09375 -6.1875 C 12.09375 -6.632812 11.832031 -6.992188 11.3125 -7.265625 C 10.800781 -7.535156 9.957031 -7.816406 8.78125 -8.109375 C 6.257812 -8.710938 4.410156 -9.519531 3.234375 -10.53125 C 2.054688 -11.550781 1.476562 -12.988281 1.5 -14.84375 C 1.507812 -16.238281 1.875 -17.46875 2.59375 -18.53125 C 3.320312 -19.601562 4.335938 -20.4375 5.640625 -21.03125 C 6.953125 -21.632812 8.492188 -21.9375 10.265625 -21.9375 C 12.441406 -21.9375 14.234375 -21.382812 15.640625 -20.28125 C 17.054688 -19.1875 17.863281 -17.695312 18.0625 -15.8125 L 12.734375 -14.90625 C 12.628906 -15.488281 12.316406 -15.96875 11.796875 -16.34375 C 11.285156 -16.71875 10.664062 -16.90625 9.9375 -16.90625 C 9.238281 -16.90625 8.679688 -16.769531 8.265625 -16.5 C 7.847656 -16.226562 7.640625 -15.859375 7.640625 -15.390625 C 7.640625 -14.960938 7.847656 -14.585938 8.265625 -14.265625 C 8.679688 -13.953125 9.472656 -13.65625 10.640625 -13.375 C 12.296875 -12.96875 13.6875 -12.503906 14.8125 -11.984375 C 15.945312 -11.472656 16.800781 -10.8125 17.375 -10 C 17.957031 -9.1875 18.25 -8.117188 18.25 -6.796875 C 18.25 -5.390625 17.867188 -4.15625 17.109375 -3.09375 C 16.347656 -2.03125 15.28125 -1.195312 13.90625 -0.59375 C 12.539062 0 10.941406 0.296875 9.109375 0.296875 Z M 9.109375 0.296875 "/></g></g></g><g fill="#ffffff" fill-opacity="1"><g transform="translate(277.733006, 262.29442)"><g><path d="M 1.828125 0 L 1.828125 -21.625 L 7.921875 -21.625 L 7.921875 0 Z M 1.828125 0 "/></g></g></g><g fill="#ffffff" fill-opacity="1"><g transform="translate(295.102, 262.29442)"><g><path d="M 17.609375 -16.421875 L 7.828125 -16.421875 L 7.828125 -13.46875 L 16.8125 -13.46875 L 16.8125 -8.25 L 7.828125 -8.25 L 7.828125 -5.203125 L 17.859375 -5.203125 L 17.484375 0 L 1.828125 0 L 1.828125 -21.625 L 17.609375 -21.625 Z M 17.609375 -16.421875 "/></g></g></g><g fill="#ffffff" fill-opacity="1"><g transform="translate(320.849912, 262.29442)"><g><path d="M 15.625 -21.625 L 21.484375 -21.625 L 21.484375 0 L 16.0625 0 L 7.671875 -11.640625 L 7.671875 0 L 1.828125 0 L 1.828125 -21.625 L 7.25 -21.625 L 15.625 -10.03125 Z M 15.625 -21.625 "/></g></g></g><g fill="#ffffff" fill-opacity="1"><g transform="translate(351.777522, 262.29442)"><g/></g></g><g fill="#ffffff" fill-opacity="1"><g transform="translate(367.37932, 262.29442)"><g><path d="M 10.453125 0.25 C 8.617188 0.25 7 -0.0390625 5.59375 -0.625 C 4.195312 -1.207031 3.109375 -2 2.328125 -3 C 1.546875 -4.007812 1.15625 -5.148438 1.15625 -6.421875 C 1.15625 -7.785156 1.457031 -8.90625 2.0625 -9.78125 C 2.675781 -10.65625 3.429688 -11.375 4.328125 -11.9375 C 3.773438 -12.59375 3.351562 -13.257812 3.0625 -13.9375 C 2.769531 -14.613281 2.625 -15.367188 2.625 -16.203125 C 2.625 -17.285156 2.925781 -18.25 3.53125 -19.09375 C 4.144531 -19.9375 4.984375 -20.597656 6.046875 -21.078125 C 7.109375 -21.566406 8.34375 -21.8125 9.75 -21.8125 C 11.675781 -21.8125 13.210938 -21.367188 14.359375 -20.484375 C 15.515625 -19.609375 16.09375 -18.375 16.09375 -16.78125 C 16.09375 -15.875 15.894531 -15.101562 15.5 -14.46875 C 15.113281 -13.84375 14.613281 -13.304688 14 -12.859375 C 13.394531 -12.410156 12.738281 -12.003906 12.03125 -11.640625 L 16.84375 -7.28125 C 17.226562 -7.894531 17.523438 -8.566406 17.734375 -9.296875 L 15.71875 -9.296875 L 15.71875 -13.765625 L 24.765625 -13.765625 L 24.765625 -9.296875 L 22.515625 -9.296875 C 22.148438 -7.566406 21.445312 -6 20.40625 -4.59375 C 21.019531 -4.375 21.660156 -4.273438 22.328125 -4.296875 C 22.796875 -4.296875 23.179688 -4.335938 23.484375 -4.421875 C 23.796875 -4.515625 24.144531 -4.664062 24.53125 -4.875 L 25.78125 -0.796875 C 24.601562 0.0351562 23.085938 0.421875 21.234375 0.359375 C 19.347656 0.304688 17.671875 -0.164062 16.203125 -1.0625 C 15.347656 -0.632812 14.4375 -0.304688 13.46875 -0.078125 C 12.507812 0.140625 11.503906 0.25 10.453125 0.25 Z M 7.984375 -16.265625 C 7.984375 -15.984375 8.050781 -15.707031 8.1875 -15.4375 C 8.332031 -15.175781 8.648438 -14.8125 9.140625 -14.34375 C 9.765625 -14.65625 10.28125 -14.988281 10.6875 -15.34375 C 11.09375 -15.695312 11.296875 -16.117188 11.296875 -16.609375 C 11.296875 -16.972656 11.160156 -17.242188 10.890625 -17.421875 C 10.617188 -17.609375 10.257812 -17.703125 9.8125 -17.703125 C 9.238281 -17.703125 8.789062 -17.570312 8.46875 -17.3125 C 8.144531 -17.0625 7.984375 -16.710938 7.984375 -16.265625 Z M 7 -7.125 C 7 -6.25 7.367188 -5.539062 8.109375 -5 C 8.859375 -4.46875 9.820312 -4.203125 11 -4.203125 C 11.488281 -4.203125 11.957031 -4.242188 12.40625 -4.328125 L 7.5625 -8.828125 C 7.1875 -8.328125 7 -7.757812 7 -7.125 Z M 7 -7.125 "/></g></g></g><g fill="#ffffff" fill-opacity="1"><g transform="translate(401.201461, 262.29442)"><g/></g></g><g fill="#ffffff" fill-opacity="1"><g transform="translate(416.803259, 262.29442)"><g><path d="M 7.796875 0 L 1.828125 0 L 1.828125 -21.625 L 10.03125 -21.625 C 13.375 -21.625 15.84375 -21.019531 17.4375 -19.8125 C 19.03125 -18.601562 19.828125 -16.84375 19.828125 -14.53125 C 19.828125 -12.988281 19.410156 -11.65625 18.578125 -10.53125 C 17.753906 -9.414062 16.578125 -8.554688 15.046875 -7.953125 C 13.523438 -7.359375 11.707031 -7.0625 9.59375 -7.0625 L 7.796875 -7.0625 Z M 10.203125 -16.734375 L 7.796875 -16.734375 L 7.796875 -12 L 9.90625 -12 C 11.164062 -12 12.125 -12.191406 12.78125 -12.578125 C 13.4375 -12.960938 13.765625 -13.59375 13.765625 -14.46875 C 13.765625 -15.238281 13.476562 -15.804688 12.90625 -16.171875 C 12.34375 -16.546875 11.441406 -16.734375 10.203125 -16.734375 Z M 10.203125 -16.734375 "/></g></g></g><g fill="#ffffff" fill-opacity="1"><g transform="translate(444.440236, 262.29442)"><g><path d="M 20.90625 -5.609375 L 22.296875 -0.90625 C 21.816406 -0.519531 21.171875 -0.210938 20.359375 0.015625 C 19.546875 0.242188 18.722656 0.359375 17.890625 0.359375 C 16.285156 0.359375 14.953125 0.0664062 13.890625 -0.515625 C 12.835938 -1.109375 11.984375 -1.941406 11.328125 -3.015625 L 9.328125 -6.390625 C 9.078125 -6.796875 8.835938 -7.097656 8.609375 -7.296875 C 8.390625 -7.503906 8.117188 -7.640625 7.796875 -7.703125 L 7.796875 0 L 1.828125 0 L 1.828125 -21.625 L 9.140625 -21.625 C 12.472656 -21.625 14.9375 -20.992188 16.53125 -19.734375 C 18.125 -18.484375 18.921875 -16.738281 18.921875 -14.5 C 18.921875 -12.914062 18.460938 -11.597656 17.546875 -10.546875 C 16.628906 -9.503906 15.421875 -8.769531 13.921875 -8.34375 C 14.691406 -8.101562 15.300781 -7.648438 15.75 -6.984375 L 16.296875 -6.15625 C 16.804688 -5.363281 17.585938 -4.96875 18.640625 -4.96875 C 19.023438 -4.96875 19.40625 -5.007812 19.78125 -5.09375 C 20.164062 -5.1875 20.539062 -5.359375 20.90625 -5.609375 Z M 9.078125 -16.734375 L 7.796875 -16.734375 L 7.796875 -12.4375 L 9.359375 -12.4375 C 10.671875 -12.4375 11.585938 -12.613281 12.109375 -12.96875 C 12.628906 -13.320312 12.890625 -13.875 12.890625 -14.625 C 12.890625 -15.4375 12.535156 -15.988281 11.828125 -16.28125 C 11.128906 -16.582031 10.210938 -16.734375 9.078125 -16.734375 Z M 9.078125 -16.734375 "/></g></g></g><g fill="#ffffff" fill-opacity="1"><g transform="translate(472.96081, 262.29442)"><g><path d="M 12.0625 0.296875 C 9.726562 0.316406 7.71875 -0.09375 6.03125 -0.9375 C 4.34375 -1.789062 3.050781 -3.019531 2.15625 -4.625 C 1.269531 -6.226562 0.828125 -8.160156 0.828125 -10.421875 C 0.828125 -12.734375 1.3125 -14.753906 2.28125 -16.484375 C 3.257812 -18.210938 4.617188 -19.550781 6.359375 -20.5 C 8.109375 -21.457031 10.148438 -21.9375 12.484375 -21.9375 C 14.617188 -21.9375 16.484375 -21.488281 18.078125 -20.59375 C 19.671875 -19.695312 20.910156 -18.453125 21.796875 -16.859375 C 22.679688 -15.265625 23.125 -13.394531 23.125 -11.25 C 23.125 -8.96875 22.660156 -6.960938 21.734375 -5.234375 C 20.816406 -3.515625 19.523438 -2.164062 17.859375 -1.1875 C 16.191406 -0.207031 14.257812 0.285156 12.0625 0.296875 Z M 11.90625 -5.03125 C 13.476562 -5.03125 14.71875 -5.582031 15.625 -6.6875 C 16.539062 -7.789062 17 -9.269531 17 -11.125 C 17 -12.789062 16.566406 -14.117188 15.703125 -15.109375 C 14.835938 -16.109375 13.6875 -16.609375 12.25 -16.609375 C 11.1875 -16.609375 10.257812 -16.347656 9.46875 -15.828125 C 8.675781 -15.304688 8.0625 -14.59375 7.625 -13.6875 C 7.195312 -12.789062 6.984375 -11.753906 6.984375 -10.578125 C 6.984375 -8.828125 7.414062 -7.460938 8.28125 -6.484375 C 9.15625 -5.515625 10.363281 -5.03125 11.90625 -5.03125 Z M 11.90625 -5.03125 "/></g></g></g><g fill="#ffffff" fill-opacity="1"><g transform="translate(504.528259, 262.29442)"><g><path d="M 1.828125 0 L 1.828125 -21.625 L 9.4375 -21.625 C 13.769531 -21.625 17.035156 -20.710938 19.234375 -18.890625 C 21.441406 -17.078125 22.546875 -14.394531 22.546875 -10.84375 C 22.546875 -9.28125 22.257812 -7.835938 21.6875 -6.515625 C 21.125 -5.203125 20.320312 -4.054688 19.28125 -3.078125 C 18.25 -2.097656 17.023438 -1.335938 15.609375 -0.796875 C 14.203125 -0.265625 12.664062 0 11 0 Z M 7.921875 -5.359375 L 10.578125 -5.359375 C 12.503906 -5.359375 13.957031 -5.816406 14.9375 -6.734375 C 15.925781 -7.648438 16.421875 -8.96875 16.421875 -10.6875 C 16.421875 -12.625 15.898438 -14.035156 14.859375 -14.921875 C 13.828125 -15.816406 12.21875 -16.265625 10.03125 -16.265625 L 7.921875 -16.265625 Z M 7.921875 -5.359375 "/></g></g></g><g fill="#ffffff" fill-opacity="1"><g transform="translate(535.516821, 262.29442)"><g><path d="M 15.8125 -21.625 L 21.78125 -21.625 L 21.84375 -9.78125 C 21.863281 -7.789062 21.457031 -6.03125 20.625 -4.5 C 19.789062 -2.976562 18.625 -1.789062 17.125 -0.9375 C 15.625 -0.09375 13.875 0.328125 11.875 0.328125 C 8.625 0.328125 6.117188 -0.484375 4.359375 -2.109375 C 2.609375 -3.734375 1.734375 -6.140625 1.734375 -9.328125 L 1.734375 -21.625 L 7.828125 -21.625 L 7.828125 -9.625 C 7.828125 -7.976562 8.207031 -6.800781 8.96875 -6.09375 C 9.726562 -5.382812 10.707031 -5.03125 11.90625 -5.03125 C 13.164062 -5.03125 14.144531 -5.414062 14.84375 -6.1875 C 15.550781 -6.957031 15.894531 -8.226562 15.875 -10 Z M 15.8125 -21.625 "/></g></g></g><g fill="#ffffff" fill-opacity="1"><g transform="translate(566.718655, 262.29442)"><g><path d="M 1.828125 0 L 1.828125 -21.625 L 7.921875 -21.625 L 7.921875 -12.640625 L 15.625 -21.625 L 22.875 -21.625 L 13.4375 -10.78125 C 13.925781 -10.519531 14.363281 -10.1875 14.75 -9.78125 C 15.132812 -9.375 15.46875 -8.925781 15.75 -8.4375 L 16.9375 -6.390625 C 17.46875 -5.441406 18.269531 -4.96875 19.34375 -4.96875 C 20.21875 -4.96875 21 -5.179688 21.6875 -5.609375 L 23.09375 -0.90625 C 22.601562 -0.519531 21.953125 -0.210938 21.140625 0.015625 C 20.328125 0.242188 19.503906 0.359375 18.671875 0.359375 C 15.609375 0.359375 13.414062 -0.765625 12.09375 -3.015625 L 10.109375 -6.390625 C 9.785156 -6.941406 9.472656 -7.351562 9.171875 -7.625 C 8.867188 -7.90625 8.453125 -8.097656 7.921875 -8.203125 L 7.921875 0 Z M 1.828125 0 "/></g></g></g><g fill="#ffffff" fill-opacity="1"><g transform="translate(596.244684, 262.29442)"><g><path d="M 19.59375 -21.625 L 18.703125 -16.328125 L 12.375 -16.328125 L 12.375 0 L 6.28125 0 L 6.28125 -16.328125 L -0.484375 -16.328125 L -0.484375 -21.625 Z M 19.59375 -21.625 "/></g></g></g><g fill="#ffffff" fill-opacity="1"><g transform="translate(622.48008, 262.29442)"><g><path d="M 1.828125 0 L 1.828125 -21.625 L 7.921875 -21.625 L 7.921875 0 Z M 1.828125 0 "/></g></g></g><g fill="#ffffff" fill-opacity="1"><g transform="translate(639.849052, 262.29442)"><g><path d="M 16.84375 -16.421875 L 7.828125 -16.421875 L 7.828125 -13.1875 L 16.0625 -13.1875 L 16.0625 -7.984375 L 7.828125 -7.984375 L 7.828125 0 L 1.828125 0 L 1.828125 -21.625 L 16.84375 -21.625 Z M 16.84375 -16.421875 "/></g></g></g></svg>