<svg xmlns="http://www.w3.org/2000/svg" xmlns:xlink="http://www.w3.org/1999/xlink" width="500" zoomAndPan="magnify" viewBox="0 0 375 187.499995" height="250" preserveAspectRatio="xMidYMid meet" version="1.0"><defs><g/><clipPath id="8658a11c20"><path d="M 0.617188 0 L 127.660156 0 L 127.660156 186 L 0.617188 186 Z M 0.617188 0 " clip-rule="nonzero"/></clipPath></defs><g clip-path="url(#8658a11c20)"><path fill="#c0392b" d="M 46.105469 66.492188 C 52.40625 64.695312 58.675781 69.460938 58.675781 76.027344 L 58.675781 177.125 C 58.675781 182.769531 53.433594 186.992188 47.945312 185.695312 C 20.894531 179.3125 0.699219 154.925781 0.699219 125.902344 C 0.699219 97.800781 19.617188 74.058594 46.105469 66.492188 Z M 69.734375 61.132812 L 69.734375 177.125 C 69.734375 182.769531 74.980469 186.992188 80.46875 185.695312 C 107.519531 179.316406 127.714844 154.925781 127.714844 125.902344 L 127.714844 7.753906 C 127.714844 3.320312 123.675781 -0.015625 119.332031 0.828125 C 91.109375 6.324219 69.734375 31.273438 69.734375 61.132812 Z M 69.734375 61.132812 " fill-opacity="1" fill-rule="nonzero"/></g><g fill="#c0392b" fill-opacity="1"><g transform="translate(138.135123, 108.743997)"><g><path d="M 2.578125 0 L 2.578125 -30.484375 L 11.15625 -30.484375 L 11.15625 0 Z M 2.578125 0 "/></g></g></g><g fill="#c0392b" fill-opacity="1"><g transform="translate(162.606966, 108.743997)"><g><path d="M 22.03125 -30.484375 L 30.265625 -30.484375 L 30.265625 0 L 22.625 0 L 10.8125 -16.40625 L 10.8125 0 L 2.578125 0 L 2.578125 -30.484375 L 10.21875 -30.484375 L 22.03125 -14.125 Z M 22.03125 -30.484375 "/></g></g></g><g fill="#c0392b" fill-opacity="1"><g transform="translate(206.181076, 108.743997)"><g><path d="M -1.671875 0 L 11.765625 -30.484375 L 18.890625 -30.484375 L 31.859375 0 L 23.1875 0 L 21.046875 -5.453125 L 9.234375 -5.453125 L 7 0 Z M 12.15625 -12.53125 L 18.203125 -12.53125 L 15.25 -20.015625 Z M 12.15625 -12.53125 "/></g></g></g><g fill="#c0392b" fill-opacity="1"><g transform="translate(247.26545, 108.743997)"><g><path d="M 2.65625 0 L 3.5625 -30.484375 L 10.5625 -30.484375 L 20.78125 -10.609375 L 30.828125 -30.484375 L 37.828125 -30.484375 L 38.46875 0 L 30.1875 0 L 29.921875 -12.75 L 23.40625 0 L 17.390625 0 L 10.90625 -12.53125 L 10.515625 0 Z M 2.65625 0 "/></g></g></g><g fill="#c0392b" fill-opacity="1"><g transform="translate(299.167283, 108.743997)"><g><path d="M 2.578125 0 L 2.578125 -30.484375 L 11.15625 -30.484375 L 11.15625 0 Z M 2.578125 0 "/></g></g></g><g fill="#c0392b" fill-opacity="1"><g transform="translate(323.639128, 108.743997)"><g><path d="M 12.84375 0.421875 C 9 0.421875 6.003906 -0.390625 3.859375 -2.015625 C 1.710938 -3.648438 0.5 -6.023438 0.21875 -9.140625 L 8.15625 -10.3125 C 8.21875 -9.21875 8.695312 -8.332031 9.59375 -7.65625 C 10.5 -6.988281 11.664062 -6.65625 13.09375 -6.65625 C 15.726562 -6.65625 17.046875 -7.34375 17.046875 -8.71875 C 17.046875 -9.34375 16.679688 -9.847656 15.953125 -10.234375 C 15.222656 -10.617188 14.023438 -11.015625 12.359375 -11.421875 C 8.816406 -12.273438 6.210938 -13.414062 4.546875 -14.84375 C 2.890625 -16.28125 2.078125 -18.300781 2.109375 -20.90625 C 2.128906 -22.882812 2.648438 -24.625 3.671875 -26.125 C 4.691406 -27.625 6.125 -28.796875 7.96875 -29.640625 C 9.8125 -30.492188 11.976562 -30.921875 14.46875 -30.921875 C 17.53125 -30.921875 20.054688 -30.144531 22.046875 -28.59375 C 24.035156 -27.050781 25.175781 -24.945312 25.46875 -22.28125 L 17.953125 -21 C 17.804688 -21.820312 17.367188 -22.5 16.640625 -23.03125 C 15.910156 -23.5625 15.03125 -23.828125 14 -23.828125 C 13.019531 -23.828125 12.238281 -23.632812 11.65625 -23.25 C 11.070312 -22.863281 10.78125 -22.34375 10.78125 -21.6875 C 10.78125 -21.082031 11.070312 -20.554688 11.65625 -20.109375 C 12.238281 -19.671875 13.347656 -19.25 14.984375 -18.84375 C 17.328125 -18.269531 19.289062 -17.617188 20.875 -16.890625 C 22.46875 -16.160156 23.671875 -15.222656 24.484375 -14.078125 C 25.304688 -12.929688 25.71875 -11.429688 25.71875 -9.578125 C 25.71875 -7.597656 25.179688 -5.859375 24.109375 -4.359375 C 23.035156 -2.859375 21.53125 -1.6875 19.59375 -0.84375 C 17.664062 0 15.414062 0.421875 12.84375 0.421875 Z M 12.84375 0.421875 "/></g></g></g><g fill="#ffffff" fill-opacity="1"><g transform="translate(140.860959, 125.873181)"><g><path d="M 7.671875 -7.15625 L 3.40625 -7.15625 L 3.40625 -5.859375 L 7.328125 -5.859375 L 7.328125 -3.59375 L 3.40625 -3.59375 L 3.40625 -2.265625 L 7.78125 -2.265625 L 7.609375 0 L 0.796875 0 L 0.796875 -9.421875 L 7.671875 -9.421875 Z M 7.671875 -7.15625 "/></g></g></g><g fill="#ffffff" fill-opacity="1"><g transform="translate(152.068374, 125.873181)"><g><path d="M 7.328125 -7.15625 L 3.40625 -7.15625 L 3.40625 -5.75 L 6.984375 -5.75 L 6.984375 -3.46875 L 3.40625 -3.46875 L 3.40625 0 L 0.796875 0 L 0.796875 -9.421875 L 7.328125 -9.421875 Z M 7.328125 -7.15625 "/></g></g></g><g fill="#ffffff" fill-opacity="1"><g transform="translate(162.705566, 125.873181)"><g><path d="M 0.796875 0 L 0.796875 -9.421875 L 3.453125 -9.421875 L 3.453125 0 Z M 0.796875 0 "/></g></g></g><g fill="#ffffff" fill-opacity="1"><g transform="translate(170.266193, 125.873181)"><g><path d="M 3.96875 0.125 C 2.78125 0.125 1.851562 -0.125 1.1875 -0.625 C 0.53125 -1.125 0.15625 -1.859375 0.0625 -2.828125 L 2.515625 -3.1875 C 2.535156 -2.84375 2.679688 -2.566406 2.953125 -2.359375 C 3.234375 -2.160156 3.597656 -2.0625 4.046875 -2.0625 C 4.859375 -2.0625 5.265625 -2.269531 5.265625 -2.6875 C 5.265625 -2.882812 5.148438 -3.039062 4.921875 -3.15625 C 4.703125 -3.28125 4.335938 -3.40625 3.828125 -3.53125 C 2.722656 -3.789062 1.914062 -4.140625 1.40625 -4.578125 C 0.894531 -5.023438 0.644531 -5.648438 0.65625 -6.453125 C 0.65625 -7.066406 0.8125 -7.601562 1.125 -8.0625 C 1.445312 -8.53125 1.890625 -8.894531 2.453125 -9.15625 C 3.023438 -9.414062 3.695312 -9.546875 4.46875 -9.546875 C 5.414062 -9.546875 6.195312 -9.304688 6.8125 -8.828125 C 7.425781 -8.359375 7.773438 -7.710938 7.859375 -6.890625 L 5.546875 -6.484375 C 5.503906 -6.742188 5.367188 -6.953125 5.140625 -7.109375 C 4.910156 -7.273438 4.640625 -7.359375 4.328125 -7.359375 C 4.023438 -7.359375 3.78125 -7.296875 3.59375 -7.171875 C 3.414062 -7.054688 3.328125 -6.898438 3.328125 -6.703125 C 3.328125 -6.515625 3.414062 -6.351562 3.59375 -6.21875 C 3.78125 -6.082031 4.125 -5.953125 4.625 -5.828125 C 5.351562 -5.648438 5.960938 -5.445312 6.453125 -5.21875 C 6.941406 -4.988281 7.3125 -4.695312 7.5625 -4.34375 C 7.820312 -4 7.953125 -3.535156 7.953125 -2.953125 C 7.953125 -2.347656 7.785156 -1.8125 7.453125 -1.34375 C 7.117188 -0.882812 6.648438 -0.523438 6.046875 -0.265625 C 5.453125 -0.00390625 4.757812 0.125 3.96875 0.125 Z M 3.96875 0.125 "/></g></g></g><g fill="#ffffff" fill-opacity="1"><g transform="translate(181.71231, 125.873181)"><g><path d="M 0.796875 0 L 0.796875 -9.421875 L 3.453125 -9.421875 L 3.453125 0 Z M 0.796875 0 "/></g></g></g><g fill="#ffffff" fill-opacity="1"><g transform="translate(189.272936, 125.873181)"><g><path d="M 7.671875 -7.15625 L 3.40625 -7.15625 L 3.40625 -5.859375 L 7.328125 -5.859375 L 7.328125 -3.59375 L 3.40625 -3.59375 L 3.40625 -2.265625 L 7.78125 -2.265625 L 7.609375 0 L 0.796875 0 L 0.796875 -9.421875 L 7.671875 -9.421875 Z M 7.671875 -7.15625 "/></g></g></g><g fill="#ffffff" fill-opacity="1"><g transform="translate(200.480352, 125.873181)"><g><path d="M 6.8125 -9.421875 L 9.359375 -9.421875 L 9.359375 0 L 6.984375 0 L 3.34375 -5.0625 L 3.34375 0 L 0.796875 0 L 0.796875 -9.421875 L 3.15625 -9.421875 L 6.8125 -4.359375 Z M 6.8125 -9.421875 "/></g></g></g><g fill="#ffffff" fill-opacity="1"><g transform="translate(213.942154, 125.873181)"><g/></g></g><g fill="#ffffff" fill-opacity="1"><g transform="translate(220.733641, 125.873181)"><g><path d="M 4.546875 0.109375 C 3.753906 0.109375 3.050781 -0.015625 2.4375 -0.265625 C 1.832031 -0.523438 1.359375 -0.875 1.015625 -1.3125 C 0.671875 -1.75 0.5 -2.242188 0.5 -2.796875 C 0.5 -3.390625 0.628906 -3.875 0.890625 -4.25 C 1.160156 -4.632812 1.492188 -4.953125 1.890625 -5.203125 C 1.648438 -5.484375 1.460938 -5.769531 1.328125 -6.0625 C 1.203125 -6.363281 1.140625 -6.695312 1.140625 -7.0625 C 1.140625 -7.53125 1.269531 -7.945312 1.53125 -8.3125 C 1.800781 -8.675781 2.164062 -8.960938 2.625 -9.171875 C 3.09375 -9.390625 3.632812 -9.5 4.25 -9.5 C 5.082031 -9.5 5.75 -9.304688 6.25 -8.921875 C 6.75 -8.535156 7 -8 7 -7.3125 C 7 -6.914062 6.914062 -6.578125 6.75 -6.296875 C 6.582031 -6.023438 6.363281 -5.789062 6.09375 -5.59375 C 5.832031 -5.40625 5.546875 -5.226562 5.234375 -5.0625 L 7.328125 -3.171875 C 7.503906 -3.429688 7.632812 -3.722656 7.71875 -4.046875 L 6.84375 -4.046875 L 6.84375 -6 L 10.78125 -6 L 10.78125 -4.046875 L 9.796875 -4.046875 C 9.640625 -3.296875 9.335938 -2.613281 8.890625 -2 C 9.148438 -1.90625 9.425781 -1.863281 9.71875 -1.875 C 9.925781 -1.875 10.09375 -1.890625 10.21875 -1.921875 C 10.351562 -1.960938 10.503906 -2.03125 10.671875 -2.125 L 11.21875 -0.34375 C 10.707031 0.0195312 10.050781 0.1875 9.25 0.15625 C 8.425781 0.132812 7.695312 -0.0703125 7.0625 -0.46875 C 6.6875 -0.28125 6.285156 -0.132812 5.859375 -0.03125 C 5.441406 0.0625 5.003906 0.109375 4.546875 0.109375 Z M 3.46875 -7.078125 C 3.46875 -6.953125 3.5 -6.832031 3.5625 -6.71875 C 3.625 -6.601562 3.765625 -6.445312 3.984375 -6.25 C 4.253906 -6.382812 4.476562 -6.523438 4.65625 -6.671875 C 4.832031 -6.828125 4.921875 -7.015625 4.921875 -7.234375 C 4.921875 -7.390625 4.859375 -7.503906 4.734375 -7.578125 C 4.617188 -7.660156 4.460938 -7.703125 4.265625 -7.703125 C 4.023438 -7.703125 3.832031 -7.644531 3.6875 -7.53125 C 3.539062 -7.425781 3.46875 -7.273438 3.46875 -7.078125 Z M 3.046875 -3.109375 C 3.046875 -2.722656 3.207031 -2.410156 3.53125 -2.171875 C 3.851562 -1.941406 4.269531 -1.828125 4.78125 -1.828125 C 5 -1.828125 5.207031 -1.847656 5.40625 -1.890625 L 3.296875 -3.84375 C 3.128906 -3.625 3.046875 -3.378906 3.046875 -3.109375 Z M 3.046875 -3.109375 "/></g></g></g><g fill="#ffffff" fill-opacity="1"><g transform="translate(235.455245, 125.873181)"><g/></g></g><g fill="#ffffff" fill-opacity="1"><g transform="translate(242.246733, 125.873181)"><g><path d="M 3.390625 0 L 0.796875 0 L 0.796875 -9.421875 L 4.359375 -9.421875 C 5.816406 -9.421875 6.894531 -9.15625 7.59375 -8.625 C 8.289062 -8.101562 8.640625 -7.335938 8.640625 -6.328125 C 8.640625 -5.648438 8.457031 -5.066406 8.09375 -4.578125 C 7.726562 -4.097656 7.210938 -3.726562 6.546875 -3.46875 C 5.890625 -3.207031 5.097656 -3.078125 4.171875 -3.078125 L 3.390625 -3.078125 Z M 4.4375 -7.28125 L 3.390625 -7.28125 L 3.390625 -5.234375 L 4.3125 -5.234375 C 4.863281 -5.234375 5.28125 -5.316406 5.5625 -5.484375 C 5.851562 -5.648438 6 -5.921875 6 -6.296875 C 6 -6.640625 5.875 -6.890625 5.625 -7.046875 C 5.375 -7.203125 4.976562 -7.28125 4.4375 -7.28125 Z M 4.4375 -7.28125 "/></g></g></g><g fill="#ffffff" fill-opacity="1"><g transform="translate(254.276338, 125.873181)"><g><path d="M 9.09375 -2.4375 L 9.703125 -0.390625 C 9.492188 -0.222656 9.210938 -0.09375 8.859375 0 C 8.503906 0.101562 8.144531 0.15625 7.78125 0.15625 C 7.082031 0.15625 6.503906 0.03125 6.046875 -0.21875 C 5.585938 -0.476562 5.21875 -0.84375 4.9375 -1.3125 L 4.0625 -2.78125 C 3.957031 -2.957031 3.851562 -3.085938 3.75 -3.171875 C 3.65625 -3.265625 3.535156 -3.328125 3.390625 -3.359375 L 3.390625 0 L 0.796875 0 L 0.796875 -9.421875 L 3.984375 -9.421875 C 5.429688 -9.421875 6.5 -9.144531 7.1875 -8.59375 C 7.882812 -8.050781 8.234375 -7.289062 8.234375 -6.3125 C 8.234375 -5.625 8.035156 -5.050781 7.640625 -4.59375 C 7.242188 -4.132812 6.71875 -3.816406 6.0625 -3.640625 C 6.394531 -3.523438 6.660156 -3.320312 6.859375 -3.03125 L 7.09375 -2.671875 C 7.3125 -2.328125 7.65625 -2.15625 8.125 -2.15625 C 8.289062 -2.15625 8.453125 -2.175781 8.609375 -2.21875 C 8.773438 -2.257812 8.9375 -2.332031 9.09375 -2.4375 Z M 3.953125 -7.28125 L 3.390625 -7.28125 L 3.390625 -5.40625 L 4.078125 -5.40625 C 4.648438 -5.40625 5.046875 -5.484375 5.265625 -5.640625 C 5.492188 -5.796875 5.609375 -6.039062 5.609375 -6.375 C 5.609375 -6.71875 5.457031 -6.953125 5.15625 -7.078125 C 4.851562 -7.210938 4.453125 -7.28125 3.953125 -7.28125 Z M 3.953125 -7.28125 "/></g></g></g><g fill="#ffffff" fill-opacity="1"><g transform="translate(266.690513, 125.873181)"><g><path d="M 5.25 0.125 C 4.238281 0.132812 3.363281 -0.0390625 2.625 -0.40625 C 1.894531 -0.78125 1.332031 -1.316406 0.9375 -2.015625 C 0.550781 -2.710938 0.359375 -3.550781 0.359375 -4.53125 C 0.359375 -5.539062 0.566406 -6.421875 0.984375 -7.171875 C 1.410156 -7.921875 2.003906 -8.503906 2.765625 -8.921875 C 3.523438 -9.335938 4.414062 -9.546875 5.4375 -9.546875 C 6.363281 -9.546875 7.175781 -9.351562 7.875 -8.96875 C 8.570312 -8.582031 9.109375 -8.039062 9.484375 -7.34375 C 9.867188 -6.644531 10.0625 -5.828125 10.0625 -4.890625 C 10.0625 -3.898438 9.859375 -3.03125 9.453125 -2.28125 C 9.054688 -1.53125 8.492188 -0.941406 7.765625 -0.515625 C 7.046875 -0.0859375 6.207031 0.125 5.25 0.125 Z M 5.1875 -2.1875 C 5.863281 -2.1875 6.398438 -2.425781 6.796875 -2.90625 C 7.203125 -3.394531 7.40625 -4.039062 7.40625 -4.84375 C 7.40625 -5.570312 7.21875 -6.148438 6.84375 -6.578125 C 6.46875 -7.015625 5.960938 -7.234375 5.328125 -7.234375 C 4.867188 -7.234375 4.46875 -7.117188 4.125 -6.890625 C 3.78125 -6.660156 3.507812 -6.347656 3.3125 -5.953125 C 3.125 -5.566406 3.03125 -5.117188 3.03125 -4.609375 C 3.03125 -3.847656 3.21875 -3.253906 3.59375 -2.828125 C 3.976562 -2.398438 4.507812 -2.1875 5.1875 -2.1875 Z M 5.1875 -2.1875 "/></g></g></g><g fill="#ffffff" fill-opacity="1"><g transform="translate(280.4308, 125.873181)"><g><path d="M 0.796875 0 L 0.796875 -9.421875 L 4.109375 -9.421875 C 5.992188 -9.421875 7.414062 -9.023438 8.375 -8.234375 C 9.332031 -7.441406 9.8125 -6.269531 9.8125 -4.71875 C 9.8125 -4.039062 9.6875 -3.414062 9.4375 -2.84375 C 9.195312 -2.269531 8.847656 -1.769531 8.390625 -1.34375 C 7.941406 -0.914062 7.410156 -0.582031 6.796875 -0.34375 C 6.179688 -0.113281 5.507812 0 4.78125 0 Z M 3.453125 -2.328125 L 4.609375 -2.328125 C 5.441406 -2.328125 6.070312 -2.523438 6.5 -2.921875 C 6.9375 -3.328125 7.15625 -3.90625 7.15625 -4.65625 C 7.15625 -5.5 6.925781 -6.113281 6.46875 -6.5 C 6.019531 -6.882812 5.316406 -7.078125 4.359375 -7.078125 L 3.453125 -7.078125 Z M 3.453125 -2.328125 "/></g></g></g><g fill="#ffffff" fill-opacity="1"><g transform="translate(293.91912, 125.873181)"><g><path d="M 6.890625 -9.421875 L 9.484375 -9.421875 L 9.515625 -4.265625 C 9.523438 -3.390625 9.347656 -2.617188 8.984375 -1.953125 C 8.617188 -1.296875 8.109375 -0.78125 7.453125 -0.40625 C 6.796875 -0.0390625 6.035156 0.140625 5.171875 0.140625 C 3.753906 0.140625 2.660156 -0.210938 1.890625 -0.921875 C 1.128906 -1.628906 0.75 -2.675781 0.75 -4.0625 L 0.75 -9.421875 L 3.40625 -9.421875 L 3.40625 -4.1875 C 3.40625 -3.476562 3.570312 -2.96875 3.90625 -2.65625 C 4.238281 -2.34375 4.664062 -2.1875 5.1875 -2.1875 C 5.738281 -2.1875 6.164062 -2.351562 6.46875 -2.6875 C 6.769531 -3.03125 6.914062 -3.582031 6.90625 -4.34375 Z M 6.890625 -9.421875 "/></g></g></g><g fill="#ffffff" fill-opacity="1"><g transform="translate(307.500272, 125.873181)"><g><path d="M 0.796875 0 L 0.796875 -9.421875 L 3.453125 -9.421875 L 3.453125 -5.5 L 6.8125 -9.421875 L 9.96875 -9.421875 L 5.84375 -4.703125 C 6.0625 -4.585938 6.253906 -4.441406 6.421875 -4.265625 C 6.585938 -4.085938 6.734375 -3.890625 6.859375 -3.671875 L 7.375 -2.78125 C 7.601562 -2.363281 7.953125 -2.15625 8.421875 -2.15625 C 8.804688 -2.15625 9.144531 -2.25 9.4375 -2.4375 L 10.0625 -0.390625 C 9.84375 -0.222656 9.554688 -0.09375 9.203125 0 C 8.847656 0.101562 8.488281 0.15625 8.125 0.15625 C 6.789062 0.15625 5.835938 -0.332031 5.265625 -1.3125 L 4.40625 -2.78125 C 4.257812 -3.019531 4.117188 -3.195312 3.984375 -3.3125 C 3.859375 -3.4375 3.679688 -3.519531 3.453125 -3.5625 L 3.453125 0 Z M 0.796875 0 "/></g></g></g><g fill="#ffffff" fill-opacity="1"><g transform="translate(320.352067, 125.873181)"><g><path d="M 8.53125 -9.421875 L 8.140625 -7.109375 L 5.390625 -7.109375 L 5.390625 0 L 2.734375 0 L 2.734375 -7.109375 L -0.21875 -7.109375 L -0.21875 -9.421875 Z M 8.53125 -9.421875 "/></g></g></g><g fill="#ffffff" fill-opacity="1"><g transform="translate(331.771676, 125.873181)"><g><path d="M 0.796875 0 L 0.796875 -9.421875 L 3.453125 -9.421875 L 3.453125 0 Z M 0.796875 0 "/></g></g></g><g fill="#ffffff" fill-opacity="1"><g transform="translate(339.332304, 125.873181)"><g><path d="M 7.328125 -7.15625 L 3.40625 -7.15625 L 3.40625 -5.75 L 6.984375 -5.75 L 6.984375 -3.46875 L 3.40625 -3.46875 L 3.40625 0 L 0.796875 0 L 0.796875 -9.421875 L 7.328125 -9.421875 Z M 7.328125 -7.15625 "/></g></g></g></svg>